<svg width="24" height="24" viewBox="0 0 24 24" fill="none" xmlns="http://www.w3.org/2000/svg">
<path d="M19.7072 10.7071C19.5122 10.9021 19.2562 11 19.0002 11C18.7442 11 18.4882 10.9021 18.2933 10.7071L13.0002 5.4141V21C13.0002 21.553 12.5532 22 12.0002 22C11.4472 22 11.0002 21.553 11.0002 21V5.4141L5.70719 10.7071C5.31619 11.0981 4.68425 11.0981 4.29325 10.7071C3.90225 10.3161 3.90225 9.68401 4.29325 9.29301L11.2933 2.29301C11.6842 1.90201 12.3162 1.90201 12.7072 2.29301L19.7072 9.29301C20.0982 9.68401 20.0982 10.3161 19.7072 10.7071Z" fill="black"/>
</svg>
