<svg width="24" height="24" viewBox="0 0 24 24" fill="none" xmlns="http://www.w3.org/2000/svg">
<path d="M22.0002 12C22.0002 12.553 21.5532 13 21.0002 13H5.41422L10.7072 18.293C11.0982 18.684 11.0982 19.3161 10.7072 19.7071C10.5122 19.9021 10.2562 20 10.0002 20C9.74422 20 9.48825 19.9021 9.29325 19.7071L2.29325 12.7071C1.90225 12.3161 1.90225 11.684 2.29325 11.293L9.29325 4.29301C9.68425 3.90201 10.3162 3.90201 10.7072 4.29301C11.0982 4.68401 11.0982 5.31607 10.7072 5.70707L5.41422 11H21.0002C21.5532 11 22.0002 11.447 22.0002 12Z" fill="black"/>
</svg>
