<svg width="24" height="24" viewBox="0 0 24 24" fill="none" xmlns="http://www.w3.org/2000/svg">
<path d="M21.707 12.7071L14.707 19.7071C14.512 19.9021 14.256 20 14 20C13.744 20 13.488 19.9021 13.293 19.7071C12.902 19.3161 12.902 18.684 13.293 18.293L18.586 13H3C2.447 13 2 12.553 2 12C2 11.447 2.447 11 3 11H18.586L13.293 5.70707C12.902 5.31607 12.902 4.68401 13.293 4.29301C13.684 3.90201 14.316 3.90201 14.707 4.29301L21.707 11.293C22.098 11.684 22.098 12.3161 21.707 12.7071Z" fill="black"/>
</svg>
