<svg width="24" height="24" viewBox="0 0 24 24" fill="none" xmlns="http://www.w3.org/2000/svg">
<path d="M9.99889 19.75H13.9989C13.9989 20.75 13.2819 21.75 11.9989 21.75C10.7159 21.75 9.99889 20.75 9.99889 19.75ZM20.2409 15.5249L19.1349 13.679C18.7159 12.98 18.4949 12.1799 18.4949 11.3669V8.73999C18.4949 5.16099 15.5809 2.25 11.9999 2.25C8.41889 2.25 5.50489 5.16099 5.50489 8.73999V11.3669C5.50489 12.1799 5.28389 12.98 4.86489 13.679L3.75888 15.5249C3.42088 16.0869 3.4129 16.7649 3.7369 17.3369C4.0609 17.9089 4.64688 18.25 5.30388 18.25H18.6979C19.3559 18.25 19.9419 17.9079 20.2659 17.3369C20.5869 16.7659 20.5789 16.0879 20.2409 15.5249Z" fill="black"/>
</svg>
