<svg width="24" height="24" viewBox="0 0 24 24" fill="none" xmlns="http://www.w3.org/2000/svg">
<path d="M9.99976 19.75H13.9998C13.9998 20.75 13.2828 21.75 11.9998 21.75C10.7168 21.75 9.99976 20.75 9.99976 19.75ZM4.51977 15.73C4.64777 15.73 4.77576 15.68 4.87376 15.584L16.0738 4.38403C16.1748 4.28203 16.2278 4.143 16.2198 4C16.2118 3.857 16.1418 3.72496 16.0298 3.63696C14.8728 2.72996 13.4798 2.25 12.0008 2.25C8.41677 2.25 5.50077 5.16099 5.50077 8.73999V11.3701C5.50077 12.1901 5.27976 12.9891 4.86176 13.6841L4.09176 14.9741C3.96276 15.1901 4.01477 15.469 4.21377 15.624C4.30377 15.695 4.41177 15.73 4.51977 15.73ZM20.7068 3.04297C20.3158 2.65197 19.6838 2.65197 19.2928 3.04297L3.29276 19.043C2.90176 19.434 2.90176 20.066 3.29276 20.457C3.48776 20.652 3.74376 20.75 3.99976 20.75C4.25576 20.75 4.51176 20.652 4.70676 20.457L6.91376 18.25H18.6998C19.3548 18.25 19.9388 17.91 20.2618 17.342C20.5868 16.77 20.5778 16.0899 20.2398 15.5239L19.1388 13.6831C18.7218 12.9901 18.5008 12.1901 18.5008 11.3711V8.74097C18.5008 8.12097 18.4068 7.51593 18.2358 6.92993L20.7078 4.45801C21.0978 4.06601 21.0978 3.43397 20.7068 3.04297Z" fill="black"/>
</svg>
