<svg width="24" height="24" viewBox="0 0 24 24" fill="none" xmlns="http://www.w3.org/2000/svg">
<path d="M12 2.5C6.76 2.5 2.5 6.76 2.5 12C2.5 17.24 6.76 21.5 12 21.5C17.24 21.5 21.5 17.24 21.5 12C21.5 6.76 17.24 2.5 12 2.5ZM13.71 14.29C14.1 14.68 14.1 15.32 13.71 15.71C13.51 15.9 13.26 16 13 16C12.74 16 12.49 15.9 12.29 15.71L9.28998 12.71C8.89998 12.32 8.89998 11.68 9.28998 11.29L12.29 8.29004C12.68 7.90004 13.32 7.90004 13.71 8.29004C14.1 8.68004 14.1 9.31996 13.71 9.70996L11.41 12L13.71 14.29Z" fill="black"/>
</svg>
