<svg width="24" height="24" viewBox="0 0 24 24" fill="none" xmlns="http://www.w3.org/2000/svg">
<path d="M20.62 9.86896L20.04 9.28888C19.76 9.00888 19.6 8.62882 19.6 8.22882V7.40875C19.6 5.74875 18.25 4.39874 16.59 4.39874H15.77C15.37 4.39874 14.99 4.2488 14.71 3.9588L14.13 3.37872C12.96 2.20872 11.05 2.20872 9.87 3.37872L9.28998 3.9588C9.00998 4.2488 8.62998 4.39874 8.22998 4.39874H7.40997C5.74997 4.39874 4.40002 5.74875 4.40002 7.40875V8.22882C4.40002 8.62882 4.25002 9.00888 3.96002 9.28888L3.38 9.86896C2.81 10.439 2.5 11.1988 2.5 11.9988C2.5 12.7988 2.81 13.5587 3.38 14.1287L3.96002 14.7088C4.25002 14.9888 4.40002 15.3689 4.40002 15.7689V16.5889C4.40002 18.2489 5.74997 19.5989 7.40997 19.5989H8.22998C8.62998 19.5989 9.00998 19.7489 9.28998 20.0389L9.87 20.619C10.46 21.209 11.23 21.4988 12 21.4988C12.77 21.4988 13.54 21.209 14.13 20.619L14.71 20.0389C14.99 19.7489 15.37 19.5989 15.77 19.5989H16.59C18.25 19.5989 19.6 18.2489 19.6 16.5889V15.7689C19.6 15.3689 19.76 14.9888 20.04 14.7088L20.62 14.1287C21.19 13.5587 21.5 12.7988 21.5 11.9988C21.5 11.1988 21.19 10.439 20.62 9.86896ZM9.5 8.24884C10.19 8.24884 10.75 8.80884 10.75 9.49884C10.75 10.1888 10.19 10.7488 9.5 10.7488C8.81 10.7488 8.25 10.1888 8.25 9.49884C8.25 8.80884 8.81 8.24884 9.5 8.24884ZM14.5 15.7488C13.81 15.7488 13.25 15.1888 13.25 14.4988C13.25 13.8088 13.81 13.2488 14.5 13.2488C15.19 13.2488 15.75 13.8088 15.75 14.4988C15.75 15.1888 15.19 15.7488 14.5 15.7488ZM15.71 9.7088L9.71002 15.7088C9.51002 15.8988 9.26 15.9988 9 15.9988C8.75 15.9988 8.48998 15.8988 8.28998 15.7088C7.89998 15.3188 7.89998 14.6789 8.28998 14.2889L14.29 8.28888C14.69 7.89888 15.32 7.89888 15.71 8.28888C16.1 8.67888 16.1 9.3188 15.71 9.7088Z" fill="black"/>
</svg>
