<svg width="24" height="24" viewBox="0 0 24 24" fill="none" xmlns="http://www.w3.org/2000/svg">
<path d="M17 10.7271H16.08L13.78 13.0324C13.31 13.5135 12.68 13.7741 12.01 13.7741C11.35 13.7741 10.72 13.5135 10.25 13.0324L7.95001 10.7271H7C4.51 10.7271 2.5 12.7517 2.5 15.2374V16.2397C2.5 18.7354 4.51 20.75 7 20.75H17C19.48 20.75 21.5 18.7354 21.5 16.2397V15.2374C21.5 12.7517 19.48 10.7271 17 10.7271ZM17 16.4903C16.3 16.4903 15.74 15.929 15.74 15.2374C15.74 14.5458 16.3 13.9845 17 13.9845C17.69 13.9845 18.24 14.5458 18.24 15.2374C18.24 15.929 17.69 16.4903 17 16.4903ZM8.31 8.96302C7.92 8.57213 7.92 7.94077 8.31 7.54988C8.5 7.34942 8.76001 7.25917 9.01001 7.25917C9.27001 7.25917 9.52997 7.34942 9.71997 7.54988L11.01 8.84287V4.25229C11.01 3.69101 11.46 3.25 12.01 3.25C12.57 3.25 13.01 3.69101 13.01 4.25229V8.84287L14.31 7.54988C14.5 7.34942 14.76 7.25917 15.01 7.25917C15.27 7.25917 15.53 7.34942 15.72 7.54988C16.11 7.94077 16.11 8.57213 15.72 8.96302L12.72 11.9699C12.53 12.1704 12.27 12.2706 12.01 12.2706C11.76 12.2706 11.5 12.1704 11.31 11.9699L8.31 8.96302Z" fill="black"/>
</svg>
