<svg width="24" height="24" viewBox="0 0 24 24" fill="none" xmlns="http://www.w3.org/2000/svg">
<path d="M21.0097 10.241C20.4669 9.344 19.5842 8.1291 18.3646 7.0391L20.6958 4.70707C21.0867 4.31607 21.0867 3.68401 20.6958 3.29301C20.3049 2.90201 19.6731 2.90201 19.2823 3.29301L3.28754 19.293C2.89667 19.684 2.89667 20.3161 3.28754 20.7071C3.48248 20.9021 3.7384 21 3.99431 21C4.25023 21 4.50614 20.9021 4.70108 20.7071L7.23525 18.1722C8.70476 19.0512 10.2972 19.501 11.9927 19.501C16.8211 19.501 19.7102 15.901 21.0097 13.761C21.6595 12.671 21.6595 11.331 21.0097 10.241ZM11.9927 16.501C11.111 16.501 10.3013 16.2341 9.60849 15.7981L11.081 14.324C11.3629 14.435 11.6688 14.501 11.9917 14.501C13.3712 14.501 14.4909 13.381 14.4909 12.001C14.4909 11.951 14.4909 11.9211 14.4809 11.8711C14.3409 11.9511 14.171 12.001 13.991 12.001C13.8211 12.001 13.6691 11.9481 13.5302 11.8741L15.7914 9.6121C16.2293 10.3061 16.4902 11.122 16.4902 12.001C16.4912 14.481 14.4719 16.501 11.9927 16.501ZM4.31522 15.6211C3.82538 15.0411 3.37554 14.411 2.98567 13.761C2.33589 12.671 2.33588 11.331 2.97567 10.241C4.27524 8.101 7.17427 4.50101 11.9927 4.50101C12.9224 4.50101 13.8221 4.63093 14.7418 4.91093C14.9117 4.96093 15.0417 5.10103 15.0917 5.27103C15.1317 5.44103 15.0817 5.621 14.9517 5.741L13.0623 7.63114C12.7224 7.55114 12.3626 7.50101 11.9927 7.50101C9.5135 7.50101 7.49417 9.52101 7.49417 12.001C7.49417 12.371 7.53416 12.7311 7.62413 13.0811L5.05497 15.6509C4.955 15.7509 4.83505 15.8011 4.6951 15.8011C4.6951 15.8011 4.68508 15.8011 4.67509 15.8011C4.53513 15.7911 4.40519 15.7311 4.31522 15.6211Z" fill="black"/>
</svg>
