<svg width="24" height="24" viewBox="0 0 24 24" fill="none" xmlns="http://www.w3.org/2000/svg">
<path d="M19.4475 14.522C19.5255 14.677 19.5165 14.861 19.4255 15.008C19.3345 15.1549 19.1735 15.245 19.0005 15.245H6.49951V20.7503C6.49951 21.3031 6.05151 21.75 5.49951 21.75C4.94751 21.75 4.49951 21.3031 4.49951 20.7503V13.7525L4.50052 13.7474V6.74859C4.50052 4.26837 6.51952 2.25 9.00052 2.25H19.0005C19.1735 2.25 19.3345 2.34003 19.4255 2.48699C19.5165 2.63394 19.5255 2.81772 19.4475 2.97267L16.8945 8.07606C16.6845 8.49593 16.6845 8.99781 16.8945 9.41768L19.4475 14.522Z" fill="black"/>
</svg>
