<svg width="24" height="24" viewBox="0 0 24 24" fill="none" xmlns="http://www.w3.org/2000/svg">
<path d="M18.5 15.75V19.75C18.5 20.853 17.603 21.75 16.5 21.75C15.397 21.75 14.5 20.853 14.5 19.75V15.75C14.5 14.647 15.397 13.75 16.5 13.75C17.603 13.75 18.5 14.647 18.5 15.75ZM7.5 13.75C6.397 13.75 5.5 14.647 5.5 15.75V19.75C5.5 20.853 6.397 21.75 7.5 21.75C8.603 21.75 9.5 20.853 9.5 19.75V15.75C9.5 14.647 8.603 13.75 7.5 13.75ZM12 2.25C6.486 2.25 2 6.736 2 12.25V17.25C2 17.803 2.448 18.25 3 18.25C3.552 18.25 4 17.803 4 17.25V12.25C4 7.839 7.589 4.25 12 4.25C16.411 4.25 20 7.839 20 12.25V17.25C20 17.803 20.448 18.25 21 18.25C21.552 18.25 22 17.803 22 17.25V12.25C22 6.736 17.514 2.25 12 2.25Z" fill="black"/>
</svg>
