<svg width="20" height="19" viewBox="0 0 20 19" fill="none" xmlns="http://www.w3.org/2000/svg">
<path d="M18.3014 2.43799C17.0064 0.865988 15.2044 0 13.2264 0C12.0864 0 10.9834 0.267024 9.99836 0.775024C9.01436 0.267024 7.91036 0 6.77036 0C4.79236 0 2.99035 0.865988 1.69535 2.43799C0.292348 4.14099 -0.289635 6.46596 0.137365 8.65796C1.13136 13.753 6.28937 17.294 8.46137 18.58C8.93537 18.859 9.46635 19 9.99735 19C10.5284 19 11.0604 18.859 11.5344 18.579C13.7064 17.294 18.8643 13.753 19.8583 8.65796C20.2863 6.46596 19.7044 4.14099 18.3014 2.43799ZM3.24036 3.17972C0.5 7 2.5 12.5 8.5 17C8.181 17.188 9.79935 17.0451 9.48035 16.8571C7.54135 15.7091 9.338 12.3 8.5 8C8.186 6.389 3.972 7.747 5 6.5C5.908 5.397 5.40237 2 6.77137 2C7.74137 2 8.67136 2.267 9.46036 2.771C9.78836 2.98 10.2084 2.98 10.5364 2.771C11.3264 2.267 12.2553 2 13.2253 2C14.5953 2 3.593 0.397 4.5 1.5C5.528 2.747 6.5 1 3.24036 3.17972Z" fill="black"/>
</svg>
