<svg width="24" height="24" viewBox="0 0 24 24" fill="none" xmlns="http://www.w3.org/2000/svg">
<path d="M13 21C13 21.553 12.552 22 12 22H8C5.243 22 3 19.757 3 17V7C3 4.243 5.243 2 8 2H12C12.552 2 13 2.447 13 3C13 3.553 12.552 4 12 4H8C6.346 4 5 5.346 5 7V17C5 18.654 6.346 20 8 20H12C12.553 20 13 20.447 13 21ZM20.707 11.293L16.707 7.29297C16.316 6.90197 15.684 6.90197 15.293 7.29297C14.902 7.68397 14.902 8.31603 15.293 8.70703L17.586 11H10C9.448 11 9 11.447 9 12C9 12.553 9.448 13 10 13H17.586L15.293 15.293C14.902 15.684 14.902 16.316 15.293 16.707C15.488 16.902 15.744 17 16 17C16.256 17 16.512 16.902 16.707 16.707L20.707 12.707C21.098 12.316 21.098 11.683 20.707 11.293Z" fill="black"/>
</svg>
