<svg width="24" height="24" viewBox="0 0 24 24" fill="none" xmlns="http://www.w3.org/2000/svg">
<path d="M21 7V17C21 19.757 18.757 22 16 22H12C11.448 22 11 21.553 11 21C11 20.447 11.448 20 12 20H16C17.654 20 19 18.654 19 17V7C19 5.346 17.654 4 16 4H12C11.448 4 11 3.553 11 3C11 2.447 11.448 2 12 2H16C18.757 2 21 4.243 21 7ZM14.707 11.293L10.707 7.29297C10.316 6.90197 9.684 6.90197 9.293 7.29297C8.902 7.68397 8.902 8.31603 9.293 8.70703L11.586 11H4C3.448 11 3 11.447 3 12C3 12.553 3.448 13 4 13H11.586L9.293 15.293C8.902 15.684 8.902 16.316 9.293 16.707C9.488 16.902 9.744 17 10 17C10.256 17 10.512 16.902 10.707 16.707L14.707 12.707C15.098 12.316 15.098 11.683 14.707 11.293Z" fill="black"/>
</svg>
