<svg width="24" height="24" viewBox="0 0 24 24" fill="none" xmlns="http://www.w3.org/2000/svg">
<path d="M6.5 7.5C6.5 4.468 8.967 2 12 2C15.033 2 17.5 4.468 17.5 7.5C17.5 10.19 15.556 12.4321 13 12.9041V17C13 17.553 12.552 18 12 18C11.448 18 11 17.553 11 17V12.9041C8.444 12.4321 6.5 10.19 6.5 7.5ZM15.198 14.3101C14.66 14.1991 14.129 14.55 14.02 15.092C13.91 15.633 14.26 16.161 14.802 16.271C16.984 16.712 18 17.564 18 18C18 18.705 15.722 20 12 20C8.278 20 6 18.705 6 18C6 17.563 7.017 16.712 9.198 16.271C9.74 16.162 10.09 15.633 9.98001 15.092C9.87101 14.551 9.343 14.1981 8.802 14.3101C5.795 14.9181 4 16.298 4 18C4 20.626 8.024 22 12 22C15.976 22 20 20.626 20 18C20 16.298 18.205 14.9181 15.198 14.3101Z" fill="black"/>
</svg>
