<svg width="25" height="24" viewBox="0 0 25 24" fill="none" xmlns="http://www.w3.org/2000/svg">
<path d="M10.7743 14.8889L9.64622 16.0171C10.5142 16.4901 11.4942 16.749 12.5002 16.749C15.8092 16.749 18.5002 14.058 18.5002 10.749C18.5002 10.196 18.9482 9.74902 19.5002 9.74902C20.0522 9.74902 20.5002 10.196 20.5002 10.749C20.5002 14.821 17.4402 18.1849 13.5002 18.6799V19.75H16.5002C17.0522 19.75 17.5002 20.197 17.5002 20.75C17.5002 21.303 17.0522 21.75 16.5002 21.75H8.50022C7.94822 21.75 7.50022 21.303 7.50022 20.75C7.50022 20.197 7.94822 19.75 8.50022 19.75H11.5002V18.6799C10.3172 18.5309 9.18423 18.1191 8.18723 17.4771L5.20725 20.457C5.01225 20.652 4.75622 20.75 4.50022 20.75C4.24422 20.75 3.98825 20.652 3.79325 20.457C3.40225 20.066 3.40225 19.434 3.79325 19.043L19.7932 3.04297C20.1842 2.65197 20.8162 2.65197 21.2073 3.04297C21.5983 3.43397 21.5983 4.06603 21.2073 4.45703L17.0002 8.66406V10.75C17.0002 13.231 14.9812 15.25 12.5002 15.25C11.9022 15.25 11.3213 15.1189 10.7743 14.8889ZM8.45621 12.1299C8.50321 12.1439 8.55122 12.1509 8.59922 12.1509C8.73022 12.1509 8.85722 12.0989 8.95322 12.0049L16.1332 4.82397C16.3042 4.65297 16.3283 4.38504 16.1913 4.18604C15.3533 2.97404 13.9732 2.25 12.5002 2.25C11.3082 2.25 10.1782 2.71709 9.31425 3.56909C8.46725 4.42809 8.00022 5.558 8.00022 6.75V10.75C8.00022 11.065 8.03627 11.393 8.11027 11.752C8.14727 11.932 8.28021 12.0769 8.45621 12.1299ZM6.28025 14.97C6.43525 14.97 6.59325 14.9339 6.74125 14.8569C7.23125 14.6019 7.42124 13.9991 7.16624 13.5081C6.73024 12.6701 6.49924 11.717 6.49924 10.75C6.49924 10.197 6.05124 9.75 5.49924 9.75C4.94724 9.75 4.49924 10.197 4.49924 10.75C4.49924 12.037 4.80825 13.3109 5.39225 14.4319C5.57025 14.7739 5.91925 14.97 6.28025 14.97Z" fill="black"/>
</svg>
