<svg width="24" height="24" viewBox="0 0 24 24" fill="none" xmlns="http://www.w3.org/2000/svg">
<path d="M7.5 10.75V6.75C7.5 4.269 9.519 2.25 12 2.25C14.481 2.25 16.5 4.269 16.5 6.75V10.75C16.5 13.231 14.481 15.25 12 15.25C9.519 15.25 7.5 13.231 7.5 10.75ZM20 10.75C20 10.197 19.552 9.75 19 9.75C18.448 9.75 18 10.197 18 10.75C18 14.059 15.309 16.75 12 16.75C8.691 16.75 6 14.059 6 10.75C6 10.197 5.552 9.75 5 9.75C4.448 9.75 4 10.197 4 10.75C4 14.822 7.06 18.1859 11 18.6809V19.75H8C7.448 19.75 7 20.197 7 20.75C7 21.303 7.448 21.75 8 21.75H16C16.552 21.75 17 21.303 17 20.75C17 20.197 16.552 19.75 16 19.75H13V18.6809C16.94 18.1859 20 14.822 20 10.75Z" fill="black"/>
</svg>
