<svg width="24" height="24" viewBox="0 0 24 24" fill="none" xmlns="http://www.w3.org/2000/svg">
<path d="M12 2.5C6.76 2.5 2.5 6.76 2.5 12C2.5 17.24 6.76 21.5 12 21.5C17.24 21.5 21.5 17.24 21.5 12C21.5 6.76 17.24 2.5 12 2.5ZM7.5 13.25C6.81 13.25 6.25 12.69 6.25 12C6.25 11.31 6.81 10.75 7.5 10.75C8.19 10.75 8.75 11.31 8.75 12C8.75 12.69 8.19 13.25 7.5 13.25ZM12 13.25C11.31 13.25 10.75 12.69 10.75 12C10.75 11.31 11.31 10.75 12 10.75C12.69 10.75 13.25 11.31 13.25 12C13.25 12.69 12.69 13.25 12 13.25ZM16.5 13.25C15.81 13.25 15.25 12.69 15.25 12C15.25 11.31 15.81 10.75 16.5 10.75C17.19 10.75 17.75 11.31 17.75 12C17.75 12.69 17.19 13.25 16.5 13.25Z" fill="black"/>
</svg>
