<svg width="25" height="24" viewBox="0 0 25 24" fill="none" xmlns="http://www.w3.org/2000/svg">
<path d="M21.201 14.7361L16.1772 19.7781C14.7703 21.1901 12.8129 22 10.8066 22C8.8312 22 6.99171 21.244 5.62583 19.873C2.7452 16.981 2.7872 12.234 5.72079 9.29102L11.4441 3.54712C12.4382 2.54912 13.7592 2 15.166 2C16.5729 2 17.8938 2.54912 18.8879 3.54712C20.9383 5.60512 20.9383 8.95201 18.8879 11.01L13.1377 16.781C11.9556 17.969 9.89035 17.969 8.70832 16.781C7.48933 15.558 7.48933 13.567 8.70832 12.344L13.7592 7.2749C14.1478 6.8819 14.7803 6.88195 15.172 7.27295C15.5627 7.66295 15.5637 8.29601 15.174 8.68701L10.1231 13.7561C9.68048 14.2001 9.68048 14.9239 10.1231 15.3679C10.5518 15.7979 11.2942 15.7979 11.7218 15.3679L17.4721 9.59692C18.7461 8.31792 18.7461 6.23801 17.4721 4.95801C16.2401 3.72201 14.0909 3.72201 12.8589 4.95801L7.13558 10.7019C5.01432 12.8299 4.97139 16.383 7.04069 18.46C8.02888 19.452 9.36676 19.999 10.8066 19.999C12.2854 19.999 13.7272 19.403 14.7623 18.365L19.7862 13.323C20.1759 12.93 20.8074 12.931 21.199 13.321C21.5897 13.712 21.5907 14.3461 21.201 14.7361Z" fill="black"/>
</svg>
