<svg width="24" height="24" viewBox="0 0 24 24" fill="none" xmlns="http://www.w3.org/2000/svg">
<path d="M11.9109 6.33008L17.6709 12.0901L9.77091 20C9.40091 20.37 8.93087 20.61 8.42087 20.7L3.68088 21.49C3.62088 21.5 3.5709 21.5 3.5109 21.5C3.2509 21.5 2.99088 21.39 2.80088 21.2C2.57088 20.97 2.4609 20.6401 2.5109 20.3201L3.30088 15.5801C3.39088 15.0701 3.63089 14.6 4.00089 14.23L11.9109 6.33008ZM20.3009 3.69995C19.5309 2.91995 18.5109 2.5 17.4209 2.5C16.3309 2.5 15.3109 2.91995 14.5409 3.69995L13.3309 4.90991L19.0909 10.6699L20.3009 9.45996C21.0809 8.68996 21.5009 7.67008 21.5009 6.58008C21.5009 5.49008 21.0809 4.46995 20.3009 3.69995Z" fill="black"/>
</svg>
