<svg width="24" height="24" viewBox="0 0 24 24" fill="none" xmlns="http://www.w3.org/2000/svg">
<path d="M20.4901 20.0117C19.6681 20.9617 18.4931 21.4997 17.2491 21.4997C17.2101 21.4997 17.1711 21.4997 17.1321 21.4987C9.14408 21.2817 2.71707 14.8546 2.50207 6.86765C2.46707 5.57065 3.01308 4.34162 3.99908 3.49362C4.93608 2.68662 6.15608 2.34971 7.34808 2.56271C7.53108 2.59571 7.68808 2.63761 7.82208 2.68161C8.35008 2.85661 8.73408 3.3138 8.82208 3.8718L9.49212 8.12668C9.57612 8.65968 9.36811 9.19981 8.95111 9.53781C8.86711 9.60581 8.78009 9.67068 8.68909 9.73068C8.45709 9.88868 8.36908 10.1577 8.47308 10.3967C9.47508 12.7017 11.2951 14.5217 13.5991 15.5237C13.8391 15.6287 14.1081 15.5387 14.2701 15.3017C14.3171 15.2337 14.3661 15.1668 14.4161 15.1028C14.7521 14.6748 15.3031 14.4686 15.8471 14.5556L20.1791 15.2768C20.7511 15.3728 21.2161 15.7778 21.3651 16.3098C21.3921 16.4068 21.4181 16.5168 21.4401 16.6418C21.6491 17.8428 21.3031 19.0697 20.4901 20.0117Z" fill="black"/>
</svg>
