<svg width="24" height="24" viewBox="0 0 24 24" fill="none" xmlns="http://www.w3.org/2000/svg">
<path d="M12 2.5C6.76 2.5 2.5 6.76 2.5 12C2.5 17.24 6.76 21.5 12 21.5C17.24 21.5 21.5 17.24 21.5 12C21.5 6.76 17.24 2.5 12 2.5ZM11 7H13C13.55 7 14 7.45 14 8C14 8.55 13.55 9 13 9H11C10.45 9 10 8.55 10 8C10 7.45 10.45 7 11 7ZM9.5 11H14.5C15.05 11 15.5 11.45 15.5 12C15.5 12.55 15.05 13 14.5 13H9.5C8.95 13 8.5 12.55 8.5 12C8.5 11.45 8.95 11 9.5 11ZM16 17H8C7.45 17 7 16.55 7 16C7 15.45 7.45 15 8 15H16C16.55 15 17 15.45 17 16C17 16.55 16.55 17 16 17Z" fill="black"/>
</svg>
