<svg width="24" height="24" viewBox="0 0 24 24" fill="none" xmlns="http://www.w3.org/2000/svg">
<path d="M18.209 8.45996L19.709 6.95996C20.099 6.56996 20.099 5.93004 19.709 5.54004C19.319 5.15004 18.679 5.15004 18.289 5.54004L16.789 7.04004C16.729 7.11004 16.689 7.18 16.649 7.25C15.599 6.5 14.349 5.99007 12.999 5.82007V4.25H13.999C14.549 4.25 14.999 3.8 14.999 3.25C14.999 2.7 14.549 2.25 13.999 2.25H9.99902C9.44902 2.25 8.99902 2.7 8.99902 3.25C8.99902 3.8 9.44902 4.25 9.99902 4.25H10.999V5.82007C7.05902 6.31007 3.99902 9.68 3.99902 13.75C3.99902 18.16 7.58902 21.75 11.999 21.75C16.409 21.75 19.999 18.16 19.999 13.75C19.999 11.76 19.269 9.95005 18.069 8.55005C18.109 8.52005 18.169 8.49996 18.209 8.45996ZM14.619 17.03C14.439 17.18 14.219 17.25 13.999 17.25C13.709 17.25 13.419 17.1201 13.219 16.8701L11.219 14.3701C11.079 14.2001 10.999 13.98 10.999 13.75V10.25C10.999 9.7 11.449 9.25 11.999 9.25C12.549 9.25 12.999 9.7 12.999 10.25V13.3999L14.779 15.6299C15.129 16.0599 15.059 16.69 14.619 17.03Z" fill="black"/>
</svg>
