<svg width="24" height="24" viewBox="0 0 24 24" fill="none" xmlns="http://www.w3.org/2000/svg">
<path d="M19.5 14.75C19.5 15.026 19.276 15.25 19 15.25H13V20.75C13 21.303 12.553 21.75 12 21.75C11.447 21.75 11 21.303 11 20.75V15.25H5C4.867 15.25 4.74 15.197 4.646 15.104C4.552 15.011 4.5 14.883 4.5 14.75C4.5 12.682 5.30503 10.7379 6.76703 9.27588L7.5 8.54297V5.94189C6.843 5.15089 6.5 3.773 6.5 2.75C6.5 2.474 6.724 2.25 7 2.25H17C17.276 2.25 17.5 2.474 17.5 2.75C17.5 3.773 17.157 5.14992 16.501 5.94092L16.5 8.54297L17.233 9.27588C18.695 10.7389 19.5 12.683 19.5 14.75Z" fill="black"/>
</svg>
