<svg width="24" height="24" viewBox="0 0 24 24" fill="none" xmlns="http://www.w3.org/2000/svg">
<path d="M15 9.75H9V7.25C9 5.6 10.35 4.25 12 4.25C13.4 4.25 14.7 5.22 15.03 6.5C15.17 7.03 15.71 7.35997 16.25 7.21997C16.78 7.07997 17.11 6.54 16.97 6C16.41 3.83 14.32 2.25 12 2.25C9.24 2.25 7 4.49 7 7.25V10.24C5.52 10.98 4.5 12.49 4.5 14.25V17.25C4.5 19.73 6.52 21.75 9 21.75H15C17.48 21.75 19.5 19.73 19.5 17.25V14.25C19.5 11.77 17.48 9.75 15 9.75ZM13 16.25C13 16.8 12.55 17.25 12 17.25C11.45 17.25 11 16.8 11 16.25V15.25C11 14.7 11.45 14.25 12 14.25C12.55 14.25 13 14.7 13 15.25V16.25Z" fill="black"/>
</svg>
