<svg width="24" height="24" viewBox="0 0 24 24" fill="none" xmlns="http://www.w3.org/2000/svg">
<path d="M21.5 17.6399V18.1499C21.5 18.8899 21.25 19.5999 20.79 20.1699C20.62 20.3899 20.34 20.5 20.05 20.5H17.37C17.78 19.79 18 18.9799 18 18.1499V17.6399C18 16.1999 17.47 14.8701 16.57 13.8601C16.64 13.8401 16.7 13.8 16.76 13.77C17.22 13.51 17.79 13.4301 18.33 13.5601C20.19 14.0301 21.5 15.6999 21.5 17.6399ZM14.5 3.5C14.18 3.5 13.87 3.5301 13.57 3.6001C14.76 4.6901 15.5 6.26 15.5 8C15.5 9.74 14.76 11.3099 13.57 12.3999C13.87 12.4699 14.18 12.5 14.5 12.5C16.98 12.5 19 10.48 19 8C19 5.52 16.98 3.5 14.5 3.5ZM9.5 3.5C7.02 3.5 5 5.52 5 8C5 10.48 7.02 12.5 9.5 12.5C11.98 12.5 14 10.48 14 8C14 5.52 11.98 3.5 9.5 3.5ZM13.33 13.5601C13.15 13.5201 12.98 13.5 12.8 13.5C12.43 13.5 12.07 13.59 11.76 13.77C11.06 14.15 10.28 14.3401 9.5 14.3401C8.72 14.3401 7.95001 14.15 7.26001 13.78C6.93001 13.6 6.56 13.5 6.19 13.5C6.03 13.5 5.87998 13.52 5.72998 13.55C3.82998 13.99 2.5 15.6799 2.5 17.6399V18.1499C2.5 18.8899 2.75002 19.5999 3.21002 20.1699C3.38002 20.3899 3.66001 20.5 3.95001 20.5H15.05C15.34 20.5 15.62 20.3899 15.79 20.1699C16.25 19.5999 16.5 18.8899 16.5 18.1499V17.6399C16.5 15.6999 15.19 14.0301 13.33 13.5601Z" fill="black"/>
</svg>
