<svg width="24" height="24" viewBox="0 0 24 24" fill="none" xmlns="http://www.w3.org/2000/svg">
<path d="M3.13929 16.5791C2.59785 15.8181 2.31201 14.927 2.31201 14V10C2.31201 7.51904 4.34394 5.50004 6.84082 5.50004H11.8728C12.536 5.50004 13.1681 5.64196 13.7508 5.91996C13.8977 5.98896 14.0024 6.12593 14.0286 6.28593C14.0557 6.44593 14.0044 6.60916 13.8886 6.72416L3.90515 16.6441C3.81055 16.7381 3.68173 16.7901 3.54888 16.7901C3.53479 16.7901 3.52071 16.7891 3.50662 16.7881C3.35969 16.7751 3.22484 16.6991 3.13929 16.5791ZM20.9717 7.85013C20.4554 7.57714 19.8365 7.60802 19.3534 7.92802L18.2061 8.68803C18.1015 8.75803 18.038 8.87604 18.038 9.00004V15C18.038 15.125 18.1005 15.242 18.2061 15.312L19.3524 16.0711C19.6161 16.2471 19.921 16.336 20.228 16.336C20.4826 16.336 20.7382 16.2739 20.9727 16.1499C21.491 15.8759 21.812 15.3431 21.812 14.7591V9.23905C21.811 8.65605 21.489 8.12414 20.9717 7.85013ZM20.6355 4.70707C21.029 4.31607 21.029 3.68401 20.6355 3.29301C20.242 2.90201 19.606 2.90201 19.2125 3.29301L3.11012 19.293C2.71661 19.684 2.71661 20.3161 3.11012 20.7071C3.30637 20.9021 3.56397 21 3.82161 21C4.07925 21 4.33686 20.9021 4.53311 20.7071L6.7633 18.491C6.79047 18.491 6.81364 18.5 6.84082 18.5H11.8728C14.3697 18.5 16.4016 16.481 16.4016 14V10C16.4016 9.66504 16.3634 9.33899 16.2919 9.02299L20.6355 4.70707Z" fill="black"/>
</svg>
