<svg width="24" height="24" viewBox="0 0 24 24" fill="none" xmlns="http://www.w3.org/2000/svg">
<path d="M13.25 6.51129V17.4903C13.25 18.6783 12.58 19.7253 11.501 20.2213C11.094 20.4093 10.665 20.5003 10.24 20.5003C9.54299 20.5003 8.85701 20.2523 8.29901 19.7733L5.70502 17.5474C5.61402 17.4694 5.49898 17.4263 5.38098 17.4263L4.64301 17.4254C3.32401 17.4244 2.25 16.3472 2.25 15.0252V8.97443C2.25 7.65343 3.32303 6.57728 4.64203 6.57428L5.38098 6.5733C5.49898 6.5723 5.61398 6.53018 5.70398 6.45318L8.29999 4.22638C9.19799 3.45538 10.428 3.28336 11.501 3.77936C12.58 4.27536 13.25 5.32129 13.25 6.51129ZM16.547 8.3963C16.213 7.9583 15.586 7.86941 15.146 8.20441C14.706 8.53841 14.62 9.16528 14.954 9.60528C15.475 10.2923 15.751 11.1213 15.751 12.0013C15.751 12.8813 15.476 13.7103 14.954 14.3973C14.62 14.8373 14.706 15.4644 15.146 15.7984C15.327 15.9354 15.54 16.0013 15.75 16.0013C16.053 16.0013 16.351 15.8643 16.548 15.6053C17.335 14.5683 17.751 13.3213 17.751 12.0013C17.751 10.6813 17.334 9.4333 16.547 8.3963ZM19.193 5.33136C18.823 4.92036 18.192 4.88838 17.781 5.25738C17.371 5.62638 17.337 6.25825 17.707 6.66925C19.024 8.13425 19.75 10.0273 19.75 12.0003C19.75 13.9733 19.024 15.8664 17.707 17.3314C17.337 17.7424 17.371 18.3742 17.781 18.7432C17.972 18.9152 18.212 19.0003 18.45 19.0003C18.723 19.0003 18.996 18.8892 19.193 18.6692C20.841 16.8362 21.75 14.4673 21.75 12.0003C21.75 9.5333 20.842 7.16436 19.193 5.33136Z" fill="black"/>
</svg>
