<svg width="536" height="248" viewBox="0 0 536 248" fill="none" xmlns="http://www.w3.org/2000/svg">
<path d="M0 184.8V143.6C3.2 139.6 6.8 135.2 10.8 130.4C17.6 122 26.4 110.4 37.2 97.6C53.6 77.2 72.4 54 87.2 36C96 25.2 104.4 14.8 112.4 4.80001H161.2C143.6 26.4 127.2 46.4 112.4 65.2C87.2 96.8 58 132 48.4 144H160V242.4H118.4V184.8H0ZM193.603 170.8C190.803 156 189.203 140 189.203 123.6C189.203 56.8 208.403 0 274.803 0C338.803 0 360.403 58.8 360.403 123.6C360.403 189.6 340.803 247.2 274.803 247.2C225.603 247.2 201.603 214.8 193.603 170.8ZM230.403 121.6C230.403 143.6 236.003 190.4 255.203 202C261.203 205.6 267.203 207.2 273.603 207.2C291.603 207.2 307.603 193.2 312.803 174.4C317.203 158.8 319.603 141.6 320.003 123.6C320.003 122.4 320.003 121.2 320.003 120C320.003 98.4 316.403 76.8 305.603 58C298.003 45.6 289.203 40.8 274.803 40.8C236.803 40.8 230.403 82.4 230.403 121.6ZM374.219 184.8V143.6C377.419 139.6 381.019 135.2 385.019 130.4C391.819 122 400.619 110.4 411.419 97.6C427.819 77.2 446.619 54 461.419 36C470.219 25.2 478.619 14.8 486.619 4.80001H535.419C517.819 26.4 501.419 46.4 486.619 65.2C461.419 96.8 432.219 132 422.619 144H534.219V242.4H492.619V184.8H374.219Z" fill="white"/>
<path d="M353.164 68.2962L331.668 46.7998L198.164 180.303L219.66 201.8L353.164 68.2962Z" fill="white"/>
</svg>
