<svg width="36" height="36" viewBox="0 0 36 36" fill="none" xmlns="http://www.w3.org/2000/svg">
<path d="M15.2092 3.00977C16.2708 3.00977 16.875 4.06559 16.875 5.12708V11.626H15.5319C15.0868 10.5265 14.009 9.75098 12.75 9.75098C11.0931 9.75098 9.75 11.0941 9.75 12.751C9.75 14.4078 11.0931 15.751 12.75 15.751C14.009 15.751 15.0868 14.9754 15.5319 13.876H16.875V30.2228C16.875 31.117 16.497 32.0063 15.7009 32.4139C15.0201 32.7625 14.2358 32.9951 13.3619 32.9951C11.0959 32.9951 9.41073 31.8488 8.32653 30.4924C7.53041 29.4964 7.00708 28.3256 6.79785 27.2867C6.1938 27.1112 5.51158 26.7826 4.89348 26.2523C3.82821 25.3385 3 23.8672 3 21.7004C3 20.5675 3.08101 19.5808 3.28405 18.751H9.5997C10.6169 18.751 11.4589 19.501 11.6029 20.4781C10.5152 20.9285 9.75 22.0004 9.75 23.251C9.75 24.9079 11.0931 26.251 12.75 26.251C14.4069 26.251 15.75 24.9079 15.75 23.251C15.75 21.9875 14.969 20.9066 13.8635 20.4644C13.704 18.2489 11.856 16.501 9.5997 16.501H4.55916C4.75492 16.3391 4.96992 16.2026 5.20378 16.0922C5.2365 16.0769 5.26935 16.0621 5.30233 16.0478C5.14408 15.4972 5.06151 14.9221 5.03614 14.3579C4.9866 13.2557 5.15067 12.1075 5.47852 11.0861C5.8015 10.0798 6.31435 9.10217 7.03552 8.42544C7.48837 8.00049 8.04846 7.67924 8.6787 7.57505C8.97678 6.31526 9.73747 5.27378 10.708 4.51824C11.9555 3.54713 13.5874 3.00977 15.2092 3.00977ZM19.125 25.501H21.6C23.961 25.501 25.875 23.587 25.875 21.226V18.5329C26.9745 18.0878 27.75 17.0099 27.75 15.751C27.75 14.0941 26.4069 12.751 24.75 12.751C23.0931 12.751 21.75 14.0941 21.75 15.751C21.75 17.0099 22.5255 18.0878 23.625 18.5329V21.226C23.625 22.3444 22.7184 23.251 21.6 23.251H19.125V12.7615C19.125 12.758 19.125 12.7545 19.125 12.751C19.125 12.7474 19.125 12.7439 19.125 12.7404V5.12708C19.125 4.06559 19.7292 3.00977 20.7907 3.00977C22.4125 3.00977 24.0445 3.54713 25.2919 4.51824C26.2624 5.27378 27.0232 6.31526 27.3213 7.57505C27.9516 7.67924 28.5117 8.00049 28.9645 8.42544C29.6856 9.10217 30.1984 10.0798 30.5215 11.0861C30.8493 12.1075 31.0134 13.2557 30.9639 14.3579C30.9385 14.9221 30.8559 15.4972 30.6976 16.0478C30.7306 16.0621 30.7635 16.0769 30.7962 16.0922C31.3515 16.3541 31.8003 16.7641 32.1379 17.3081C32.7756 18.3352 33 19.8151 33 21.7004C33 23.8672 32.1718 25.3385 31.1065 26.2523C30.4884 26.7826 29.8062 27.1112 29.2021 27.2867C28.9929 28.3256 28.4695 29.4964 27.6735 30.4924C26.5893 31.8488 24.904 32.9951 22.638 32.9951C21.7642 32.9951 20.9799 32.7625 20.299 32.4139C19.503 32.0063 19.125 31.117 19.125 30.2228V25.501ZM12 12.751C12 12.3368 12.3358 12.001 12.75 12.001C13.1642 12.001 13.5 12.3368 13.5 12.751C13.5 13.1652 13.1642 13.501 12.75 13.501C12.3358 13.501 12 13.1652 12 12.751ZM12.75 22.501C12.3358 22.501 12 22.8368 12 23.251C12 23.6651 12.3358 24.001 12.75 24.001C13.1642 24.001 13.5 23.6651 13.5 23.251C13.5 22.8368 13.1642 22.501 12.75 22.501ZM24 15.751C24 16.1651 24.3358 16.501 24.75 16.501C25.1641 16.501 25.5 16.1651 25.5 15.751C25.5 15.3368 25.1641 15.001 24.75 15.001C24.3358 15.001 24 15.3368 24 15.751Z" fill="black"/>
</svg>
