<svg width="80" height="80" viewBox="0 0 80 80" fill="none" xmlns="http://www.w3.org/2000/svg">
<path d="M8.58654 25.5571L23.0302 40.0008L8.58659 54.4443C3.90028 59.1306 3.90029 66.7286 8.58662 71.4149C13.2729 76.1011 20.8708 76.1011 25.557 71.4149L40.0008 56.9715L54.4445 71.415C59.1308 76.1011 66.7287 76.1011 71.4149 71.4149C76.1012 66.7286 76.1012 59.1306 71.4149 54.4444L56.9712 40.0008L71.415 25.557C76.1012 20.8708 76.1012 13.2728 71.415 8.58656C66.7287 3.90026 59.1308 3.90024 54.4445 8.58651L40.0008 23.0302L25.5571 8.58653C20.8708 3.90025 13.2728 3.90024 8.58654 8.58653C3.90024 13.2728 3.90026 20.8708 8.58654 25.5571Z" fill="url(#paint0_linear_539_3981)" stroke="#270A3D" stroke-width="4"/>
<defs>
<linearGradient id="paint0_linear_539_3981" x1="40.0007" y1="2.92969" x2="40.0007" y2="77.0716" gradientUnits="userSpaceOnUse">
<stop stop-color="white"/>
<stop offset="1" stop-color="#E991EC"/>
</linearGradient>
</defs>
</svg>
