<svg width="1200" height="1200" viewBox="0 0 1200 1200" fill="none" xmlns="http://www.w3.org/2000/svg">
<path d="M927.637 628.234C940.007 654.276 946.191 680.643 946.191 707.336C946.191 733.378 939.681 759.419 926.66 785.461C913.639 810.852 892.48 833.638 863.184 853.82C833.887 873.352 796.452 883.117 750.879 883.117H745.02C741.113 883.768 737.207 884.094 733.301 884.094H340.723C323.145 883.443 308.171 877.258 295.801 865.539C284.082 853.169 277.897 838.195 277.246 820.617V373.352C277.897 355.773 284.082 341.125 295.801 329.406C308.171 317.036 323.145 310.526 340.723 309.875H676.66C680.566 309.875 684.473 310.201 688.379 310.852H694.238C739.811 312.154 777.246 322.57 806.543 342.102C835.84 361.633 856.999 384.094 870.02 409.484C883.04 434.224 889.551 459.289 889.551 484.68C889.551 510.721 883.366 536.112 870.996 560.852C870.345 562.154 869.694 563.13 869.043 563.781C895.736 582.661 915.267 604.146 927.637 628.234ZM756.738 753.234C769.108 753.885 779.199 751.607 787.012 746.398C795.475 741.19 801.66 735.331 805.566 728.82C809.473 721.659 811.426 714.497 811.426 707.336C811.426 702.779 809.473 696.594 805.566 688.781C801.66 680.318 795.475 673.482 787.012 668.273C779.199 663.065 769.108 660.135 756.738 659.484H694.238H409.082V726.867C409.082 744.445 418.197 753.234 436.426 753.234H444.238H756.738ZM731.348 519.836C739.16 515.279 745.02 510.07 748.926 504.211C752.832 497.701 754.785 491.19 754.785 484.68C754.785 478.169 752.832 471.984 748.926 466.125C745.02 459.615 738.835 454.081 730.371 449.523C722.559 444.315 712.467 441.385 700.098 440.734H436.426C418.197 440.734 409.082 449.523 409.082 467.102V528.625H700.098C712.467 527.974 722.884 525.044 731.348 519.836Z" fill="white"/>
</svg>
