<svg xmlns="http://www.w3.org/2000/svg" width="504" height="500" viewBox="0 0 504 500" fill="none">
<path d="M439.774 189.875L257.335 8.19963C252.61 2.73088 245.435 0 238.26 0C231.151 0 223.91 2.73088 218.546 8.19963L147.084 79.625L75.6575 8.18125C64.7549 -2.7475 47.036 -2.723 36.1422 8.232C25.2571 19.1712 25.2833 36.8637 36.1947 47.775L107.508 119.114L24.6096 202.125C-8.2032 234.833 -8.2032 288.094 24.6096 320.95L127.073 423.412C143.497 439.775 165.022 448 186.46 448C208.002 448 229.449 439.797 245.855 423.395L439.757 229.495C450.712 218.575 450.712 200.812 439.774 189.875ZM338.099 252H57.6761C58.8793 248.719 60.8235 244.989 64.2142 241.71L147.077 158.795L190.172 201.775C201.109 212.713 218.828 212.713 229.766 201.775C240.703 190.838 240.703 173.119 229.766 162.181L186.724 119.21L238.271 67.6025L380.372 209.703L338.099 252ZM448 280C448 280 391.999 361.069 391.999 392C391.999 422.931 417.024 448 448 448C478.975 448 504 422.975 504 392.026C504 361.077 448 280 448 280Z" fill="url(#paint0_linear_1311_10277)"/>
<defs>
<linearGradient id="paint0_linear_1311_10277" x1="504" y1="224" x2="0" y2="224" gradientUnits="userSpaceOnUse">
<stop xmlns="http://www.w3.org/2000/svg" stop-color="#000"/>
<stop xmlns="http://www.w3.org/2000/svg" offset="1" stop-color="#fff"/>
</linearGradient>
</defs>
</svg>