<svg width="191" height="151" viewBox="0 0 191 151" fill="none" xmlns="http://www.w3.org/2000/svg">
<path d="M176.396 59.2695H19.3379V75.0209H176.396V59.2695Z" fill="#3B276F"/>
<path d="M4.36523 72.0914L33.2321 44.1016V62.0576L22.5417 71.5966L4.36523 72.0914Z" fill="#DA6313"/>
<path d="M188.686 72.2727L160.799 44.1016L160.804 62.0576L170.382 71.5966L188.686 72.2727Z" fill="#DA6313"/>
<path d="M160.8 44.1016H33.2266V62.0625H160.8V44.1016Z" fill="#DA5917"/>
<path d="M160.806 44.1016H33.2321L4.36523 72.0914H188.688L160.806 44.1016ZM37.7836 45.8702H154.838C157.486 45.8767 160.024 46.934 161.893 48.8098L180.912 67.8339C181.11 68.0305 181.246 68.2811 181.302 68.5543C181.358 68.8275 181.332 69.1112 181.227 69.3697C181.122 69.6282 180.944 69.8501 180.713 70.0074C180.483 70.1648 180.211 70.2506 179.933 70.2542H13.4045C13.0451 70.253 12.6941 70.1449 12.3962 69.9438C12.0984 69.7427 11.867 69.4576 11.7315 69.1247C11.596 68.7918 11.5626 68.4261 11.6354 68.0742C11.7082 67.7222 11.884 67.3998 12.1405 67.148L31.1841 48.5747C32.9475 46.8476 35.3154 45.8773 37.7836 45.8702Z" fill="#FFEE39"/>
<path d="M172.362 77.3047H15.3047V143.553H172.362V77.3047Z" fill="url(#paint0_linear_514_3651)"/>
<path d="M185.816 71.5957H6.94191C6.44907 71.5957 5.96107 71.6928 5.50575 71.8814C5.05043 72.07 4.6367 72.3464 4.28822 72.6949C3.93973 73.0434 3.6633 73.4571 3.4747 73.9124C3.2861 74.3677 3.18902 74.8558 3.18902 75.3486V84.6573C3.18178 84.7175 3.18178 84.7784 3.18902 84.8386L14.3056 145.796C14.5723 147.26 15.3451 148.583 16.4889 149.534C17.6326 150.485 19.0745 151.004 20.562 150.999H172.368C173.852 150.999 175.289 150.478 176.429 149.527C177.568 148.577 178.338 147.256 178.605 145.796L189.726 84.8582C189.731 84.7979 189.731 84.7372 189.726 84.6769V75.5201C189.727 74.4814 189.316 73.4847 188.583 72.7489C187.85 72.0131 186.855 71.5983 185.816 71.5957ZM161.81 137.849H31.1201C30.8808 137.851 30.6491 137.766 30.4686 137.609C30.2881 137.452 30.1713 137.234 30.1402 136.997L22.1249 85.9115C22.098 85.7686 22.1032 85.6214 22.1403 85.4807C22.1773 85.34 22.2452 85.2094 22.339 85.0982C22.4328 84.987 22.5502 84.8981 22.6827 84.8379C22.8151 84.7778 22.9593 84.7479 23.1048 84.7504H169.81C169.956 84.7479 170.1 84.7778 170.232 84.8379C170.365 84.8981 170.482 84.987 170.576 85.0982C170.67 85.2094 170.738 85.34 170.775 85.4807C170.812 85.6214 170.817 85.7686 170.79 85.9115L162.799 136.997C162.768 137.236 162.65 137.455 162.467 137.612C162.285 137.769 162.051 137.854 161.81 137.849Z" fill="url(#paint1_linear_514_3651)"/>
<path d="M172.366 143.068C172.366 143.706 172.176 144.33 171.821 144.861C171.467 145.392 170.962 145.806 170.372 146.05C169.782 146.295 169.133 146.359 168.507 146.234C167.881 146.11 167.305 145.802 166.854 145.351C166.402 144.899 166.095 144.324 165.97 143.697C165.846 143.071 165.91 142.422 166.154 141.832C166.398 141.242 166.812 140.738 167.343 140.383C167.874 140.028 168.498 139.839 169.137 139.839C169.561 139.839 169.981 139.922 170.372 140.085C170.764 140.247 171.12 140.485 171.42 140.785C171.72 141.084 171.958 141.44 172.12 141.832C172.282 142.224 172.366 142.644 172.366 143.068Z" fill="#FFD217"/>
<path d="M177.178 121.113C177.179 121.753 176.99 122.379 176.635 122.911C176.281 123.444 175.776 123.859 175.185 124.104C174.595 124.35 173.944 124.415 173.317 124.29C172.689 124.166 172.112 123.859 171.66 123.407C171.207 122.955 170.899 122.378 170.773 121.751C170.648 121.124 170.712 120.473 170.957 119.882C171.201 119.291 171.616 118.786 172.148 118.43C172.679 118.075 173.305 117.885 173.944 117.885C174.801 117.885 175.623 118.225 176.229 118.83C176.835 119.435 177.177 120.257 177.178 121.113Z" fill="#FFD217"/>
<path d="M180.465 99.1349C180.465 99.7735 180.276 100.398 179.921 100.929C179.566 101.46 179.062 101.873 178.472 102.118C177.882 102.362 177.233 102.426 176.607 102.302C175.98 102.177 175.405 101.869 174.953 101.418C174.502 100.966 174.194 100.391 174.07 99.7648C173.945 99.1385 174.009 98.4893 174.254 97.8994C174.498 97.3094 174.912 96.8052 175.443 96.4504C175.974 96.0956 176.598 95.9062 177.236 95.9062C178.093 95.9062 178.914 96.2464 179.519 96.8519C180.125 97.4574 180.465 98.2786 180.465 99.1349Z" fill="#FFD217"/>
<path d="M182.983 78.63C182.983 79.2686 182.793 79.8928 182.439 80.4238C182.084 80.9547 181.58 81.3685 180.99 81.6129C180.4 81.8573 179.75 81.9212 179.124 81.7966C178.498 81.6721 177.923 81.3646 177.471 80.913C177.02 80.4615 176.712 79.8862 176.587 79.2599C176.463 78.6336 176.527 77.9844 176.771 77.3945C177.016 76.8045 177.429 76.3003 177.96 75.9455C178.491 75.5907 179.115 75.4014 179.754 75.4014C180.61 75.4014 181.432 75.7415 182.037 76.347C182.643 76.9525 182.983 77.7737 182.983 78.63Z" fill="#FFD217"/>
<path d="M19.582 143.068C19.582 143.706 19.7714 144.33 20.1261 144.861C20.4809 145.392 20.9852 145.806 21.5751 146.05C22.1651 146.295 22.8143 146.359 23.4406 146.234C24.0669 146.11 24.6421 145.802 25.0937 145.351C25.5452 144.899 25.8527 144.324 25.9773 143.697C26.1019 143.071 26.0379 142.422 25.7936 141.832C25.5492 141.242 25.1354 140.738 24.6044 140.383C24.0735 140.028 23.4493 139.839 22.8107 139.839C21.9544 139.839 21.1332 140.179 20.5277 140.785C19.9222 141.39 19.582 142.211 19.582 143.068Z" fill="#FFD217"/>
<path d="M48.3867 143.068C48.3867 143.706 48.5761 144.33 48.9309 144.861C49.2856 145.392 49.7899 145.806 50.3798 146.05C50.9698 146.295 51.619 146.359 52.2453 146.234C52.8716 146.11 53.4469 145.802 53.8984 145.351C54.3499 144.899 54.6574 144.324 54.782 143.697C54.9066 143.071 54.8427 142.422 54.5983 141.832C54.3539 141.242 53.9401 140.738 53.4091 140.383C52.8782 140.028 52.254 139.839 51.6154 139.839C51.1914 139.839 50.7715 139.922 50.3798 140.085C49.9881 140.247 49.6322 140.485 49.3324 140.785C49.0326 141.084 48.7947 141.44 48.6325 141.832C48.4702 142.224 48.3867 142.644 48.3867 143.068Z" fill="#FFD217"/>
<path d="M77.1914 143.068C77.1914 143.706 77.3808 144.33 77.7355 144.861C78.0903 145.392 78.5945 145.806 79.1845 146.05C79.7745 146.295 80.4236 146.359 81.0499 146.234C81.6762 146.11 82.2515 145.802 82.7031 145.351C83.1546 144.899 83.4621 144.324 83.5867 143.697C83.7112 143.071 83.6473 142.422 83.4029 141.832C83.1586 141.242 82.7447 140.738 82.2138 140.383C81.6828 140.028 81.0586 139.839 80.42 139.839C79.9961 139.839 79.5762 139.922 79.1845 140.085C78.7928 140.247 78.4369 140.485 78.1371 140.785C77.8373 141.084 77.5994 141.44 77.4372 141.832C77.2749 142.224 77.1914 142.644 77.1914 143.068Z" fill="#FFD217"/>
<path d="M105.998 143.068C105.998 143.706 106.187 144.33 106.542 144.861C106.897 145.392 107.401 145.806 107.991 146.05C108.581 146.295 109.23 146.359 109.857 146.234C110.483 146.11 111.058 145.802 111.51 145.351C111.961 144.899 112.269 144.324 112.393 143.697C112.518 143.071 112.454 142.422 112.21 141.832C111.965 141.242 111.551 140.738 111.02 140.383C110.49 140.028 109.865 139.839 109.227 139.839C108.803 139.839 108.383 139.922 107.991 140.085C107.599 140.247 107.244 140.485 106.944 140.785C106.644 141.084 106.406 141.44 106.244 141.832C106.082 142.224 105.998 142.644 105.998 143.068Z" fill="#FFD217"/>
<path d="M134.812 143.068C134.812 143.706 135.002 144.33 135.357 144.861C135.711 145.392 136.216 145.806 136.806 146.05C137.396 146.295 138.045 146.359 138.671 146.234C139.297 146.11 139.873 145.802 140.324 145.351C140.776 144.899 141.083 144.324 141.208 143.697C141.332 143.071 141.268 142.422 141.024 141.832C140.78 141.242 140.366 140.738 139.835 140.383C139.304 140.028 138.68 139.839 138.041 139.839C137.617 139.839 137.197 139.922 136.806 140.085C136.414 140.247 136.058 140.485 135.758 140.785C135.458 141.084 135.221 141.44 135.058 141.832C134.896 142.224 134.812 142.644 134.812 143.068Z" fill="#FFD217"/>
<path d="M34.8066 78.1691C34.8066 78.8077 34.996 79.4319 35.3508 79.9628C35.7055 80.4938 36.2098 80.9076 36.7997 81.152C37.3897 81.3963 38.0389 81.4603 38.6652 81.3357C39.2915 81.2111 39.8668 80.9036 40.3183 80.4521C40.7698 80.0005 41.0773 79.4253 41.2019 78.799C41.3265 78.1727 41.2625 77.5235 41.0182 76.9335C40.7738 76.3436 40.36 75.8393 39.829 75.4845C39.2981 75.1298 38.6739 74.9404 38.0353 74.9404C37.179 74.9404 36.3578 75.2806 35.7523 75.8861C35.1468 76.4916 34.8066 77.3128 34.8066 78.1691Z" fill="#FFD217"/>
<path d="M66.8322 81.3977C68.6153 81.3977 70.0608 79.9522 70.0608 78.1691C70.0608 76.3859 68.6153 74.9404 66.8322 74.9404C65.049 74.9404 63.6035 76.3859 63.6035 78.1691C63.6035 79.9522 65.049 81.3977 66.8322 81.3977Z" fill="#FFD217"/>
<path d="M124.443 81.3977C126.227 81.3977 127.672 79.9522 127.672 78.1691C127.672 76.3859 126.227 74.9404 124.443 74.9404C122.66 74.9404 121.215 76.3859 121.215 78.1691C121.215 79.9522 122.66 81.3977 124.443 81.3977Z" fill="#FFD217"/>
<path d="M150.352 78.1691C150.352 78.8077 150.541 79.4319 150.896 79.9628C151.25 80.4938 151.755 80.9076 152.345 81.152C152.935 81.3963 153.584 81.4603 154.21 81.3357C154.836 81.2111 155.412 80.9036 155.863 80.4521C156.315 80.0005 156.622 79.4253 156.747 78.799C156.871 78.1727 156.807 77.5235 156.563 76.9335C156.319 76.3436 155.905 75.8393 155.374 75.4845C154.843 75.1298 154.219 74.9404 153.58 74.9404C152.724 74.9404 151.903 75.2806 151.297 75.8861C150.692 76.4916 150.352 77.3128 150.352 78.1691Z" fill="#FFD217"/>
<path d="M14.7637 121.113C14.7637 121.752 14.953 122.376 15.3078 122.907C15.6626 123.438 16.1668 123.852 16.7568 124.096C17.3467 124.341 17.9959 124.405 18.6222 124.28C19.2485 124.155 19.8238 123.848 20.2753 123.396C20.7269 122.945 21.0344 122.37 21.1589 121.743C21.2835 121.117 21.2196 120.468 20.9752 119.878C20.7309 119.288 20.317 118.784 19.7861 118.429C19.2551 118.074 18.6309 117.885 17.9923 117.885C17.136 117.885 16.3148 118.225 15.7093 118.83C15.1038 119.436 14.7637 120.257 14.7637 121.113Z" fill="#FFD217"/>
<path d="M11.4746 99.1349C11.4746 99.7735 11.664 100.398 12.0187 100.929C12.3735 101.46 12.8778 101.873 13.4677 102.118C14.0577 102.362 14.7068 102.426 15.3331 102.302C15.9594 102.177 16.5347 101.869 16.9863 101.418C17.4378 100.966 17.7453 100.391 17.8699 99.7648C17.9945 99.1385 17.9305 98.4893 17.6862 97.8994C17.4418 97.3094 17.028 96.8052 16.497 96.4504C15.9661 96.0956 15.3418 95.9062 14.7033 95.9062C13.847 95.9062 13.0258 96.2464 12.4203 96.8519C11.8148 97.4574 11.4746 98.2786 11.4746 99.1349Z" fill="#FFD217"/>
<path d="M8.95703 78.63C8.95703 79.2686 9.14639 79.8928 9.50116 80.4238C9.85593 80.9547 10.3602 81.3685 10.9501 81.6129C11.5401 81.8573 12.1893 81.9212 12.8156 81.7966C13.4419 81.6721 14.0172 81.3646 14.4687 80.913C14.9202 80.4615 15.2277 79.8862 15.3523 79.2599C15.4769 78.6336 15.413 77.9844 15.1686 77.3945C14.9242 76.8045 14.5104 76.3003 13.9794 75.9455C13.4485 75.5907 12.8243 75.4014 12.1857 75.4014C11.3294 75.4014 10.5082 75.7415 9.90269 76.347C9.2972 76.9525 8.95703 77.7737 8.95703 78.63Z" fill="#FFD217"/>
<path d="M26.0141 2.04771C26.0141 2.04771 92.4431 -2.56184 162.314 2.04771L171.56 4.79558L176.855 65.8875L6.93164 64.0464L14.7885 7.55717L26.0141 2.04771Z" fill="url(#paint2_linear_514_3651)"/>
<path d="M180.095 5.12867C179.447 3.56321 178.524 2.26669 177.419 1.36711C176.313 0.467527 175.062 -0.00401298 173.79 -0.000961849H163.79C163.531 -0.00106105 163.276 0.101272 163.055 0.294782C162.833 0.488293 162.653 0.765479 162.535 1.09583C162.416 1.42618 162.364 1.79689 162.383 2.16717C162.402 2.53746 162.493 2.89296 162.644 3.19455C177.793 33.3277 172.933 61.0852 172.933 61.0852H17.7758C17.7758 61.0852 12.9353 33.3136 28.0644 3.19455C28.2161 2.89248 28.3064 2.53633 28.3255 2.16543C28.3446 1.79453 28.2917 1.42329 28.1726 1.0927C28.0535 0.762109 27.8728 0.485028 27.6506 0.292034C27.4283 0.0990407 27.1731 -0.00235441 26.9131 -0.000961849H16.938C15.6666 -0.00348964 14.4168 0.468331 13.3118 1.36792C12.2069 2.26751 11.2851 3.56376 10.6375 5.12867C6.13012 16.0327 -3.13941 39.3263 1.06912 65.7593C1.39366 67.7732 2.18731 69.5695 3.31976 70.8531C4.45221 72.1367 5.85615 72.8314 7.30106 72.8231H183.432C184.877 72.8294 186.28 72.133 187.411 70.8481C188.543 69.5633 189.336 67.7663 189.659 65.7523C193.872 39.3263 184.598 16.0607 180.095 5.12867Z" fill="url(#paint3_linear_514_3651)"/>
<path d="M171.653 42.8508H19.4355L20.2978 40.1904H170.58L171.653 42.8508Z" fill="#4A30AA"/>
<path d="M169.165 19.9982H21.5664L22.5417 17.3379H168.19L169.165 19.9982Z" fill="#4A30AA"/>
<path d="M166.533 110.434H26.4663L26.0352 107.989H166.959L166.533 110.434Z" fill="#4A30AA"/>
<path d="M105.72 70.583H84.2018C82.6906 70.583 81.2414 71.1833 80.1728 72.2519C79.1042 73.3205 78.5039 74.7697 78.5039 76.2809V88.0687C78.5039 91.2141 79.4299 92.5222 84.2018 92.5222H105.72C109.752 92.5222 111.418 91.2141 111.418 88.0687V76.2809C111.418 74.7697 110.817 73.3205 109.749 72.2519C108.68 71.1833 107.231 70.583 105.72 70.583Z" fill="#EF8412"/>
<path d="M105.72 67.6025H84.2018C81.055 67.6025 78.5039 70.1536 78.5039 73.3005V85.0882C78.5039 88.2351 81.055 90.7861 84.2018 90.7861H105.72C108.867 90.7861 111.418 88.2351 111.418 85.0882V73.3005C111.418 70.1536 108.867 67.6025 105.72 67.6025Z" fill="#FDCB08"/>
<path d="M98.5201 75.2571C98.5211 75.9618 98.313 76.6509 97.9222 77.2373C97.5314 77.8237 96.9755 78.2809 96.3247 78.5513C95.674 78.8216 94.9577 78.8929 94.2664 78.756C93.5752 78.6191 92.9401 78.2803 92.4414 77.7823C91.9428 77.2844 91.6031 76.6497 91.4653 75.9587C91.3275 75.2676 91.3977 74.5512 91.6671 73.9001C91.9366 73.249 92.3931 72.6924 92.979 72.3008C93.5648 71.9092 94.2536 71.7002 94.9583 71.7002C95.9021 71.7002 96.8073 72.0748 97.4751 72.7417C98.143 73.4086 98.5188 74.3133 98.5201 75.2571Z" fill="#3B276F"/>
<path d="M94.9558 75.2637L91.8496 85.2485H98.5176L94.9558 75.2637Z" fill="#3B276F"/>
<defs>
<linearGradient id="paint0_linear_514_3651" x1="93.8336" y1="77.3047" x2="93.8336" y2="143.553" gradientUnits="userSpaceOnUse">
<stop stop-color="#641FEE"/>
<stop offset="1" stop-color="#A85AFF"/>
</linearGradient>
<linearGradient id="paint1_linear_514_3651" x1="96.4566" y1="71.5957" x2="96.4566" y2="150.999" gradientUnits="userSpaceOnUse">
<stop stop-color="#FED903"/>
<stop offset="1" stop-color="#EF8521"/>
</linearGradient>
<linearGradient id="paint2_linear_514_3651" x1="91.8931" y1="-0.000976563" x2="91.8931" y2="65.8875" gradientUnits="userSpaceOnUse">
<stop stop-color="#7954FD"/>
<stop offset="1" stop-color="#7B2CEF"/>
</linearGradient>
<linearGradient id="paint3_linear_514_3651" x1="95.3649" y1="-0.000976563" x2="95.3649" y2="72.8231" gradientUnits="userSpaceOnUse">
<stop stop-color="#FEF270"/>
<stop offset="1" stop-color="#FFD217"/>
</linearGradient>
</defs>
</svg>
