<svg width="53" height="53" viewBox="0 0 53 53" fill="none" xmlns="http://www.w3.org/2000/svg">
<g clip-path="url(#clip0_530_3959)">
<g filter="url(#filter0_d_530_3959)">
<mask id="path-1-outside-1_530_3959" maskUnits="userSpaceOnUse" x="-1.48917" y="-4.28242" width="56.8085" height="61.5356" fill="black">
<rect fill="white" x="-1.48917" y="-4.28242" width="56.8085" height="61.5356"/>
<path fill-rule="evenodd" clip-rule="evenodd" d="M18.6361 47.5389C18.6085 47.5295 18.5809 47.5201 18.5533 47.5106C8.30898 43.9814 3.00926 31.2437 6.71603 19.0602C10.4228 6.87669 21.7324 -0.139018 31.9767 3.39018C32.2578 3.48702 32.5351 3.59078 32.8087 3.70128C33.6042 3.95047 34.3753 4.21658 34.9618 4.41899C35.0289 4.44215 35.0936 4.46447 35.1556 4.48584C45.3999 8.01504 50.6996 20.7527 46.9929 32.9362C43.2861 45.1197 31.9765 52.1354 21.7322 48.6062C21.4849 48.521 21.2042 48.4275 20.9018 48.3267C20.2136 48.0974 19.4129 47.8305 18.6361 47.5389Z"/>
</mask>
<path fill-rule="evenodd" clip-rule="evenodd" d="M18.6361 47.5389C18.6085 47.5295 18.5809 47.5201 18.5533 47.5106C8.30898 43.9814 3.00926 31.2437 6.71603 19.0602C10.4228 6.87669 21.7324 -0.139018 31.9767 3.39018C32.2578 3.48702 32.5351 3.59078 32.8087 3.70128C33.6042 3.95047 34.3753 4.21658 34.9618 4.41899C35.0289 4.44215 35.0936 4.46447 35.1556 4.48584C45.3999 8.01504 50.6996 20.7527 46.9929 32.9362C43.2861 45.1197 31.9765 52.1354 21.7322 48.6062C21.4849 48.521 21.2042 48.4275 20.9018 48.3267C20.2136 48.0974 19.4129 47.8305 18.6361 47.5389Z" fill="black"/>
<path d="M18.6361 47.5389L18.953 46.5915L18.9377 46.5857L18.9223 46.5805L18.6361 47.5389ZM32.8087 3.70128L32.4686 4.63966L32.506 4.65476L32.5444 4.66678L32.8087 3.70128ZM34.9618 4.41899L35.2534 3.46247L34.9618 4.41899ZM35.1556 4.48584L34.8645 5.44254L35.1556 4.48584ZM46.9929 32.9362L47.9383 33.2619L47.9383 33.2619L46.9929 32.9362ZM20.9018 48.3267L20.6203 49.2867L20.6203 49.2867L20.9018 48.3267ZM18.9223 46.5805C18.8963 46.5717 18.8703 46.5628 18.8444 46.5539L18.2622 48.4673C18.2915 48.4774 18.3206 48.4873 18.3498 48.4972L18.9223 46.5805ZM18.8444 46.5539C9.25969 43.2519 4.06961 31.1918 7.6615 19.3859L5.77056 18.7345C1.9489 31.2956 7.35828 44.7108 18.2622 48.4673L18.8444 46.5539ZM7.6615 19.3859C11.2534 7.58002 22.101 1.04493 31.6856 4.34688L32.2678 2.43348C21.3638 -1.32296 9.59222 6.17336 5.77056 18.7345L7.6615 19.3859ZM31.6856 4.34688C31.9502 4.43804 32.2113 4.5357 32.4686 4.63966L33.1488 2.7629C32.859 2.64587 32.5653 2.53599 32.2678 2.43348L31.6856 4.34688ZM32.5444 4.66678C33.3243 4.91109 34.0825 5.1727 34.6702 5.37551L35.2534 3.46247C34.6681 3.26047 33.8841 2.98985 33.073 2.73577L32.5444 4.66678ZM34.6702 5.37551C34.7372 5.39865 34.8022 5.42107 34.8645 5.44254L35.4467 3.52914C35.3849 3.50787 35.3205 3.48564 35.2534 3.46247L34.6702 5.37551ZM34.8645 5.44254C44.4492 8.74449 49.6393 20.8046 46.0474 32.6105L47.9383 33.2619C51.76 20.7008 46.3506 7.28558 35.4467 3.52914L34.8645 5.44254ZM46.0474 32.6105C42.4555 44.4164 31.6079 50.9515 22.0233 47.6495L21.4411 49.5629C32.3451 53.3194 44.1167 45.8231 47.9383 33.2619L46.0474 32.6105ZM22.0233 47.6495C21.7702 47.5624 21.4844 47.4671 21.1833 47.3668L20.6203 49.2867C20.924 49.3879 21.1995 49.4797 21.4411 49.5629L22.0233 47.6495ZM21.1833 47.3668C20.4926 47.1366 19.7094 46.8755 18.953 46.5915L18.3191 48.4863C19.1163 48.7856 19.9347 49.0582 20.6203 49.2867L21.1833 47.3668Z" fill="black" mask="url(#path-1-outside-1_530_3959)"/>
</g>
<path d="M46.9953 32.9304C43.2896 45.1102 31.994 52.1273 21.7658 48.6037C20.2146 48.0693 17.3509 47.2073 16.0411 46.2834C8.71435 41.1156 4.16619 29.5913 7.30985 19.2586C10.522 8.70099 20.8184 2.28565 29.7978 2.98899C31.1774 3.09705 33.8228 4.02756 35.185 4.49684C45.4133 8.02051 50.7009 20.7507 46.9953 32.9304Z" fill="url(#paint0_radial_530_3959)"/>
<g filter="url(#filter1_d_530_3959)">
<ellipse cx="19.7342" cy="23.0586" rx="19.7342" ry="23.0586" transform="matrix(0.945467 0.325717 -0.291071 0.956701 13.4277 -2.99902)" fill="url(#paint1_radial_530_3959)"/>
<ellipse cx="19.7342" cy="23.0586" rx="19.7342" ry="23.0586" transform="matrix(0.945467 0.325717 -0.291071 0.956701 13.4277 -2.99902)" fill="url(#paint2_linear_530_3959)" fill-opacity="0.5" style="mix-blend-mode:overlay"/>
<path d="M43.8608 31.8577C40.1752 43.9717 28.901 50.8848 18.7152 47.3757C8.52929 43.8667 3.20176 31.2343 6.8874 19.1202C10.573 7.00616 21.8472 0.0930823 32.0331 3.60215C42.2189 7.11122 47.5465 19.7436 43.8608 31.8577Z" stroke="url(#paint3_radial_530_3959)" stroke-width="0.3625"/>
</g>
<g filter="url(#filter2_ii_530_3959)">
<ellipse cx="14.7224" cy="17.1293" rx="14.7224" ry="17.1293" transform="matrix(0.945467 0.325717 -0.291072 0.956701 16.4414 4.30664)" fill="#F3AF29"/>
</g>
<g filter="url(#filter3_dd_530_3959)">
<path fill-rule="evenodd" clip-rule="evenodd" d="M15.3383 18.8524C15.3914 17.9526 16.0925 17.2796 16.984 17.2728L32.964 17.1515C33.7814 17.1453 34.4905 17.8352 34.522 18.6673L34.6284 21.4827C34.6491 22.0286 34.5354 22.5608 34.2976 23.0311L27.5706 36.3371C27.3362 36.8007 26.8591 37.076 26.3289 37.0535L22.3038 36.8829C21.7397 36.859 21.2164 36.5027 20.9655 35.9716L15.4483 24.2951C15.1973 23.764 15.0829 23.1858 15.1164 22.6181L15.3383 18.8524ZM19.8468 22.3487C19.7711 21.7157 20.2353 21.1901 20.8586 21.2033L28.2426 21.3597C28.7919 21.3713 29.276 21.8009 29.3667 22.3571L29.4825 23.0673C29.5428 23.4374 29.4916 23.8087 29.3356 24.1319L25.8942 31.2631C25.7062 31.6527 25.2942 31.8684 24.8537 31.808L24.2261 31.7219C23.8371 31.6685 23.4907 31.4079 23.3199 31.0401L20.1743 24.2656C20.0869 24.0774 20.0299 23.8781 20.0057 23.6758L19.8468 22.3487Z" fill="url(#paint4_linear_530_3959)"/>
</g>
<g style="mix-blend-mode:multiply">
<path d="M11.2897 29.2605C12.4728 38.0092 18.6292 43.1208 26.2492 41.5687C34.4816 39.8919 39.312 30.4379 38.877 24.083L11.2897 29.2605Z" fill="black" fill-opacity="0.11"/>
</g>
</g>
<defs>
<filter id="filter0_d_530_3959" x="4.54883" y="1.46191" width="44.9738" height="49.4348" filterUnits="userSpaceOnUse" color-interpolation-filters="sRGB">
<feFlood flood-opacity="0" result="BackgroundImageFix"/>
<feColorMatrix in="SourceAlpha" type="matrix" values="0 0 0 0 0 0 0 0 0 0 0 0 0 0 0 0 0 0 127 0" result="hardAlpha"/>
<feOffset dx="0.3625" dy="0.3625"/>
<feComposite in2="hardAlpha" operator="out"/>
<feColorMatrix type="matrix" values="0 0 0 0 0 0 0 0 0 0 0 0 0 0 0 0 0 0 0.45 0"/>
<feBlend mode="soft-light" in2="BackgroundImageFix" result="effect1_dropShadow_530_3959"/>
<feBlend mode="normal" in="SourceGraphic" in2="effect1_dropShadow_530_3959" result="shape"/>
</filter>
<filter id="filter1_d_530_3959" x="5.54102" y="2.50586" width="40.0305" height="46.3293" filterUnits="userSpaceOnUse" color-interpolation-filters="sRGB">
<feFlood flood-opacity="0" result="BackgroundImageFix"/>
<feColorMatrix in="SourceAlpha" type="matrix" values="0 0 0 0 0 0 0 0 0 0 0 0 0 0 0 0 0 0 127 0" result="hardAlpha"/>
<feOffset dx="0.3625" dy="0.3625"/>
<feComposite in2="hardAlpha" operator="out"/>
<feColorMatrix type="matrix" values="0 0 0 0 0 0 0 0 0 0 0 0 0 0 0 0 0 0 0.45 0"/>
<feBlend mode="soft-light" in2="BackgroundImageFix" result="effect1_dropShadow_530_3959"/>
<feBlend mode="normal" in="SourceGraphic" in2="effect1_dropShadow_530_3959" result="shape"/>
</filter>
<filter id="filter2_ii_530_3959" x="10.5859" y="8.41016" width="29.5781" height="34.1582" filterUnits="userSpaceOnUse" color-interpolation-filters="sRGB">
<feFlood flood-opacity="0" result="BackgroundImageFix"/>
<feBlend mode="normal" in="SourceGraphic" in2="BackgroundImageFix" result="shape"/>
<feColorMatrix in="SourceAlpha" type="matrix" values="0 0 0 0 0 0 0 0 0 0 0 0 0 0 0 0 0 0 127 0" result="hardAlpha"/>
<feOffset dx="0.3625" dy="0.3625"/>
<feComposite in2="hardAlpha" operator="arithmetic" k2="-1" k3="1"/>
<feColorMatrix type="matrix" values="0 0 0 0 0 0 0 0 0 0 0 0 0 0 0 0 0 0 1 0"/>
<feBlend mode="soft-light" in2="shape" result="effect1_innerShadow_530_3959"/>
<feColorMatrix in="SourceAlpha" type="matrix" values="0 0 0 0 0 0 0 0 0 0 0 0 0 0 0 0 0 0 127 0" result="hardAlpha"/>
<feOffset dx="-0.3625"/>
<feComposite in2="hardAlpha" operator="arithmetic" k2="-1" k3="1"/>
<feColorMatrix type="matrix" values="0 0 0 0 0.984342 0 0 0 0 0.77635 0 0 0 0 0.584357 0 0 0 0.4 0"/>
<feBlend mode="plus-lighter" in2="effect1_innerShadow_530_3959" result="effect2_innerShadow_530_3959"/>
</filter>
<filter id="filter3_dd_530_3959" x="14.3027" y="14.5498" width="21.5893" height="24.9621" filterUnits="userSpaceOnUse" color-interpolation-filters="sRGB">
<feFlood flood-opacity="0" result="BackgroundImageFix"/>
<feColorMatrix in="SourceAlpha" type="matrix" values="0 0 0 0 0 0 0 0 0 0 0 0 0 0 0 0 0 0 127 0" result="hardAlpha"/>
<feOffset dx="0.435" dy="0.3625"/>
<feComposite in2="hardAlpha" operator="out"/>
<feColorMatrix type="matrix" values="0 0 0 0 0 0 0 0 0 0 0 0 0 0 0 0 0 0 1 0"/>
<feBlend mode="soft-light" in2="BackgroundImageFix" result="effect1_dropShadow_530_3959"/>
<feColorMatrix in="SourceAlpha" type="matrix" values="0 0 0 0 0 0 0 0 0 0 0 0 0 0 0 0 0 0 127 0" result="hardAlpha"/>
<feOffset dx="0.435" dy="0.3625"/>
<feComposite in2="hardAlpha" operator="out"/>
<feColorMatrix type="matrix" values="0 0 0 0 0.627295 0 0 0 0 0.371202 0 0 0 0 0.0705707 0 0 0 0.4 0"/>
<feBlend mode="multiply" in2="effect1_dropShadow_530_3959" result="effect2_dropShadow_530_3959"/>
<feBlend mode="normal" in="SourceGraphic" in2="effect2_dropShadow_530_3959" result="shape"/>
</filter>
<radialGradient id="paint0_radial_530_3959" cx="0" cy="0" r="1" gradientUnits="userSpaceOnUse" gradientTransform="translate(24.6301 51.6788) rotate(-83.3492) scale(45.4808 37.4986)">
<stop offset="0.356962" stop-color="#99541B"/>
<stop offset="0.788512" stop-color="#EA7E26"/>
<stop offset="1" stop-color="#EFBB57"/>
</radialGradient>
<radialGradient id="paint1_radial_530_3959" cx="0" cy="0" r="1" gradientUnits="userSpaceOnUse" gradientTransform="translate(24.5268 48.0937) rotate(-100.417) scale(45.2155 38.0371)">
<stop offset="0.788512" stop-color="#FFB800"/>
<stop offset="1" stop-color="#F9DE68"/>
</radialGradient>
<linearGradient id="paint2_linear_530_3959" x1="9.07693" y1="7.11529" x2="35.1624" y2="36.995" gradientUnits="userSpaceOnUse">
<stop stop-color="white"/>
<stop offset="0.555853" stop-color="white" stop-opacity="0"/>
</linearGradient>
<radialGradient id="paint3_radial_530_3959" cx="0" cy="0" r="1" gradientUnits="userSpaceOnUse" gradientTransform="translate(28.8429 44.0928) rotate(-98.074) scale(40.6705 36.1014)">
<stop offset="0.0939274" stop-color="#824A0F" stop-opacity="0.45"/>
<stop offset="0.584638" stop-color="#E1A568"/>
<stop offset="0.8" stop-color="#FFD9B1" stop-opacity="0.43"/>
<stop offset="0.965" stop-color="#FFE0C1"/>
</radialGradient>
<linearGradient id="paint4_linear_530_3959" x1="25.2323" y1="16.0755" x2="22.3749" y2="36.8991" gradientUnits="userSpaceOnUse">
<stop stop-color="#FFD80E"/>
<stop offset="1" stop-color="#FFDD2B"/>
</linearGradient>
<clipPath id="clip0_530_3959">
<rect width="53" height="53" fill="white"/>
</clipPath>
</defs>
</svg>
