<svg width="512" height="448" viewBox="0 0 512 448" fill="none" xmlns="http://www.w3.org/2000/svg">
<g clip-path="url(#clip0_1888_10409)">
<path d="M255.963 0C270.163 0 283.263 7.5 290.463 19.8L506.463 387.8C513.763 400.2 513.763 415.5 506.663 427.9C499.563 440.3 486.263 448 471.963 448H39.9631C25.6631 448 12.3631 440.3 5.26309 427.9C-1.83691 415.5 -1.73691 400.1 5.46309 387.8L221.463 19.8C228.663 7.5 241.763 0 255.963 0ZM255.963 128C242.663 128 231.963 138.7 231.963 152V264C231.963 277.3 242.663 288 255.963 288C269.263 288 279.963 277.3 279.963 264V152C279.963 138.7 269.263 128 255.963 128ZM287.963 352C287.963 343.513 284.592 335.374 278.591 329.373C272.589 323.371 264.45 320 255.963 320C247.476 320 239.337 323.371 233.336 329.373C227.335 335.374 223.963 343.513 223.963 352C223.963 360.487 227.335 368.626 233.336 374.627C239.337 380.629 247.476 384 255.963 384C264.45 384 272.589 380.629 278.591 374.627C284.592 368.626 287.963 360.487 287.963 352Z" fill="#FF7070"/>
</g>
<defs>
<clipPath id="clip0_1888_10409">
<rect width="512" height="448" fill="white"/>
</clipPath>
</defs>
</svg>
