<svg width="240" height="240" viewBox="0 0 240 240" fill="none" xmlns="http://www.w3.org/2000/svg">
<rect x="104" y="104" width="32" height="32" rx="16" fill="#303746"/>
<mask id="mask0_1023_10320" style="mask-type:alpha" maskUnits="userSpaceOnUse" x="108" y="108" width="24" height="24">
<rect x="108" y="108" width="24" height="24" fill="#D9D9D9"/>
</mask>
<g mask="url(#mask0_1023_10320)">
<path d="M116.4 125L120 121.4L123.6 125L125 123.6L121.4 120L125 116.4L123.6 115L120 118.6L116.4 115L115 116.4L118.6 120L115 123.6L116.4 125ZM120 130C118.617 130 117.317 129.737 116.1 129.212C114.883 128.687 113.825 127.975 112.925 127.075C112.025 126.175 111.313 125.117 110.788 123.9C110.263 122.683 110 121.383 110 120C110 118.617 110.263 117.317 110.788 116.1C111.313 114.883 112.025 113.825 112.925 112.925C113.825 112.025 114.883 111.312 116.1 110.787C117.317 110.262 118.617 110 120 110C121.383 110 122.683 110.262 123.9 110.787C125.117 111.312 126.175 112.025 127.075 112.925C127.975 113.825 128.687 114.883 129.212 116.1C129.737 117.317 130 118.617 130 120C130 121.383 129.737 122.683 129.212 123.9C128.687 125.117 127.975 126.175 127.075 127.075C126.175 127.975 125.117 128.687 123.9 129.212C122.683 129.737 121.383 130 120 130Z" fill="#F04248"/>
</g>
<circle cx="120" cy="120" r="120" fill="url(#paint0_radial_1023_10320)" fill-opacity="0.13"/>
<defs>
<radialGradient id="paint0_radial_1023_10320" cx="0" cy="0" r="1" gradientUnits="userSpaceOnUse" gradientTransform="translate(120 120) rotate(90) scale(120)">
<stop stop-color="#F04248"/>
<stop offset="1" stop-color="#F04248" stop-opacity="0"/>
</radialGradient>
</defs>
</svg>
