<svg width="36" height="36" viewBox="0 0 36 36" fill="none" xmlns="http://www.w3.org/2000/svg">
<g clip-path="url(#clip0_530_3981)">
<mask id="mask0_530_3981" style="mask-type:luminance" maskUnits="userSpaceOnUse" x="0" y="0" width="36" height="36">
<path d="M36 0H0V36H36V0Z" fill="white"/>
</mask>
<g mask="url(#mask0_530_3981)">
<path d="M18.3124 1.16223L18.0005 1.00098L17.6885 1.16223L3.1696 8.6679L2.76367 8.87772L2.80506 9.33281L4.33115 26.1102L4.36406 26.4719L4.68316 26.6454L17.676 33.7096L18.0005 33.886L18.3249 33.7096L31.3177 26.6454L31.6368 26.4719L31.6697 26.1102L33.1957 9.33281L33.2371 8.87772L32.8312 8.6679L18.3124 1.16223Z" fill="black" stroke="black" stroke-width="2"/>
<path d="M18.0013 1.76562L3.48242 9.27128L9.36638 11.9203L18.0013 7.50524V1.76562Z" fill="#FAD9F8"/>
<path d="M3.48242 9.27148L4.93431 26.0488L10.2579 22.9583L9.36638 11.9205L3.48242 9.27148Z" fill="#F49DF4"/>
<path d="M32.5189 9.27128L18 1.76562V7.50524L26.6349 11.9203L32.5189 9.27128Z" fill="#F49DF4"/>
<path d="M31.0677 26.0488L32.5196 9.27148L26.6357 11.9205L25.7441 22.9583L31.0677 26.0488Z" fill="#D35BFA"/>
<path d="M18 33.1127L31.067 26.0486L25.7434 22.958L18 26.9316V33.1127Z" fill="#A02CDD"/>
<path d="M4.93359 26.0486L18.0006 33.1127V26.9316L10.2572 22.958L4.93359 26.0486Z" fill="#BB55F1"/>
<path d="M18.0001 7.50488L9.36523 11.92L10.2567 22.9577L18.0001 26.9313L25.7435 22.9577L26.635 11.92L18.0001 7.50488Z" fill="#E79CF7"/>
<g style="mix-blend-mode:soft-light">
<path fill-rule="evenodd" clip-rule="evenodd" d="M32.5174 9.28125L31.0664 26.049L17.9994 33.1132L9.61133 28.5785C14.7474 20.1014 22.7922 13.2955 32.5174 9.28125Z" fill="black"/>
</g>
<path fill-rule="evenodd" clip-rule="evenodd" d="M8.80601 11.9203L3.48242 9.27128L9.04795 11.4788L17.7593 7.06373L18.0013 1.76562L18.2432 7.06373L26.9546 11.4788L32.5202 9.27128L27.4385 11.9203L26.7121 22.9964L31.0683 26.0486L26.1925 23.7414L18.4853 27.5939L18.0013 33.1128L17.5173 27.5939L9.81007 23.7414L4.93431 26.0486L9.53192 22.9581L8.80601 11.9203ZM10.2579 22.9581L18.0013 26.9317L25.7447 22.9581L26.4706 11.9203L18.0013 7.50524L9.53192 11.9203L10.2579 22.9581Z" fill="white"/>
</g>
</g>
<defs>
<clipPath id="clip0_530_3981">
<rect width="36" height="36" fill="white"/>
</clipPath>
</defs>
</svg>
