<svg width="67" height="67" viewBox="0 0 67 67" fill="none" xmlns="http://www.w3.org/2000/svg">
<path d="M33.5363 48.55C30.5663 48.55 27.9446 47.9267 25.6713 46.68C23.4346 45.4333 21.693 43.71 20.4463 41.51C19.1996 39.2733 18.5763 36.725 18.5763 33.865C18.5763 31.005 19.1996 28.4933 20.4463 26.33C21.693 24.1667 23.4346 22.48 25.6713 21.27C27.9446 20.0233 30.5663 19.4 33.5363 19.4C36.543 19.4 39.1646 20.0233 41.4013 21.27C43.638 22.48 45.3796 24.1667 46.6263 26.33C47.873 28.4933 48.4963 31.005 48.4963 33.865C48.4963 36.725 47.8546 39.2733 46.5713 41.51C45.3246 43.71 43.583 45.4333 41.3463 46.68C39.1096 47.9267 36.5063 48.55 33.5363 48.55ZM33.5363 42.995C35.003 42.995 36.323 42.6283 37.4963 41.895C38.6696 41.125 39.5863 40.0617 40.2463 38.705C40.9063 37.3117 41.2363 35.68 41.2363 33.81C41.2363 31.06 40.503 28.8967 39.0363 27.32C37.6063 25.7433 35.773 24.955 33.5363 24.955C31.2996 24.955 29.448 25.7433 27.9813 27.32C26.5146 28.8967 25.7813 31.06 25.7813 33.81C25.7813 35.68 26.1113 37.3117 26.7713 38.705C27.468 40.0617 28.3846 41.125 29.5213 41.895C30.6946 42.6283 32.033 42.995 33.5363 42.995Z" fill="url(#paint0_linear_1132_10274)"/>
<defs>
<linearGradient id="paint0_linear_1132_10274" x1="-4.71388e-07" y1="28" x2="67" y2="28" gradientUnits="userSpaceOnUse">
<stop stop-color="#D185FF"/>
<stop offset="1" stop-color="#51CBFF"/>
</linearGradient>
</defs>
</svg>
