<svg width="67" height="67" viewBox="0 0 67 67" fill="none" xmlns="http://www.w3.org/2000/svg">
<path d="M23.4443 43.6517C22.629 43.7715 21.7491 43.604 21.2516 42.947C20.5592 42.0328 19.9753 41.044 19.511 39.9997C19.1674 39.2268 19.4723 38.3555 19.999 37.6935C20.2678 37.3554 20.4998 36.9889 20.6902 36.5998C21.087 35.7886 21.2927 34.9 21.2919 33.9999C21.2927 33.0999 21.087 32.2112 20.6902 31.4001C20.4998 31.0109 20.2678 30.6444 19.999 30.3064C19.4723 29.6444 19.1674 28.7731 19.511 28.0001C19.9753 26.9559 20.5592 25.967 21.2516 25.0528C21.7491 24.3959 22.629 24.2284 23.4443 24.3482C23.8935 24.4142 24.3502 24.4309 24.8059 24.3969C25.7184 24.3289 26.6035 24.0597 27.3956 23.6094C28.1892 23.1601 28.8695 22.5407 29.386 21.7973C29.6353 21.4384 29.8434 21.0551 30.0073 20.6544C30.3242 19.8798 30.9221 19.1917 31.7538 19.098C32.9147 18.9672 34.0871 18.9673 35.2479 19.0984C36.078 19.1921 36.6755 19.8777 36.9912 20.6511C37.4825 21.8543 38.3716 22.9098 39.6029 23.6094C40.3952 24.06 41.2806 24.3292 42.1933 24.3972C42.6491 24.4312 43.1059 24.4146 43.5552 24.3485C44.3708 24.2286 45.251 24.3962 45.7485 25.0535C46.4405 25.9677 47.0241 26.9565 47.488 28.0007C47.8313 28.7734 47.5266 29.6443 47.0003 30.3061C46.7314 30.6443 46.4994 31.011 46.3091 31.4003C45.9126 32.2114 45.7071 33.1 45.7081 33.9999C45.7073 34.9 45.913 35.7886 46.3098 36.5998C46.5002 36.989 46.7323 37.3556 47.0012 37.6937C47.5278 38.3556 47.8328 39.2267 47.4893 39.9996C47.0255 41.0436 46.4419 42.0323 45.75 42.9464C45.2525 43.6037 44.3723 43.7712 43.5567 43.6513C43.1074 43.5853 42.6506 43.5686 42.1948 43.6026C41.2821 43.6706 40.3967 43.9399 39.6044 44.3904C38.8111 44.8399 38.131 45.4594 37.6148 46.2028C37.3657 46.5615 37.1578 46.9447 36.9941 47.3452C36.6772 48.12 36.0793 48.8082 35.2475 48.9019C34.0873 49.0327 32.9155 49.0327 31.7553 48.9019C30.9236 48.8081 30.3258 48.1201 30.0089 47.3455C29.8449 46.9448 29.6369 46.5614 29.3875 46.2025C28.8711 45.4591 28.1907 44.8397 27.3971 44.3904C26.605 43.9401 25.7199 43.671 24.8075 43.603C24.3515 43.569 23.8941 43.5856 23.4443 43.6517ZM37.4636 31.7503C37.1652 31.2344 36.7659 30.7817 36.2888 30.4181C35.8117 30.0546 35.2661 29.7874 34.6835 29.6319C34.1008 29.4764 33.4927 29.4358 32.894 29.5123C32.2953 29.5887 31.718 29.7809 31.1951 30.0776C30.6723 30.3743 30.2144 30.7697 29.8476 31.241C29.4809 31.7124 29.2127 32.2504 29.0584 32.824C28.9041 33.3977 28.8667 33.9957 28.9485 34.5836C29.0303 35.1715 29.2296 35.7377 29.5349 36.2496C30.1463 37.2746 31.1453 38.0203 32.314 38.324C33.4827 38.6276 34.7261 38.4647 35.773 37.8706C36.8198 37.2765 37.5851 36.2996 37.9019 35.1529C38.2186 34.0063 38.061 32.7831 37.4636 31.7503Z" fill="url(#paint0_linear_1134_10277)"/>
<defs>
<linearGradient id="paint0_linear_1134_10277" x1="-1.5" y1="29" x2="60" y2="29" gradientUnits="userSpaceOnUse">
<stop stop-color="#D185FF"/>
<stop offset="1" stop-color="#51CBFF"/>
</linearGradient>
</defs>
</svg>
