<svg width="512" height="512" viewBox="0 0 512 512" fill="none" xmlns="http://www.w3.org/2000/svg">
<path d="M511.866 256.011C511.866 272.004 498.529 284.532 483.414 284.532H454.962L455.585 426.87C455.585 429.269 455.407 431.667 455.14 434.066V448.46C455.14 468.096 439.225 484 419.575 484H405.349C404.371 484 403.393 484 402.415 483.911C401.17 484 399.926 484 398.681 484L369.785 483.911H348.446C328.796 483.911 312.881 468.007 312.881 448.371V427.047V370.183C312.881 354.457 300.167 341.751 284.429 341.751H227.526C211.788 341.751 199.074 354.457 199.074 370.183V427.047V448.371C199.074 468.007 183.158 483.911 163.509 483.911H142.17H113.807C112.474 483.911 111.14 483.822 109.806 483.733C108.739 483.822 107.672 483.911 106.605 483.911H92.3794C72.7299 483.911 56.8147 468.007 56.8147 448.371V348.859C56.8147 348.06 56.8147 347.171 56.9036 346.372V284.443H28.4518C12.4477 284.443 0 272.004 0 255.922C0 247.926 2.66736 240.818 8.89119 234.599L236.772 36.108C242.996 29.8885 250.109 29 256.333 29C262.557 29 269.67 30.777 275.004 35.2195L502.085 234.687C509.198 240.907 512.755 248.015 511.866 256.011Z" fill="black"/>
</svg>
