<svg width="33" height="45" viewBox="0 0 33 45" fill="none" xmlns="http://www.w3.org/2000/svg">
<path d="M32.0887 24.5828L10.1487 44.2252C9.55523 44.7623 8.90159 45 8.25655 45C7.68951 45 7.12214 44.8225 6.63878 44.4621C5.59898 43.689 5.21969 42.2822 5.72798 41.0725L12.3418 25.2783H2.75305C1.60574 25.2783 0.57883 24.5505 0.175464 23.4514C-0.227644 22.3535 0.0787076 21.1139 0.94143 20.3408L22.8815 0.698379C23.849 -0.172369 25.2733 -0.233119 26.3105 0.539989C27.3503 1.3131 27.7296 2.71994 27.2213 3.92966L20.6092 19.7246L30.1988 19.724C31.3461 19.724 32.373 20.4517 32.7764 21.5509C33.2498 22.5666 32.9488 23.808 32.0887 24.5828Z" fill="white"/>
</svg>
