<svg width="20" height="20" viewBox="0 0 20 20" fill="none" xmlns="http://www.w3.org/2000/svg">
<path d="M16.918 2.47895L12.519 0.524402C10.942 -0.1748 9.05802 -0.1748 7.48102 0.524402L3.08301 2.47895C1.21001 3.31019 0 5.07464 0 6.97219V13.023C0 14.9206 1.20997 16.685 3.08197 17.5163L7.48199 19.4718C8.26199 19.8179 9.118 19.992 9.974 19.995C9.983 19.995 9.991 20 10 20C10.009 20 10.017 19.995 10.026 19.995C10.882 19.991 11.738 19.8179 12.519 19.4718L16.918 17.5163C18.791 16.685 20.001 14.9206 20.001 13.023V6.97219C20 5.07464 18.79 3.31019 16.918 2.47895ZM11.707 2.35293L16.106 4.30748C16.244 4.36849 16.375 4.43847 16.5 4.51249L14.498 5.40276L7.96399 2.49897L8.29303 2.35293C9.36203 1.8788 10.639 1.8788 11.707 2.35293ZM5.5 3.59426L12.035 6.49805L11.101 6.91321C10.444 7.2063 9.55599 7.2063 8.89899 6.91321L3.5 4.51347C3.625 4.43845 3.75598 4.36947 3.89398 4.30845L5.5 3.59426ZM3.89398 15.6877C2.72598 15.1686 2 14.1483 2 13.023V6.97219C2 6.6721 2.05502 6.3811 2.15302 6.10402L8.08698 8.74174C8.37498 8.86978 8.68298 8.96682 9.00098 9.03284V17.8694C8.75998 17.8114 8.52098 17.7443 8.29498 17.6432L3.89398 15.6877ZM18 13.023C18 14.1483 17.274 15.1696 16.105 15.6877L11.707 17.6432C11.48 17.7433 11.241 17.8114 11 17.8694V9.03284C11.318 8.96582 11.626 8.86978 11.914 8.74174L17.848 6.10402C17.946 6.3811 18.001 6.6731 18.001 6.97219L18 13.023Z" fill="black"/>
</svg>
