<svg width="37" height="37" viewBox="0 0 37 37" fill="none" xmlns="http://www.w3.org/2000/svg">
<path d="M4.43564 35.2857C4.20415 35.4484 3.93229 35.5445 3.64975 35.5636C3.3672 35.5826 3.08484 35.5239 2.8335 35.3938C2.58215 35.2636 2.37148 35.0671 2.22449 34.8256C2.0775 34.5842 1.99984 34.3071 2 34.0246V2.97542C1.99984 2.69292 2.0775 2.41582 2.22449 2.17436C2.37148 1.9329 2.58215 1.73637 2.8335 1.60624C3.08484 1.4761 3.3672 1.41735 3.64975 1.43642C3.93229 1.45548 4.20415 1.55162 4.43564 1.71433L26.4831 17.242C26.6847 17.3844 26.8491 17.573 26.9625 17.7919C27.076 18.0108 27.1352 18.2536 27.1352 18.5C27.1352 18.7464 27.076 18.9892 26.9625 19.2081C26.8491 19.427 26.6847 19.6156 26.4831 19.758L4.43564 35.2857ZM29.8182 3.08333C29.8182 2.26558 30.1438 1.48133 30.7235 0.903088C31.3031 0.324851 32.0893 0 32.9091 0C33.7289 0 34.515 0.324851 35.0947 0.903088C35.6744 1.48133 36 2.26558 36 3.08333V33.9167C36 34.7344 35.6744 35.5187 35.0947 36.0969C34.515 36.6752 33.7289 37 32.9091 37C32.0893 37 31.3031 36.6752 30.7235 36.0969C30.1438 35.5187 29.8182 34.7344 29.8182 33.9167V3.08333Z" fill="white"/>
</svg>
