<svg width="33" height="40" viewBox="0 0 33 40" fill="none" xmlns="http://www.w3.org/2000/svg">
<path d="M32.2051 31.5234L23.5054 16.7969V5H24.0284C25.0044 5 25.73 4.16016 25.73 3.125L25.73 1.875C25.73 0.839844 24.9381 0 24.0284 0H8.83875C7.86638 0 7.07154 0.839844 7.07154 1.875L7.07153 3.125C7.07153 4.16016 7.86342 5 8.77318 5H9.29619L9.42807 16.7969L0.794591 31.5234C-1.36231 35.2031 1.12387 40 5.22109 40H27.7772C31.8736 40 34.3635 35.1953 32.2051 31.5234ZM10.0984 25L13.6454 18.9352C13.9805 18.5391 14.1352 18.0312 14.1352 17.5L14.14 5H18.8538L18.8494 17.5C18.8494 18.0371 19.0151 18.5352 19.2822 18.9359L22.8276 25H10.0984Z" fill="white"/>
</svg>
