<svg width="512" height="512" viewBox="0 0 512 512" fill="none" xmlns="http://www.w3.org/2000/svg">
<path d="M195.357 121.219C195.357 88.0561 222.327 61.0938 255.5 61.0938C288.673 61.0938 315.643 88.0561 315.643 121.219V166.312H195.357V121.219ZM150.25 166.312H90.1071C65.2042 166.312 45 186.511 45 211.406V406.812C45 456.604 85.4085 497 135.214 497H375.786C425.592 497 466 456.604 466 406.812V211.406C466 186.511 445.796 166.312 420.893 166.312H360.75V121.219C360.75 63.0666 313.669 16 255.5 16C197.331 16 150.25 63.0666 150.25 121.219V166.312ZM172.804 211.406C178.785 211.406 184.522 213.782 188.751 218.01C192.981 222.238 195.357 227.973 195.357 233.953C195.357 239.933 192.981 245.668 188.751 249.896C184.522 254.125 178.785 256.5 172.804 256.5C166.822 256.5 161.085 254.125 156.856 249.896C152.626 245.668 150.25 239.933 150.25 233.953C150.25 227.973 152.626 222.238 156.856 218.01C161.085 213.782 166.822 211.406 172.804 211.406ZM315.643 233.953C315.643 227.973 318.019 222.238 322.249 218.01C326.478 213.782 332.215 211.406 338.196 211.406C344.178 211.406 349.915 213.782 354.144 218.01C358.374 222.238 360.75 227.973 360.75 233.953C360.75 239.933 358.374 245.668 354.144 249.896C349.915 254.125 344.178 256.5 338.196 256.5C332.215 256.5 326.478 254.125 322.249 249.896C318.019 245.668 315.643 239.933 315.643 233.953Z" fill="black"/>
</svg>
