<svg width="32" height="32" viewBox="0 0 32 32" fill="red" xmlns="http://www.w3.org/2000/svg">
<path d="M14.2004 2.32291C14.4064 -0.119639 17.9803 -0.119637 18.1863 2.32291L18.9682 11.5941C19.0502 12.566 19.8212 13.337 20.7931 13.419L30.0643 14.2009C32.5068 14.4069 32.5068 17.9808 30.0643 18.1868L20.7931 18.9687C19.8212 19.0507 19.0502 19.8217 18.9682 20.7936L18.1863 30.0648C17.9803 32.5073 14.4064 32.5073 14.2004 30.0648L13.4185 20.7936C13.3365 19.8217 12.5655 19.0507 11.5936 18.9687L2.32242 18.1868C-0.120127 17.9808 -0.120125 14.4069 2.32242 14.2009L11.5936 13.419C12.5655 13.337 13.3365 12.566 13.4185 11.5941L14.2004 2.32291Z" fill="white"/>
</svg>
