<svg width="212" height="212" viewBox="0 0 212 212" fill="none" xmlns="http://www.w3.org/2000/svg">
<rect x="90" y="90" width="32" height="32" rx="16" fill="#303746"/>
<mask id="mask0_1023_10279" style="mask-type:alpha" maskUnits="userSpaceOnUse" x="94" y="94" width="24" height="24">
<rect x="94" y="94" width="24" height="24" fill="#D9D9D9"/>
</mask>
<g mask="url(#mask0_1023_10279)">
<path d="M104.6 110.6L111.65 103.55L110.25 102.15L104.6 107.8L101.75 104.95L100.35 106.35L104.6 110.6ZM106 116C104.617 116 103.317 115.737 102.1 115.212C100.883 114.687 99.825 113.975 98.925 113.075C98.025 112.175 97.3127 111.117 96.788 109.9C96.2627 108.683 96 107.383 96 106C96 104.617 96.2627 103.317 96.788 102.1C97.3127 100.883 98.025 99.825 98.925 98.925C99.825 98.025 100.883 97.3123 102.1 96.787C103.317 96.2623 104.617 96 106 96C107.383 96 108.683 96.2623 109.9 96.787C111.117 97.3123 112.175 98.025 113.075 98.925C113.975 99.825 114.687 100.883 115.212 102.1C115.737 103.317 116 104.617 116 106C116 107.383 115.737 108.683 115.212 109.9C114.687 111.117 113.975 112.175 113.075 113.075C112.175 113.975 111.117 114.687 109.9 115.212C108.683 115.737 107.383 116 106 116Z" fill="#00DF80"/>
</g>
<circle cx="106" cy="106" r="106" fill="url(#paint0_radial_1023_10279)" fill-opacity="0.12"/>
<defs>
<radialGradient id="paint0_radial_1023_10279" cx="0" cy="0" r="1" gradientUnits="userSpaceOnUse" gradientTransform="translate(106 106) rotate(90) scale(106)">
<stop stop-color="#00ED51"/>
<stop offset="1" stop-color="#00ED7B" stop-opacity="0"/>
</radialGradient>
</defs>
</svg>
