<svg width="512" height="512" viewBox="0 0 512 512" fill="none" xmlns="http://www.w3.org/2000/svg">
<path d="M167.2 17.7C172.6 6.8 183.7 0 195.8 0H316.2C328.3 0 339.4 6.8 344.8 17.7L352 32H448C465.7 32 480 46.3 480 64C480 81.7 465.7 96 448 96H64C46.3 96 32 81.7 32 64C32 46.3 46.3 32 64 32H160L167.2 17.7ZM64 128H448V448C448 483.3 419.3 512 384 512H128C92.7 512 64 483.3 64 448V128ZM160 192C151.2 192 144 199.2 144 208V432C144 440.8 151.2 448 160 448C168.8 448 176 440.8 176 432V208C176 199.2 168.8 192 160 192ZM256 192C247.2 192 240 199.2 240 208V432C240 440.8 247.2 448 256 448C264.8 448 272 440.8 272 432V208C272 199.2 264.8 192 256 192ZM352 192C343.2 192 336 199.2 336 208V432C336 440.8 343.2 448 352 448C360.8 448 368 440.8 368 432V208C368 199.2 360.8 192 352 192Z" fill="white"/>
</svg>
