<svg width="602" height="382" viewBox="0 0 602 382" fill="none" xmlns="http://www.w3.org/2000/svg">
<path d="M9.78958 150.464C9.01672 165.124 8.24385 180.191 0.110352 193.965V189.404C6.18287 177.218 6.86373 164.016 7.56299 150.353C8.64868 129.563 9.77118 108.052 31.7979 90.3823C36.8951 86.2833 41.9555 83.3475 46.9608 81.298L46.9424 60.8215C46.9424 56.9256 50.1074 53.7683 53.9718 53.7683L99.2029 53.7313C103.067 53.7313 106.232 56.8702 106.232 60.7661L106.251 81.6673C123.235 84.086 139.723 83.9753 157.278 69.9057C178.532 52.882 179.563 32.7932 180.667 11.5782C180.869 7.82998 181.071 4.04487 181.366 0.259766H183.611C183.28 4.00794 183.077 7.84844 182.875 11.6889C181.826 32.4978 180.703 54.0083 158.677 71.6598C140.643 86.1171 123.217 86.2833 106.269 83.9199V93.6319C106.269 97.5093 103.104 100.685 99.258 100.685L54.027 100.722C50.1442 100.722 46.9792 97.5463 46.9792 93.6873V83.6429C42.434 85.637 37.852 88.3881 33.1964 92.1363C11.9242 109.16 10.8937 129.212 9.78958 150.464Z" fill="url(#paint0_linear_649_4058)"/>
<path d="M6.69775 303.564C4.50797 303.176 2.35498 302.807 0.183594 302.475V300.222C2.48379 300.573 4.78399 300.979 7.06579 301.385C27.9516 304.986 47.6781 308.402 68.9135 291.36C90.1673 274.336 91.1978 254.265 92.3019 233.032C93.3876 212.242 94.4917 190.731 116.518 173.061C138.545 155.391 159.689 159.047 180.151 162.592C201.037 166.192 220.763 169.627 241.999 152.603C263.234 135.579 264.283 115.491 265.387 94.2755C266.473 73.4851 267.559 51.9746 289.604 34.3046C311.63 16.6531 332.774 20.2905 353.218 23.8355C374.104 27.436 393.83 30.8703 415.066 13.8465C420.549 9.45213 424.671 4.87307 427.8 0.109375H430.413C427.082 5.50084 422.574 10.6892 416.483 15.6006C394.456 33.2521 373.312 29.5778 352.85 26.0697C331.964 22.4323 312.238 19.0349 291.002 36.0587C269.748 53.0824 268.718 73.1527 267.614 94.3862C266.528 115.177 265.424 136.687 243.397 154.357C221.371 172.009 200.246 168.371 179.783 164.826C158.897 161.189 139.152 157.791 117.899 174.815C96.6447 191.839 95.6142 211.909 94.5101 233.143C93.4244 253.933 92.3387 275.444 70.2936 293.114C48.2853 310.765 27.1419 307.109 6.69775 303.564Z" fill="url(#paint1_linear_649_4058)"/>
<path d="M462.984 59.1036L463.076 58.5312H475.019C476.638 58.6051 477.945 59.1036 478.387 60.8392L481 73.3763C478.442 66.8031 472.277 61.3562 462.984 59.1036Z" fill="url(#paint2_linear_649_4058)"/>
<path d="M481.314 75.225L482.123 78.1608L489.668 58.8105H497.82L485.693 87.0973H477.56L470.659 63.4635C475.609 66.6577 479.823 71.6984 481.314 75.225Z" fill="url(#paint3_linear_649_4058)"/>
<path d="M511.84 67.6141C511.876 62.1118 517.25 58.2344 524.849 58.2344C527.831 58.2344 530.241 58.8621 531.75 59.4345L530.701 65.5646L530.002 65.2507C528.567 64.6783 526.745 64.1428 524.224 64.1613C521.224 64.1613 519.807 65.4353 519.807 66.617C519.789 67.9279 521.464 68.8142 524.15 70.1252C528.585 72.1562 530.646 74.5934 530.591 77.8431C530.554 83.7331 525.291 87.5366 517.213 87.5366C513.753 87.4997 510.441 86.7981 508.638 86.0226L509.723 79.671L510.699 80.1141C513.22 81.1666 514.876 81.6097 517.949 81.6097C520.157 81.6097 522.531 80.7419 522.568 78.8401C522.586 77.5846 521.556 76.6983 518.575 75.3135C515.649 73.9657 511.803 71.6761 511.84 67.6141Z" fill="url(#paint4_linear_649_4058)"/>
<path d="M530.114 87.093L541.523 61.0773C542.333 59.2494 543.731 58.7324 545.572 58.7324H551.515L557.772 87.0746H550.614C550.614 87.0746 549.914 83.8249 549.675 82.8463H539.812C539.518 83.5849 538.193 87.0746 538.193 87.0746L530.114 87.093Z" fill="url(#paint5_linear_649_4058)"/>
<path d="M595.752 17.6702C598.586 22.7847 600.168 28.6931 600.168 34.9524L600.205 75.9608C599.58 81.2415 599.304 86.5407 599.028 91.7844C597.923 113.036 596.893 133.088 575.639 150.112C554.385 167.136 534.659 163.72 513.791 160.101C493.347 156.556 472.204 152.9 450.177 170.57C428.132 188.222 427.028 209.732 425.961 230.541C424.857 251.756 423.826 271.845 402.572 288.869C381.318 305.892 361.592 302.476 340.725 298.858C320.262 295.312 299.119 291.657 277.092 309.327C255.065 326.978 253.943 348.489 252.875 369.297C252.673 373.138 252.489 376.96 252.139 380.727L131.241 380.819C132.492 379.97 133.762 379.028 135.013 378.012C157.058 360.361 158.162 338.85 159.23 318.042C160.334 296.79 161.364 276.738 182.618 259.714C203.872 242.69 223.617 246.088 244.503 249.725C264.965 253.27 286.09 256.926 308.117 239.256C330.144 221.604 331.266 200.094 332.333 179.285C333.438 158.033 334.468 137.981 355.722 120.957C376.976 103.934 396.702 107.331 417.57 110.968C438.032 114.495 459.176 118.169 481.202 100.499C488.581 94.5725 493.623 88.2209 497.083 81.5923L496.144 87.0946H503.836L508.657 58.7524H503.947C504.793 52.6963 505.106 46.5847 505.4 40.5285C506.118 26.3113 506.854 12.6295 513.626 0.0371094H511.16C504.609 12.9434 503.891 26.8283 503.192 40.4177C502.861 46.6586 502.548 52.7886 501.72 58.7524H500.966L498.629 72.5265C495.463 81.8139 489.943 90.6212 479.822 98.7453C458.568 115.769 438.842 112.353 417.974 108.734C397.53 105.189 376.387 101.533 354.36 119.203C332.315 136.855 331.211 158.365 330.144 179.174C329.04 200.389 328.009 220.478 306.755 237.502C285.501 254.526 265.775 251.11 244.908 247.491C224.445 243.946 203.302 240.29 181.275 257.96C159.248 275.63 158.07 297.159 157.003 317.949C155.899 339.201 154.869 359.253 133.615 376.277C131.462 377.994 129.346 379.526 127.193 380.819L35.5527 380.893C22.5244 380.911 11.0971 373.95 4.80371 363.555C10.9682 374.578 22.7084 382.019 36.1784 382.001L565.095 381.613C584.95 381.594 601.033 365.42 601.015 345.516L600.794 36.0233C600.794 29.3025 598.972 23.0247 595.752 17.6702ZM600.408 344.408C600.426 364.331 584.325 380.487 564.488 380.505L322.728 380.671C322.838 380.56 322.967 380.468 323.114 380.357C344.368 363.334 364.113 366.731 384.999 370.368C405.461 373.913 426.586 377.569 448.613 359.899C470.64 342.248 471.762 320.737 472.83 299.928C473.934 278.676 474.964 258.625 496.218 241.601C517.472 224.577 537.198 227.974 558.066 231.612C571.848 233.975 585.907 236.412 600.334 232.369L600.408 344.408ZM600.316 230.116C586.33 234.234 572.64 231.852 558.415 229.415C537.971 225.87 516.828 222.214 494.801 239.884C472.756 257.535 471.652 279.046 470.584 299.855C469.48 321.07 468.45 341.158 447.196 358.182C425.942 375.206 406.216 371.79 385.348 368.171C364.886 364.626 343.742 360.97 321.716 378.64C320.869 379.305 320.041 380.007 319.268 380.708L254.403 380.764C254.716 376.978 254.918 373.212 255.102 369.445C256.206 348.193 257.237 328.141 278.49 311.118C299.744 294.094 319.471 297.491 340.375 301.129C360.837 304.674 381.962 308.33 403.989 290.66C426.016 273.008 427.138 251.498 428.206 230.689C429.31 209.437 430.34 189.385 451.594 172.361C472.848 155.337 492.574 158.735 513.442 162.372C533.904 165.899 555.048 169.573 577.074 151.903C593.912 138.406 598.512 122.656 600.242 106.722L600.316 230.116Z" fill="url(#paint6_linear_649_4058)"/>
<path d="M181.366 0.279297C181.053 4.0644 180.851 7.83105 180.667 11.5977C179.563 32.8128 178.532 52.9015 157.278 69.9253C139.723 83.9763 123.235 84.1056 106.251 81.6868L106.232 60.7856C106.232 56.8897 103.067 53.7509 99.2029 53.7509L53.9719 53.7878C50.0891 53.7878 46.924 56.9451 46.9424 60.841L46.9608 81.3175C41.9556 83.3855 36.8952 86.3028 31.7979 90.4018C9.77125 108.053 8.64876 129.564 7.56307 150.354C6.86381 164.018 6.18295 177.219 0.110425 189.405L1.57571e-05 36.4686C-0.0183858 16.583 16.083 0.39008 35.9199 0.39008L181.366 0.279297Z" fill="url(#paint7_linear_649_4058)"/>
<path d="M427.838 0.0917969C424.691 4.85549 420.588 9.43455 415.104 13.829C393.85 30.8527 374.124 27.4369 353.256 23.818C332.812 20.2729 311.669 16.617 289.642 34.287C267.597 51.9385 266.493 73.449 265.426 94.2579C264.322 115.473 263.291 135.562 242.037 152.585C220.783 169.609 201.057 166.193 180.189 162.574C159.727 159.029 138.584 155.374 116.557 173.044C94.5301 190.714 93.4076 212.206 92.3404 233.014C91.2363 254.266 90.2058 274.318 68.952 291.342C47.6981 308.366 27.9716 304.968 7.10424 301.368C4.80404 300.962 2.50384 300.574 0.222044 300.205L0.148438 193.945C8.30034 180.171 9.0732 165.122 9.82767 150.444C10.9318 129.192 11.9622 109.14 33.2161 92.1161C37.8717 88.3864 42.4537 85.6168 46.9989 83.6227V93.667C46.9989 97.5445 50.1639 100.702 54.0467 100.702L99.2778 100.665C103.142 100.665 106.289 97.4891 106.289 93.6117V83.8996C123.218 86.263 140.663 86.0968 158.696 71.6396C180.705 54.0065 181.827 32.496 182.895 11.7056C183.097 7.86512 183.281 4.04308 183.631 0.276436L427.838 0.0917969Z" fill="url(#paint8_linear_649_4058)"/>
<path d="M430.449 0.0925012C427.119 5.48397 422.61 10.6723 416.519 15.5837C394.493 33.2353 373.349 29.5609 352.887 26.0528C332.001 22.4154 312.275 19.018 291.039 36.0418C269.785 53.0655 268.755 73.1359 267.651 94.3694C266.565 115.16 265.461 136.67 243.434 154.34C221.407 171.992 200.282 168.354 179.82 164.809C158.934 161.172 139.189 157.775 117.935 174.798C96.6816 191.822 95.6511 211.892 94.547 233.126C93.4613 253.916 92.3756 275.427 70.3306 293.097C48.3039 310.748 27.1605 307.111 6.71631 303.566C4.52652 303.178 2.37353 302.809 0.202148 302.476L0.238952 345.959C0.238952 352.144 1.80309 357.979 4.58172 363.075C4.67373 363.26 4.72894 363.407 4.85775 363.537C11.1511 373.932 22.5601 380.874 35.6068 380.874L127.247 380.801C129.381 379.508 131.497 377.976 133.669 376.258C154.923 359.235 155.953 339.164 157.057 317.931C158.143 297.14 159.247 275.63 181.274 257.96C203.3 240.29 224.444 243.946 244.906 247.491C265.792 251.091 285.519 254.526 306.754 237.502C327.989 220.478 329.038 200.389 330.142 179.174C331.228 158.384 332.314 136.873 354.359 119.203C376.386 101.552 397.529 105.189 417.973 108.734C438.859 112.335 458.585 115.769 479.821 98.7453C489.96 90.6212 495.481 81.8139 498.627 72.5265L500.964 58.7524H501.719C502.565 52.7886 502.878 46.6586 503.191 40.4177C503.89 26.8283 504.626 12.9434 511.159 0.0371094L430.449 0.0925012ZM463.075 58.5309H475.018C476.637 58.6047 477.944 59.1033 478.386 60.8389L480.999 73.3759C478.422 66.8212 472.276 61.3743 462.983 59.1217L463.075 58.5309ZM485.691 87.0761H477.557L470.657 63.4423C475.607 66.6365 479.821 71.6957 481.311 75.2038L482.121 78.1396L489.666 58.7894H497.818L485.691 87.0761Z" fill="url(#paint9_linear_649_4058)"/>
<path d="M462.984 59.1036L463.076 58.5312H475.019C476.638 58.6051 477.945 59.1036 478.387 60.8392L481 73.3763C478.442 66.8031 472.277 61.3562 462.984 59.1036Z" fill="url(#paint10_linear_649_4058)"/>
<path d="M481.314 75.225L482.123 78.1608L489.668 58.8105H497.82L485.693 87.0973H477.56L470.659 63.4635C475.609 66.6577 479.823 71.6984 481.314 75.225Z" fill="url(#paint11_linear_649_4058)"/>
<path d="M595.75 17.67C592.898 12.7955 588.923 8.71498 584.157 5.66843C578.582 2.06796 571.939 0 564.836 0L513.624 0.0369279C506.852 12.6293 506.135 26.3111 505.399 40.5283C505.086 46.5845 504.791 52.6961 503.945 58.7523H508.656L503.834 87.0944H496.143L497.081 81.5921C493.64 88.2207 488.58 94.5723 481.201 100.499C459.174 118.151 438.03 114.476 417.568 110.968C396.682 107.331 376.956 103.934 355.72 120.957C334.466 137.981 333.436 158.051 332.332 179.285C331.246 200.075 330.142 221.586 308.115 239.256C286.089 256.907 264.964 253.27 244.501 249.725C223.615 246.087 203.87 242.69 182.616 259.714C161.363 276.738 160.332 296.808 159.228 318.041C158.142 338.832 157.057 360.342 135.012 378.012C133.76 379.028 132.491 379.951 131.239 380.819L252.138 380.726C252.469 376.978 252.671 373.138 252.874 369.297C253.959 348.507 255.064 326.996 277.09 309.326C299.117 291.675 320.26 295.312 340.723 298.857C361.609 302.458 381.335 305.892 402.571 288.868C423.806 271.845 424.855 251.756 425.959 230.541C427.045 209.75 428.13 188.24 450.175 170.57C472.202 152.918 493.346 156.556 513.79 160.101C534.675 163.701 554.402 167.136 575.637 150.112C596.891 133.088 597.922 113.018 599.026 91.7842C599.283 86.522 599.578 81.2229 600.204 75.9606L600.167 34.9522C600.167 28.693 598.584 22.7845 595.75 17.67ZM517.249 87.5375C513.79 87.5006 510.477 86.799 508.674 86.0235L509.76 79.6719L510.735 80.115C513.256 81.1675 514.912 81.6106 517.985 81.6106C520.193 81.6106 522.567 80.7428 522.604 78.841C522.622 77.5855 521.592 76.6992 518.611 75.3144C515.667 73.9665 511.802 71.6955 511.858 67.6334C511.894 62.1312 517.268 58.2537 524.867 58.2537C527.849 58.2537 530.259 58.8815 531.768 59.4539L530.719 65.5839L530.02 65.27C528.585 64.6976 526.763 64.1622 524.242 64.1806C521.242 64.1806 519.825 65.4547 519.825 66.6364C519.807 67.9473 521.482 68.8336 524.168 70.1445C528.603 72.1755 530.664 74.6128 530.609 77.8624C530.59 83.7155 525.328 87.5191 517.249 87.5375ZM550.63 87.0759C550.63 87.0759 549.93 83.8263 549.691 82.8477H539.828C539.533 83.5862 538.209 87.0759 538.209 87.0759H530.112L541.521 61.0602C542.331 59.2323 543.729 58.7153 545.569 58.7153H551.513L557.769 87.0575L550.63 87.0759Z" fill="url(#paint12_linear_649_4058)"/>
<path d="M511.84 67.6141C511.876 62.1118 517.25 58.2344 524.849 58.2344C527.831 58.2344 530.241 58.8621 531.75 59.4345L530.701 65.5646L530.002 65.2507C528.567 64.6783 526.745 64.1428 524.224 64.1613C521.224 64.1613 519.807 65.4353 519.807 66.617C519.789 67.9279 521.464 68.8142 524.15 70.1252C528.585 72.1562 530.646 74.5934 530.591 77.8431C530.554 83.7331 525.291 87.5366 517.213 87.5366C513.753 87.4997 510.441 86.7981 508.638 86.0226L509.723 79.671L510.699 80.1141C513.22 81.1666 514.876 81.6097 517.949 81.6097C520.157 81.6097 522.531 80.7419 522.568 78.8401C522.586 77.5846 521.556 76.6983 518.575 75.3135C515.649 73.9657 511.803 71.6761 511.84 67.6141Z" fill="url(#paint13_linear_649_4058)"/>
<path d="M530.114 87.093L541.523 61.0773C542.333 59.2494 543.731 58.7324 545.572 58.7324H551.515L557.772 87.0746H550.614C550.614 87.0746 549.914 83.8249 549.675 82.8463H539.812C539.518 83.5849 538.193 87.0746 538.193 87.0746L530.114 87.093Z" fill="url(#paint14_linear_649_4058)"/>
<path d="M600.222 106.686L600.314 230.117C586.329 234.234 572.638 231.853 558.414 229.415C537.97 225.87 516.826 222.214 494.8 239.884C472.755 257.536 471.65 279.046 470.583 299.855C469.479 321.07 468.449 341.159 447.195 358.183C425.941 375.207 406.214 371.791 385.347 368.172C364.884 364.627 343.741 360.971 321.714 378.641C320.868 379.306 320.04 380.007 319.267 380.709L254.401 380.764C254.714 376.979 254.917 373.212 255.101 369.446C256.205 348.194 257.235 328.142 278.489 311.118C299.743 294.095 319.469 297.492 340.374 301.129C360.836 304.674 381.961 308.33 403.988 290.66C426.015 273.009 427.137 251.498 428.204 230.689C429.308 209.437 430.339 189.386 451.593 172.362C472.847 155.338 492.573 158.735 513.44 162.373C533.903 165.899 555.046 169.574 577.073 151.904C593.892 138.37 598.493 122.62 600.222 106.686Z" fill="url(#paint15_linear_649_4058)"/>
<path d="M600.316 232.368L600.39 344.407C600.408 364.329 584.307 380.485 564.47 380.504L322.71 380.67C322.82 380.559 322.949 380.467 323.096 380.356C344.35 363.332 364.095 366.73 384.981 370.367C405.443 373.912 426.568 377.568 448.595 359.898C470.622 342.247 471.744 320.736 472.812 299.927C473.916 278.675 474.946 258.623 496.2 241.6C517.454 224.576 537.18 227.973 558.048 231.611C571.812 233.974 585.889 236.43 600.316 232.368Z" fill="url(#paint16_linear_649_4058)"/>
<path d="M106.414 61.3687L106.432 94.2346C106.432 98.112 103.267 101.288 99.4212 101.288L54.1901 101.325C50.3073 101.325 47.1423 98.1489 47.1423 94.2899L47.1055 61.4241C47.1055 57.5282 50.2705 54.3709 54.1349 54.3709L99.3844 54.334C103.249 54.334 106.414 57.4729 106.414 61.3687Z" fill="#F6C859"/>
<path d="M69.9796 95.0416C69.7219 95.0416 69.4827 94.9124 69.3723 94.6723C69.2067 94.34 69.3355 93.9153 69.6667 93.7491C70.6604 93.2322 72.0037 92.272 72.795 90.6287C73.7887 88.5238 73.5311 86.2343 73.1078 86.0312C72.9974 85.9758 72.5926 86.1974 72.335 86.3266C71.6909 86.659 70.7892 87.1206 69.7587 86.7513C68.7467 86.4005 68.2498 85.4958 68.0106 85.0526C66.4465 82.1907 65.968 74.7682 67.6058 71.0754C68.1578 69.8568 68.8939 69.1182 69.814 68.8967C70.7524 68.6751 71.5253 69.0629 72.1325 69.3952C72.6294 69.6537 72.887 69.7645 73.0526 69.6722C73.6967 69.2844 73.6783 66.921 72.7766 65.0562C71.9853 63.3944 70.642 62.4343 69.6483 61.9358C69.3171 61.7696 69.1699 61.3449 69.3539 61.0126C69.5195 60.6802 69.9428 60.5325 70.274 60.7172C71.4517 61.3265 73.071 62.4712 74.0095 64.4838C74.948 66.4594 75.3896 69.8753 73.7519 70.8723C72.9238 71.3708 72.1325 70.9646 71.5069 70.6508C71.0285 70.4107 70.5684 70.1707 70.1268 70.2815C69.5195 70.4292 69.1147 71.1124 68.8571 71.6663C67.4217 74.8975 67.845 81.9138 69.2067 84.4249C69.4459 84.8495 69.7219 85.3111 70.2004 85.4773C70.6604 85.6435 71.1021 85.4404 71.7093 85.1265C72.3166 84.8126 72.979 84.4802 73.6967 84.8126C75.2424 85.5696 75.132 88.8747 74.0279 91.238C73.071 93.2506 71.4701 94.3954 70.2924 95.0047C70.182 95.0232 70.0716 95.0416 69.9796 95.0416Z" fill="#7D662D"/>
<path d="M67.9004 72.3156H55.5529C55.1665 72.3156 54.8721 72.0017 54.8721 71.6324C54.8721 71.2631 55.1665 70.9492 55.5345 70.9492H67.882C68.2684 70.9492 68.5628 71.2631 68.5628 71.6324C68.5813 72.0017 68.2868 72.3156 67.9004 72.3156Z" fill="#7D662D"/>
<path d="M67.9004 84.7218H55.5529C55.1665 84.7218 54.8721 84.4079 54.8721 84.0386C54.8721 83.6509 55.1849 83.3555 55.5529 83.3555H67.9004C68.2868 83.3555 68.5812 83.6694 68.5812 84.0386C68.5996 84.4079 68.2868 84.7218 67.9004 84.7218Z" fill="#7D662D"/>
<path d="M84.3883 95.0252C84.2779 95.0252 84.1675 95.0067 84.0755 94.9514C82.8978 94.342 81.2785 93.1973 80.34 91.1847C79.2175 88.8213 79.1255 85.5163 80.6528 84.7593C81.3705 84.4084 82.0513 84.7593 82.6402 85.0547C83.2658 85.3686 83.7075 85.5717 84.1491 85.4055C84.6644 85.2209 84.9588 84.6854 85.1428 84.3531C86.5045 81.842 86.9093 74.8072 85.474 71.5945C85.2164 71.0406 84.8116 70.3389 84.2043 70.2097C83.8363 70.1174 83.5971 69.7481 83.6891 69.3788C83.7811 69.0095 84.1491 68.788 84.5171 68.8618C85.4372 69.0834 86.1733 69.8035 86.7253 71.0221C88.3815 74.7149 87.903 82.1558 86.3389 84.9993C86.0997 85.4424 85.6028 86.3472 84.5907 86.698C83.5603 87.0673 82.6586 86.6057 82.0145 86.2733C81.7569 86.1441 81.3521 85.941 81.2417 85.9779C80.8368 86.181 80.5608 88.4705 81.5729 90.5754C82.3642 92.2372 83.7075 93.1973 84.7012 93.6958C85.0324 93.862 85.1796 94.2867 84.9956 94.619C84.8852 94.896 84.646 95.0252 84.3883 95.0252Z" fill="#7D662D"/>
<path d="M81.6285 69.5447C81.3341 69.5447 81.0765 69.36 80.9845 69.0831C79.5124 64.6517 82.9534 61.2359 84.0575 60.682C84.3888 60.4974 84.812 60.6451 84.9776 60.9774C85.1432 61.3098 85.0144 61.7344 84.6832 61.9006C84.1864 62.1591 81.0213 64.8733 82.2726 68.64C82.4014 69.0092 82.199 69.397 81.8309 69.5078C81.7757 69.5447 81.7021 69.5447 81.6285 69.5447Z" fill="#7D662D"/>
<path d="M98.7988 72.298H86.4514C86.0649 72.298 85.7705 71.9841 85.7705 71.6148C85.7705 71.2455 86.0833 70.9316 86.4514 70.9316H98.7988C99.1853 70.9316 99.4797 71.2455 99.4797 71.6148C99.4797 71.9841 99.1669 72.298 98.7988 72.298Z" fill="#7D662D"/>
<path d="M98.7988 84.6827H86.4514C86.0649 84.6827 85.7705 84.3688 85.7705 83.9996C85.7705 83.6118 86.0833 83.3164 86.4514 83.3164H98.7988C99.1853 83.3164 99.4797 83.6303 99.4797 83.9996C99.4797 84.3873 99.1853 84.6827 98.7988 84.6827Z" fill="#7D662D"/>
<path d="M551.673 59.3398H545.729C543.87 59.3398 542.472 59.8568 541.68 61.6848L530.271 87.7005H538.368C538.368 87.7005 539.711 84.2108 539.988 83.4722H549.851C550.09 84.4508 550.789 87.7005 550.789 87.7005H557.947L551.673 59.3398ZM542.196 77.6561C542.821 76.0312 545.214 69.6981 545.214 69.6981C545.214 69.6981 545.876 68.0364 546.262 67.0208L546.778 69.4581C546.778 69.4581 548.268 76.2159 548.563 77.6561H542.196Z" fill="white"/>
<path d="M520.004 67.2255C519.985 68.5364 521.66 69.4227 524.347 70.7336C528.781 72.7647 530.842 75.2019 530.787 78.4516C530.75 84.3416 525.487 88.1451 517.409 88.1451C513.95 88.1082 510.637 87.4066 508.834 86.6311L509.92 80.2795L510.895 80.7226C513.416 81.7751 515.072 82.2182 518.145 82.2182C520.353 82.2182 522.727 81.3504 522.764 79.4486C522.782 78.1931 521.752 77.3068 518.771 75.922C515.827 74.5741 511.962 72.3031 512.017 68.241C512.054 62.7388 517.428 58.8613 525.027 58.8613C528.008 58.8613 530.419 59.4891 531.928 60.0615L530.879 66.1915L530.18 65.8776C528.745 65.3052 526.923 64.7698 524.402 64.7883C521.402 64.7698 520.004 66.0438 520.004 67.2255Z" fill="white"/>
<path d="M508.796 59.3594L503.994 87.7015H496.302L497.24 82.1993L498.768 73.1519L501.086 59.3778L508.796 59.3594Z" fill="white"/>
<path d="M481.157 73.9652C478.581 67.4105 472.434 61.9637 463.142 59.7111L463.234 59.1387H475.176C476.796 59.2125 478.102 59.7111 478.544 61.4467L481.157 73.9652Z" fill="white"/>
<path d="M497.976 59.3926L485.849 87.6793H477.716L470.815 64.0455C475.765 67.2398 479.979 72.2989 481.47 75.807L482.28 78.7428L489.824 59.3926H497.976Z" fill="white"/>
<path d="M50.8398 282.304C48.9076 282.304 47.3067 281.658 46.037 280.384C44.7673 279.11 44.1416 277.522 44.1416 275.657C44.1416 273.792 44.7673 272.204 46.037 270.93C47.2883 269.638 48.8892 269.01 50.8398 269.01C52.0175 269.01 53.0848 269.287 54.0601 269.859C55.0353 270.413 55.8082 271.17 56.3603 272.13L54.8881 272.998C54.5201 272.296 53.968 271.724 53.2504 271.299C52.5327 270.875 51.7231 270.672 50.8398 270.672C49.3677 270.672 48.1531 271.152 47.2331 272.112C46.2946 273.072 45.8345 274.254 45.8345 275.694C45.8345 277.115 46.2946 278.297 47.2331 279.257C48.1715 280.217 49.3677 280.679 50.8398 280.679C51.7231 280.679 52.5143 280.476 53.2504 280.051C53.968 279.627 54.5201 279.073 54.8881 278.371L56.3787 279.22C55.845 280.18 55.0721 280.937 54.0969 281.51C53.0848 282.027 52.0175 282.304 50.8398 282.304Z" fill="white"/>
<path d="M65.6348 272.889H67.2173V282.065H65.6348V280.496C64.8435 281.714 63.6842 282.305 62.1753 282.324C60.8872 282.324 59.8015 281.862 58.8998 280.92C57.9981 279.979 57.5381 278.853 57.5381 277.505C57.5381 276.157 57.9797 275.012 58.8814 274.089C59.7831 273.147 60.8688 272.686 62.1569 272.686C63.6658 272.686 64.8251 273.295 65.6164 274.495V272.889H65.6348ZM62.3961 280.754C63.3162 280.754 64.089 280.44 64.7147 279.813C65.3404 279.185 65.6532 278.409 65.6532 277.468C65.6532 276.545 65.3404 275.769 64.7147 275.123C64.089 274.495 63.3162 274.181 62.3961 274.181C61.476 274.181 60.7216 274.495 60.0959 275.123C59.4703 275.751 59.1574 276.526 59.1574 277.468C59.1574 278.391 59.4703 279.166 60.0959 279.813C60.7032 280.44 61.476 280.754 62.3961 280.754Z" fill="white"/>
<path d="M71.23 274.425C71.7452 273.28 72.7021 272.727 74.0822 272.727V274.388C73.3094 274.351 72.6285 274.554 72.0765 275.016C71.5244 275.478 71.23 276.198 71.23 277.195V282.051H69.6475V272.874H71.23V274.425Z" fill="white"/>
<path d="M82.7121 269.217H84.313V282.068H82.7305V280.498C81.9392 281.717 80.7799 282.308 79.271 282.308C77.9829 282.308 76.8972 281.846 75.9955 280.904C75.0938 279.963 74.6338 278.837 74.6338 277.489C74.6338 276.141 75.0754 274.996 75.9771 274.073C76.8788 273.131 77.9645 272.67 79.2526 272.67C80.7615 272.67 81.9208 273.279 82.7121 274.479V269.217ZM79.4734 280.757C80.3935 280.757 81.1664 280.443 81.792 279.815C82.4177 279.187 82.7305 278.412 82.7305 277.47C82.7305 276.547 82.4177 275.753 81.792 275.125C81.1664 274.497 80.3935 274.184 79.4734 274.184C78.5533 274.184 77.7989 274.497 77.1732 275.125C76.5476 275.753 76.2347 276.529 76.2347 277.47C76.2347 278.393 76.5476 279.169 77.1732 279.815C77.7805 280.443 78.5533 280.757 79.4734 280.757Z" fill="white"/>
<path d="M99.3658 269.195H101.04V282.046H99.3658V276.267H93.1461V282.046H91.4531V269.195H93.1461V274.642H99.3658V269.195Z" fill="white"/>
<path d="M111.343 280.865C110.404 281.788 109.263 282.268 107.92 282.268C106.577 282.268 105.436 281.806 104.516 280.883C103.596 279.96 103.117 278.815 103.117 277.449C103.117 276.083 103.577 274.956 104.516 274.015C105.454 273.091 106.577 272.611 107.92 272.611C109.263 272.611 110.404 273.073 111.343 273.996C112.281 274.919 112.76 276.064 112.76 277.43C112.76 278.797 112.281 279.942 111.343 280.865ZM107.938 280.717C108.858 280.717 109.613 280.403 110.239 279.775C110.864 279.148 111.177 278.372 111.177 277.449C111.177 276.526 110.864 275.75 110.239 275.122C109.613 274.495 108.84 274.181 107.938 274.199C107.037 274.199 106.282 274.513 105.657 275.141C105.031 275.769 104.718 276.544 104.718 277.467C104.718 278.391 105.031 279.166 105.657 279.794C106.264 280.403 107.037 280.717 107.938 280.717Z" fill="white"/>
<path d="M114.638 282.029V268.643H116.22L116.239 282.029H114.638Z" fill="white"/>
<path d="M126.231 269.176H127.814V282.027H126.231V280.457C125.44 281.676 124.281 282.267 122.772 282.285C121.484 282.285 120.398 281.824 119.496 280.882C118.595 279.94 118.135 278.814 118.135 277.466C118.135 276.118 118.576 274.973 119.478 274.05C120.38 273.127 121.465 272.647 122.754 272.647C124.262 272.647 125.422 273.256 126.213 274.456L126.231 269.176ZM122.974 280.716C123.894 280.716 124.667 280.402 125.293 279.774C125.919 279.146 126.231 278.371 126.231 277.429C126.231 276.506 125.919 275.712 125.293 275.084C124.667 274.456 123.894 274.143 122.974 274.143C122.054 274.143 121.3 274.456 120.674 275.084C120.049 275.712 119.736 276.488 119.736 277.429C119.736 278.352 120.049 279.128 120.674 279.774C121.3 280.402 122.073 280.716 122.974 280.716Z" fill="white"/>
<path d="M131.347 278.152C131.512 278.965 131.881 279.611 132.469 280.054C133.058 280.497 133.794 280.737 134.659 280.737C135.874 280.737 136.739 280.294 137.291 279.389L138.652 280.165C137.769 281.55 136.426 282.233 134.622 282.233C133.169 282.233 131.991 281.771 131.089 280.867C130.188 279.962 129.728 278.799 129.728 277.414C129.728 276.029 130.169 274.884 131.052 273.961C131.936 273.038 133.095 272.576 134.512 272.576C135.855 272.576 136.941 273.056 137.787 273.998C138.634 274.94 139.057 276.084 139.057 277.414C139.057 277.654 139.039 277.875 139.002 278.134L131.347 278.152ZM134.512 274.109C133.665 274.109 132.948 274.349 132.396 274.829C131.844 275.309 131.494 275.955 131.347 276.768H137.456C137.327 275.9 136.978 275.235 136.426 274.792C135.874 274.33 135.248 274.109 134.512 274.109Z" fill="white"/>
<path d="M142.479 274.369C142.994 273.224 143.951 272.67 145.331 272.67V274.332C144.558 274.295 143.878 274.498 143.325 274.959C142.773 275.421 142.479 276.141 142.479 277.138V281.994H140.896V272.818H142.497V274.369H142.479Z" fill="white"/>
<path d="M156.004 272.594C157.071 272.594 157.936 272.926 158.58 273.609C159.224 274.292 159.556 275.216 159.556 276.379V282.01H157.955V276.471C157.955 275.733 157.752 275.142 157.347 274.736C156.943 274.329 156.39 274.126 155.691 274.126C154.9 274.126 154.256 274.385 153.777 274.865C153.281 275.363 153.041 276.12 153.041 277.154V282.01H151.44V272.834H153.023V274.163C153.704 273.111 154.679 272.594 156.004 272.594Z" fill="white"/>
<path d="M169.347 272.815H170.929V281.992H169.328V280.422C168.537 281.641 167.378 282.232 165.869 282.232C164.581 282.232 163.495 281.77 162.593 280.829C161.691 279.887 161.231 278.761 161.231 277.413C161.231 276.065 161.673 274.92 162.575 273.997C163.476 273.055 164.562 272.594 165.85 272.594C167.359 272.594 168.518 273.203 169.31 274.403L169.347 272.815ZM166.089 280.681C167.01 280.681 167.782 280.367 168.408 279.739C169.034 279.112 169.347 278.336 169.347 277.394C169.347 276.471 169.034 275.677 168.408 275.049C167.782 274.422 167.01 274.108 166.089 274.108C165.169 274.108 164.415 274.422 163.789 275.049C163.164 275.677 162.851 276.453 162.851 277.394C162.851 278.318 163.164 279.093 163.789 279.739C164.415 280.367 165.169 280.681 166.089 280.681Z" fill="white"/>
<path d="M183.22 272.557C184.25 272.557 185.078 272.889 185.704 273.554C186.33 274.218 186.661 275.123 186.661 276.268V281.973H185.078V276.323C185.078 275.622 184.894 275.068 184.526 274.68C184.158 274.292 183.68 274.089 183.072 274.089C182.392 274.089 181.84 274.329 181.435 274.772C181.03 275.234 180.827 275.936 180.827 276.877V281.973H179.227V276.323C179.227 275.622 179.061 275.068 178.711 274.68C178.362 274.292 177.883 274.089 177.294 274.089C176.632 274.089 176.061 274.329 175.62 274.791C175.178 275.252 174.957 275.954 174.957 276.877V281.973H173.356V272.797H174.939V274.034C175.565 273.055 176.466 272.557 177.662 272.557C178.895 272.557 179.797 273.074 180.349 274.108C180.975 273.092 181.932 272.575 183.22 272.557Z" fill="white"/>
<path d="M189.976 278.115C190.141 278.928 190.509 279.574 191.098 280.017C191.687 280.479 192.423 280.7 193.288 280.7C194.503 280.7 195.367 280.257 195.919 279.352L197.281 280.128C196.398 281.513 195.055 282.196 193.251 282.196C191.798 282.196 190.62 281.734 189.718 280.829C188.816 279.925 188.356 278.761 188.356 277.377C188.356 275.992 188.798 274.847 189.681 273.924C190.565 273.001 191.724 272.539 193.141 272.539C194.484 272.539 195.57 273.019 196.416 273.961C197.263 274.902 197.686 276.047 197.686 277.377C197.686 277.617 197.668 277.838 197.631 278.097L189.976 278.115ZM193.141 274.053C192.294 274.053 191.577 274.293 191.025 274.773C190.473 275.253 190.123 275.9 189.976 276.712H196.085C195.956 275.844 195.607 275.179 195.055 274.736C194.521 274.293 193.877 274.053 193.141 274.053Z" fill="white"/>
<path d="M439.353 280.184H445.297V281.79H437.66V268.939H445.205V270.564H439.353V274.516H444.745V276.103H439.353V280.184Z" fill="white"/>
<path d="M455.104 281.771H453.246L450.669 278.3L448.111 281.771H446.253L449.749 277.044L446.455 272.595H448.332L450.688 275.77L453.043 272.576H454.902L451.608 277.026L455.104 281.771Z" fill="white"/>
<path d="M461.639 272.373C462.927 272.373 464.013 272.835 464.914 273.776C465.816 274.718 466.276 275.863 466.276 277.192C466.276 278.54 465.834 279.685 464.933 280.608C464.031 281.55 462.945 282.011 461.657 282.011C460.148 282.011 458.989 281.402 458.198 280.202V285.446H456.615L456.597 272.595H458.198V274.164C458.97 272.964 460.13 272.373 461.639 272.373ZM461.436 280.479C462.356 280.479 463.111 280.165 463.737 279.537C464.362 278.909 464.675 278.134 464.675 277.192C464.675 276.269 464.362 275.475 463.737 274.847C463.111 274.219 462.338 273.906 461.436 273.906C460.516 273.906 459.743 274.219 459.118 274.847C458.492 275.475 458.179 276.25 458.179 277.192C458.179 278.115 458.492 278.891 459.118 279.537C459.743 280.165 460.516 280.479 461.436 280.479Z" fill="white"/>
<path d="M468.962 270.933C468.649 270.933 468.41 270.822 468.189 270.619C467.986 270.416 467.876 270.157 467.876 269.862C467.876 269.567 467.986 269.308 468.189 269.105C468.391 268.883 468.649 268.791 468.962 268.791C469.256 268.791 469.495 268.902 469.716 269.105C469.919 269.326 470.029 269.567 470.029 269.862C470.029 270.157 469.919 270.397 469.716 270.619C469.514 270.822 469.256 270.933 468.962 270.933ZM468.17 281.771V272.595H469.771V281.771H468.17Z" fill="white"/>
<path d="M473.764 274.128C474.279 272.984 475.236 272.43 476.616 272.43V274.091C475.844 274.055 475.163 274.258 474.611 274.719C474.059 275.181 473.764 275.901 473.764 276.898V281.754H472.182V272.577H473.783V274.128H473.764Z" fill="white"/>
<path d="M484.769 272.594H486.462L482.745 282.343C482.358 283.377 481.806 284.171 481.107 284.725C480.408 285.26 479.598 285.518 478.678 285.445V283.968C479.8 284.06 480.61 283.432 481.125 282.084L481.291 281.733L477.298 272.594H478.991L482.045 279.628L484.769 272.594Z" fill="white"/>
<path d="M497.521 268.9C499.269 268.9 500.704 269.528 501.864 270.765C503.023 272.002 503.593 273.516 503.593 275.326C503.593 277.117 503.023 278.649 501.864 279.886C500.704 281.124 499.269 281.751 497.521 281.751H492.534L492.516 268.9H497.521ZM497.521 280.126C498.827 280.126 499.895 279.665 500.723 278.742C501.551 277.818 501.956 276.674 501.956 275.307C501.956 273.941 501.532 272.796 500.704 271.873C499.876 270.95 498.809 270.507 497.502 270.507H494.209V280.126H497.521Z" fill="white"/>
<path d="M513.069 272.559H514.652V281.735H513.051V280.166C512.26 281.384 511.1 281.975 509.591 281.994C508.303 281.994 507.218 281.532 506.316 280.59C505.414 279.649 504.954 278.522 504.954 277.175C504.954 275.827 505.396 274.682 506.297 273.759C507.199 272.817 508.285 272.355 509.573 272.355C511.082 272.355 512.241 272.965 513.032 274.165L513.069 272.559ZM509.812 280.443C510.732 280.443 511.505 280.129 512.131 279.501C512.756 278.873 513.069 278.098 513.069 277.156C513.069 276.233 512.756 275.439 512.131 274.811C511.505 274.183 510.732 273.87 509.812 273.87C508.892 273.87 508.138 274.183 507.512 274.811C506.886 275.439 506.573 276.214 506.573 277.156C506.573 278.079 506.886 278.855 507.512 279.501C508.138 280.129 508.892 280.443 509.812 280.443Z" fill="white"/>
<path d="M522.031 274.105H519.602V279.072C519.602 279.533 519.694 279.847 519.859 280.032C520.043 280.216 520.301 280.327 520.669 280.327C521.037 280.327 521.479 280.327 522.031 280.29V281.73C520.632 281.915 519.62 281.804 518.976 281.398C518.332 280.992 518.001 280.216 518.001 279.072V274.105H516.197V272.572H518.001V270.486L519.583 270.006V272.572H522.012L522.031 274.105Z" fill="white"/>
<path d="M524.59 277.877C524.756 278.689 525.124 279.336 525.713 279.779C526.301 280.24 527.038 280.462 527.902 280.462C529.117 280.462 529.982 280.019 530.534 279.114L531.895 279.889C531.012 281.274 529.669 281.957 527.866 281.957C526.412 281.957 525.234 281.496 524.332 280.591C523.431 279.686 522.971 278.523 522.971 277.138C522.971 275.754 523.412 274.609 524.296 273.686C525.179 272.762 526.338 272.301 527.755 272.301C529.098 272.301 530.184 272.781 531.049 273.722C531.896 274.664 532.319 275.809 532.319 277.138C532.319 277.378 532.3 277.6 532.264 277.858L524.59 277.877ZM527.737 273.815C526.89 273.815 526.173 274.055 525.621 274.535C525.068 275.015 524.719 275.661 524.572 276.474H530.681C530.552 275.606 530.203 274.941 529.65 274.498C529.117 274.055 528.473 273.815 527.737 273.815Z" fill="white"/>
<path d="M471.454 322.222L470 322.259L481.17 297.037L482.624 297L471.454 322.222Z" fill="white"/>
<rect x="442" y="207" width="14" height="2" rx="1" fill="white"/>
<rect x="442" y="207" width="14" height="2" rx="1" fill="white"/>
<rect x="458" y="207" width="14" height="2" rx="1" fill="white"/>
<rect x="458" y="207" width="14" height="2" rx="1" fill="white"/>
<rect x="474" y="207" width="14" height="2" rx="1" fill="white"/>
<rect x="474" y="207" width="14" height="2" rx="1" fill="white"/>
<path d="M441.96 176C441.96 174.627 442.26 173.4 442.86 172.32C443.46 171.227 444.28 170.38 445.32 169.78C446.36 169.167 447.52 168.86 448.8 168.86C450.36 168.86 451.693 169.233 452.8 169.98C453.92 170.713 454.733 171.753 455.24 173.1H453.6C453.2 172.153 452.587 171.413 451.76 170.88C450.947 170.347 449.96 170.08 448.8 170.08C447.773 170.08 446.847 170.32 446.02 170.8C445.207 171.28 444.567 171.973 444.1 172.88C443.633 173.773 443.4 174.813 443.4 176C443.4 177.187 443.633 178.227 444.1 179.12C444.567 180.013 445.207 180.7 446.02 181.18C446.847 181.66 447.773 181.9 448.8 181.9C449.96 181.9 450.947 181.64 451.76 181.12C452.587 180.587 453.2 179.853 453.6 178.92H455.24C454.733 180.253 453.92 181.287 452.8 182.02C451.68 182.753 450.347 183.12 448.8 183.12C447.52 183.12 446.36 182.82 445.32 182.22C444.28 181.607 443.46 180.76 442.86 179.68C442.26 178.6 441.96 177.373 441.96 176ZM467.71 169.02L462.41 183H460.81L455.51 169.02H457.03L461.61 181.48L466.23 169.02H467.71ZM467.773 176C467.773 174.627 468.073 173.4 468.673 172.32C469.273 171.227 470.093 170.38 471.133 169.78C472.173 169.167 473.333 168.86 474.613 168.86C476.173 168.86 477.507 169.233 478.613 169.98C479.733 170.713 480.547 171.753 481.053 173.1H479.413C479.013 172.153 478.4 171.413 477.573 170.88C476.76 170.347 475.773 170.08 474.613 170.08C473.587 170.08 472.66 170.32 471.833 170.8C471.02 171.28 470.38 171.973 469.913 172.88C469.447 173.773 469.213 174.813 469.213 176C469.213 177.187 469.447 178.227 469.913 179.12C470.38 180.013 471.02 180.7 471.833 181.18C472.66 181.66 473.587 181.9 474.613 181.9C475.773 181.9 476.76 181.64 477.573 181.12C478.4 180.587 479.013 179.853 479.413 178.92H481.053C480.547 180.253 479.733 181.287 478.613 182.02C477.493 182.753 476.16 183.12 474.613 183.12C473.333 183.12 472.173 182.82 471.133 182.22C470.093 181.607 469.273 180.76 468.673 179.68C468.073 178.6 467.773 177.373 467.773 176Z" fill="white"/>
<defs>
<linearGradient id="paint0_linear_649_4058" x1="40.7723" y1="221.735" x2="106.366" y2="53.4059" gradientUnits="userSpaceOnUse">
<stop stop-color="#885DF5"/>
<stop offset="0.9944" stop-color="#6B7CFE"/>
</linearGradient>
<linearGradient id="paint1_linear_649_4058" x1="128.786" y1="373.729" x2="245.047" y2="75.3769" gradientUnits="userSpaceOnUse">
<stop stop-color="#885DF5"/>
<stop offset="0.9944" stop-color="#6B7CFE"/>
</linearGradient>
<linearGradient id="paint2_linear_649_4058" x1="470.524" y1="69.8537" x2="473.704" y2="61.6934" gradientUnits="userSpaceOnUse">
<stop stop-color="#885DF5"/>
<stop offset="0.9944" stop-color="#6B7CFE"/>
</linearGradient>
<linearGradient id="paint3_linear_649_4058" x1="474.082" y1="87.3656" x2="483.034" y2="64.3915" gradientUnits="userSpaceOnUse">
<stop stop-color="#885DF5"/>
<stop offset="0.9944" stop-color="#6B7CFE"/>
</linearGradient>
<linearGradient id="paint4_linear_649_4058" x1="514.61" y1="89.939" x2="523.411" y2="67.3518" gradientUnits="userSpaceOnUse">
<stop stop-color="#885DF5"/>
<stop offset="0.9944" stop-color="#6B7CFE"/>
</linearGradient>
<linearGradient id="paint5_linear_649_4058" x1="541.573" y1="93.2151" x2="550.654" y2="69.911" gradientUnits="userSpaceOnUse">
<stop stop-color="#885DF5"/>
<stop offset="0.9944" stop-color="#6B7CFE"/>
</linearGradient>
<linearGradient id="paint6_linear_649_4058" x1="250.137" y1="494.332" x2="394.84" y2="122.994" gradientUnits="userSpaceOnUse">
<stop stop-color="#885DF5"/>
<stop offset="0.9944" stop-color="#6B7CFE"/>
</linearGradient>
<linearGradient id="paint7_linear_649_4058" x1="0.0417933" y1="94.9048" x2="181.441" y2="94.7748" gradientUnits="userSpaceOnUse">
<stop stop-color="#4D338A"/>
<stop offset="0.9888" stop-color="#252857"/>
</linearGradient>
<linearGradient id="paint8_linear_649_4058" x1="0.0841748" y1="152.372" x2="427.954" y2="152.066" gradientUnits="userSpaceOnUse">
<stop stop-color="#6947BD"/>
<stop offset="0.9888" stop-color="#252857"/>
</linearGradient>
<linearGradient id="paint9_linear_649_4058" x1="0.110111" y1="190.661" x2="511.281" y2="190.295" gradientUnits="userSpaceOnUse">
<stop stop-color="#885DF5"/>
<stop offset="0.9888" stop-color="#2E3670"/>
</linearGradient>
<linearGradient id="paint10_linear_649_4058" x1="470.524" y1="69.8537" x2="473.704" y2="61.6934" gradientUnits="userSpaceOnUse">
<stop stop-color="#885DF5"/>
<stop offset="0.9944" stop-color="#6B7CFE"/>
</linearGradient>
<linearGradient id="paint11_linear_649_4058" x1="474.082" y1="87.3656" x2="483.034" y2="64.3915" gradientUnits="userSpaceOnUse">
<stop stop-color="#885DF5"/>
<stop offset="0.9944" stop-color="#6B7CFE"/>
</linearGradient>
<linearGradient id="paint12_linear_649_4058" x1="131.1" y1="190.567" x2="600.287" y2="190.23" gradientUnits="userSpaceOnUse">
<stop stop-color="#885DF5"/>
<stop offset="0.9944" stop-color="#4551A6"/>
</linearGradient>
<linearGradient id="paint13_linear_649_4058" x1="514.61" y1="89.939" x2="523.411" y2="67.3518" gradientUnits="userSpaceOnUse">
<stop stop-color="#885DF5"/>
<stop offset="0.9944" stop-color="#6B7CFE"/>
</linearGradient>
<linearGradient id="paint14_linear_649_4058" x1="541.573" y1="93.2151" x2="550.654" y2="69.911" gradientUnits="userSpaceOnUse">
<stop stop-color="#885DF5"/>
<stop offset="0.9944" stop-color="#6B7CFE"/>
</linearGradient>
<linearGradient id="paint15_linear_649_4058" x1="254.285" y1="243.831" x2="600.325" y2="243.583" gradientUnits="userSpaceOnUse">
<stop stop-color="#885DF5"/>
<stop offset="0.9944" stop-color="#5C6BDB"/>
</linearGradient>
<linearGradient id="paint16_linear_649_4058" x1="322.656" y1="304.743" x2="600.371" y2="304.544" gradientUnits="userSpaceOnUse">
<stop stop-color="#885DF5"/>
<stop offset="0.9944" stop-color="#6B7CFE"/>
</linearGradient>
</defs>
</svg>
