<svg width="418" height="98" viewBox="0 0 418 98" fill="none" xmlns="http://www.w3.org/2000/svg">
<path d="M94.5674 0.0224413C78.2779 2.19031 62.8002 8.43893 49.5715 18.1881C36.3428 27.9373 25.7919 40.8709 18.8985 55.7881L8.13886 79.5734C7.97977 79.9197 7.84739 80.281 7.64422 80.6034L0.629544 91.7375C0.0517758 92.6537 -0.13837 93.7619 0.100936 94.8183C0.340242 95.8747 0.989398 96.7927 1.9056 97.3705C2.82179 97.9482 3.92999 98.1384 4.98638 97.8991C6.04277 97.6598 6.96083 97.0106 7.5386 96.0944L25.9873 66.662C26.2891 66.2358 26.7429 65.9414 27.2551 65.8396C27.7674 65.7377 28.2992 65.836 28.7412 66.1142C29.1832 66.3925 29.5017 66.8296 29.6313 67.3355C29.7608 67.8415 29.6916 68.3778 29.4377 68.8343L24.5826 76.5477C24.4669 76.7306 24.4123 76.9456 24.4268 77.1615C24.4412 77.3775 24.524 77.5833 24.663 77.7492C24.8021 77.915 24.9903 78.0324 25.2004 78.0843C25.4106 78.1363 25.6318 78.1201 25.8321 78.0381L39.8707 72.2724C49.6961 68.3504 58.0428 61.4435 63.7339 52.5256C63.8545 52.3397 63.9113 52.1197 63.8958 51.8987C63.8804 51.6778 63.7934 51.4678 63.6482 51.3006L54.3503 40.4798C54.2233 40.3311 54.1415 40.1492 54.1146 39.9555C54.0876 39.7618 54.1166 39.5645 54.1982 39.3867C54.2798 39.209 54.4105 39.0583 54.5749 38.9525C54.7393 38.8466 54.9306 38.79 55.1262 38.7893H69.418C69.5927 38.7879 69.7631 38.7353 69.9082 38.638C70.0534 38.5408 70.1668 38.4032 70.2346 38.2422C72.2307 33.427 75.0633 29.0033 78.6015 25.1756L97.1849 5.1429C97.611 4.6826 97.8855 4.10256 97.9712 3.48119C98.057 2.85983 97.9499 2.22712 97.6644 1.6686C97.3789 1.11008 96.9288 0.652699 96.3749 0.358291C95.821 0.0638828 95.1901 -0.0533505 94.5674 0.0224413Z" fill="white"/>
<path d="M168.484 36.125H140.359L136.375 64.25H164.5L168.484 36.125ZM189.859 17.375L180.625 83H170.453L178.516 92.375H151.984L143.922 83H115L124.234 17.375H189.859Z" fill="white"/>
<path d="M194.547 17.375H213.297L206.688 64.25H234.812L241.422 17.375H260.172L250.938 83H185.312L194.547 17.375Z" fill="white"/>
<path d="M274.375 83H255.625L264.859 17.375H283.609L274.375 83Z" fill="white"/>
<path d="M300.438 64.25H347.312L344.688 83H279.062L288.297 17.375H307.047L300.438 64.25Z" fill="white"/>
<path d="M370.75 64.25H417.625L415 83H349.375L358.609 17.375H377.359L370.75 64.25Z" fill="white"/>
</svg>
