<svg width="516" height="516" viewBox="0 0 516 516" fill="none" xmlns="http://www.w3.org/2000/svg">
<path d="M497.926 0.11816C412.157 11.5327 330.662 44.4335 261.009 95.7659C191.356 147.098 135.802 215.198 99.5065 293.742L42.8536 418.978V418.978C42.0159 420.802 41.3189 422.704 40.2492 424.402L3.31474 483.026C0.272615 487.85 -0.72856 493.685 0.53146 499.247C1.79148 504.809 5.20948 509.643 10.0335 512.685C14.8576 515.727 20.6926 516.729 26.2548 515.469C31.817 514.209 36.6509 510.791 39.693 505.967L136.831 350.996C138.42 348.752 140.809 347.202 143.506 346.665C146.204 346.129 149.004 346.647 151.331 348.112C153.658 349.577 155.335 351.878 156.018 354.542C156.7 357.206 156.335 360.03 154.999 362.434L129.435 403.047C128.826 404.01 128.538 405.142 128.614 406.279C128.691 407.416 129.126 408.5 129.858 409.373C130.591 410.247 131.582 410.865 132.688 411.138C133.794 411.411 134.959 411.326 136.014 410.894L209.931 380.537C261.665 359.886 305.613 323.519 335.579 276.563C336.213 275.585 336.513 274.426 336.431 273.263C336.35 272.099 335.892 270.994 335.127 270.113L286.171 213.139C285.502 212.356 285.072 211.398 284.93 210.378C284.788 209.358 284.941 208.319 285.37 207.383C285.8 206.447 286.488 205.654 287.354 205.097C288.219 204.539 289.227 204.241 290.256 204.238H365.507C366.427 204.23 367.324 203.953 368.088 203.441C368.852 202.929 369.45 202.204 369.807 201.357C380.316 176.004 395.231 152.711 413.861 132.557L511.708 27.079C513.952 24.6553 515.397 21.6012 515.849 18.3295C516.3 15.0579 515.736 11.7264 514.233 8.78568C512.73 5.84492 510.36 3.43666 507.443 1.88651C504.527 0.336363 501.205 -0.280907 497.926 0.11816Z" fill="white"/>
</svg>
