<svg width="24" height="24" viewBox="0 0 24 24" fill="none" xmlns="http://www.w3.org/2000/svg">
<path d="M19.7072 10.7073C19.5122 10.9023 19.2562 11.0003 19.0002 11.0003C18.7442 11.0003 18.4882 10.9023 18.2933 10.7073L13.0002 5.41422V21.0003C13.0002 21.5533 12.5532 22.0003 12.0002 22.0003C11.4472 22.0003 11.0002 21.5533 11.0002 21.0003V5.41422L5.70719 10.7073C5.31619 11.0983 4.68425 11.0983 4.29325 10.7073C3.90225 10.3163 3.90225 9.68425 4.29325 9.29325L11.2933 2.29325C11.6842 1.90225 12.3162 1.90225 12.7072 2.29325L19.7072 9.29325C20.0982 9.68425 20.0982 10.3163 19.7072 10.7073Z" fill="black"/>
</svg>
