<svg width="24" height="24" viewBox="0 0 24 24" fill="none" xmlns="http://www.w3.org/2000/svg">
<path d="M22.0002 12.0003C22.0002 12.5533 21.5532 13.0003 21.0002 13.0003H5.41422L10.7072 18.2933C11.0982 18.6842 11.0982 19.3163 10.7072 19.7073C10.5122 19.9023 10.2562 20.0003 10.0002 20.0003C9.74422 20.0003 9.48825 19.9023 9.29325 19.7073L2.29325 12.7073C1.90225 12.3163 1.90225 11.6842 2.29325 11.2933L9.29325 4.29325C9.68425 3.90225 10.3162 3.90225 10.7072 4.29325C11.0982 4.68425 11.0982 5.31631 10.7072 5.70731L5.41422 11.0003H21.0002C21.5532 11.0003 22.0002 11.4473 22.0002 12.0003Z" fill="black"/>
</svg>
