<svg width="24" height="24" viewBox="0 0 24 24" fill="none" xmlns="http://www.w3.org/2000/svg">
<path d="M19.7072 14.707L12.7072 21.707C12.5122 21.902 12.2562 22 12.0002 22C11.7442 22 11.4883 21.902 11.2933 21.707L4.29325 14.707C3.90225 14.316 3.90225 13.684 4.29325 13.293C4.68425 12.902 5.31619 12.902 5.70719 13.293L11.0002 18.5861V3C11.0002 2.447 11.4472 2 12.0002 2C12.5532 2 13.0002 2.447 13.0002 3V18.5861L18.2933 13.293C18.6842 12.902 19.3162 12.902 19.7072 13.293C20.0982 13.684 20.0982 14.316 19.7072 14.707Z" fill="black"/>
</svg>
