<svg width="24" height="24" viewBox="0 0 24 24" fill="none" xmlns="http://www.w3.org/2000/svg">
<path d="M19.5667 13.6755C19.1957 13.0595 18.9998 12.3495 18.9998 11.6205V8.99048C18.9998 8.22848 18.8778 7.48651 18.6378 6.77551L20.7068 4.70654C21.0978 4.31554 21.0978 3.68348 20.7068 3.29248C20.3158 2.90148 19.6838 2.90148 19.2928 3.29248L5.29377 17.2915L5.29175 17.2935L3.29276 19.2925C2.90176 19.6835 2.90176 20.3155 3.29276 20.7065C3.48776 20.9015 3.74376 20.9995 3.99976 20.9995C4.25576 20.9995 4.51176 20.9015 4.70676 20.7065L6.41376 18.9995H8.99976C8.99976 20.6535 10.3458 21.9995 11.9998 21.9995C13.6538 21.9995 14.9998 20.6535 14.9998 18.9995H18.6998C19.5368 18.9995 20.2838 18.5645 20.6968 17.8375C21.1108 17.1075 21.1008 16.2395 20.6688 15.5165L19.5667 13.6755ZM11.9998 20.0005C11.4488 20.0005 10.9998 19.5525 10.9998 19.0005H12.9998C12.9998 19.5525 12.5508 20.0005 11.9998 20.0005ZM18.9568 16.8525C18.9178 16.9195 18.8428 17.0005 18.6998 17.0005H8.41376L16.9448 8.46948C16.9628 8.64348 16.9998 8.81348 16.9998 8.99048V11.6205C16.9998 12.7125 17.2948 13.7795 17.8518 14.7045L18.9518 16.5435C19.0318 16.6785 18.9898 16.7945 18.9568 16.8525ZM3.66076 14.9685L4.43076 13.6785C4.80376 13.0605 4.99976 12.3495 4.99976 11.6205V8.99048C4.99976 5.13648 8.13976 2.00049 11.9998 2.00049C13.5908 2.00049 15.0908 2.51753 16.3368 3.49353C16.7718 3.83453 16.8478 4.46346 16.5068 4.89746C16.1648 5.33246 15.5358 5.4075 15.1028 5.0675C14.2128 4.3695 13.1398 4.00049 11.9998 4.00049C9.24276 4.00049 6.99976 6.23848 6.99976 8.99048V11.6205C6.99976 12.7135 6.70476 13.7805 6.14576 14.7075L5.37775 15.9935C5.18975 16.3065 4.85777 16.4805 4.51777 16.4805C4.34377 16.4805 4.16676 16.4345 4.00576 16.3385C3.53276 16.0565 3.37776 15.4425 3.66076 14.9685Z" fill="black"/>
</svg>
