<svg width="24" height="24" viewBox="0 0 24 24" fill="none" xmlns="http://www.w3.org/2000/svg">
<path d="M15 2.00098H9C6.243 2.00098 4 4.24398 4 7.00098V19.999C4 20.745 4.41099 21.424 5.07199 21.77C5.73199 22.116 6.52501 22.0669 7.13901 21.6429L11.998 18.276L16.862 21.6429C17.204 21.8789 17.601 21.999 18 21.999C18.317 21.999 18.636 21.923 18.929 21.77C19.59 21.423 20 20.745 20 19.999V7.00098C20 4.24398 17.757 2.00098 15 2.00098ZM18 19.999L13.137 16.632C12.796 16.397 12.397 16.278 11.998 16.278C11.599 16.278 11.2 16.396 10.859 16.632L6 19.999V7.00098C6 5.34698 7.346 4.00098 9 4.00098H15C16.654 4.00098 18 5.34698 18 7.00098V19.999Z" fill="black"/>
</svg>
