<svg width="24" height="24" viewBox="0 0 24 24" fill="none" xmlns="http://www.w3.org/2000/svg">
<path d="M21.95 9.93097C21.147 5.94697 18.054 2.85311 14.069 2.05011C13.336 1.90211 12.574 2.09015 11.988 2.56915C11.404 3.04815 11.069 3.75414 11.069 4.50714V9.93097C11.069 11.585 12.415 12.931 14.069 12.931H19.493C20.247 12.931 20.953 12.596 21.431 12.012C21.909 11.428 22.099 10.669 21.95 9.93097ZM19.885 10.744C19.827 10.813 19.701 10.931 19.493 10.931H14.069C13.517 10.931 13.069 10.483 13.069 9.93097V4.50714C13.069 4.29914 13.186 4.17305 13.256 4.11505C13.313 4.06905 13.422 4.00006 13.572 4.00006C13.604 4.00006 13.638 4.00305 13.675 4.01105C16.867 4.65405 19.347 7.13301 19.989 10.325C20.03 10.528 19.941 10.675 19.885 10.744ZM20.577 15.2911C19.354 19.3041 15.706 22.0001 11.5 22.0001C6.262 22.0001 2 17.7381 2 12.5001C2 8.29406 4.69598 4.64616 8.70898 3.42316C9.23798 3.26316 9.79597 3.56117 9.95697 4.08917C10.117 4.61717 9.81902 5.17598 9.29102 5.33698C6.12702 6.30098 4 9.18006 4 12.5001C4 16.6361 7.364 20.0001 11.5 20.0001C14.82 20.0001 17.699 17.873 18.663 14.709C18.825 14.18 19.385 13.885 19.911 14.043C20.439 14.204 20.737 14.7631 20.577 15.2911Z" fill="black"/>
</svg>
