<svg width="24" height="24" viewBox="0 0 24 24" fill="none" xmlns="http://www.w3.org/2000/svg">
<path d="M12 2C6.486 2 2 6.486 2 12C2 17.514 6.486 22 12 22C17.514 22 22 17.514 22 12C22 6.486 17.514 2 12 2ZM12 20C7.589 20 4 16.411 4 12C4 7.589 7.589 4 12 4C16.411 4 20 7.589 20 12C20 16.411 16.411 20 12 20ZM14.707 11.293C15.098 11.684 15.098 12.316 14.707 12.707L11.707 15.707C11.512 15.902 11.256 16 11 16C10.744 16 10.488 15.902 10.293 15.707C9.90203 15.316 9.90203 14.684 10.293 14.293L12.586 12L10.293 9.70703C9.90203 9.31603 9.90203 8.68397 10.293 8.29297C10.684 7.90197 11.316 7.90197 11.707 8.29297L14.707 11.293Z" fill="black"/>
</svg>
