<svg width="24" height="24" viewBox="0 0 24 24" fill="none" xmlns="http://www.w3.org/2000/svg">
<path d="M13.707 9.70703L11.414 12L13.707 14.293C14.098 14.684 14.098 15.316 13.707 15.707C13.512 15.902 13.256 16 13 16C12.744 16 12.488 15.902 12.293 15.707L9.29303 12.707C8.90203 12.316 8.90203 11.684 9.29303 11.293L12.293 8.29297C12.684 7.90197 13.316 7.90197 13.707 8.29297C14.098 8.68397 14.098 9.31603 13.707 9.70703ZM22 12C22 17.514 17.514 22 12 22C6.486 22 2 17.514 2 12C2 6.486 6.486 2 12 2C17.514 2 22 6.486 22 12ZM20 12C20 7.589 16.411 4 12 4C7.589 4 4 7.589 4 12C4 16.411 7.589 20 12 20C16.411 20 20 16.411 20 12Z" fill="black"/>
</svg>
