<svg width="24" height="24" viewBox="0 0 24 24" fill="none" xmlns="http://www.w3.org/2000/svg">
<path d="M12 2C6.486 2 2 6.486 2 12C2 17.514 6.486 22 12 22C17.514 22 22 17.514 22 12C22 6.486 17.514 2 12 2ZM12 20C7.589 20 4 16.411 4 12C4 7.589 7.589 4 12 4C16.411 4 20 7.589 20 12C20 16.411 16.411 20 12 20ZM15.141 6.43506L11.086 7.44897C9.291 7.89697 7.898 9.29204 7.448 11.087L6.43399 15.1421C6.26199 15.8301 6.459 16.54 6.961 17.042C7.343 17.423 7.846 17.6279 8.367 17.6279C8.531 17.6279 8.69599 17.6079 8.85999 17.5659L12.915 16.552C14.71 16.104 16.103 14.7089 16.553 12.9139L17.567 8.85901C17.739 8.17101 17.542 7.46098 17.04 6.95898C16.538 6.45898 15.828 6.26306 15.141 6.43506ZM15.625 8.375L14.611 12.429C14.341 13.506 13.506 14.343 12.428 14.613L8.37299 15.626L9.38699 11.572C9.65699 10.495 10.492 9.65794 11.57 9.38794L15.625 8.375ZM12 10.5C12.828 10.5 13.5 11.172 13.5 12C13.5 12.828 12.828 13.5 12 13.5C11.172 13.5 10.5 12.828 10.5 12C10.5 11.172 11.172 10.5 12 10.5Z" fill="black"/>
</svg>
