<svg width="24" height="24" viewBox="0 0 24 24" fill="none" xmlns="http://www.w3.org/2000/svg">
<path d="M20.972 9.52144L20.393 8.94218C20.203 8.75213 20.098 8.49917 20.098 8.2291V7.4148C20.098 5.47828 18.523 3.90385 16.588 3.90385H15.773C15.504 3.90385 15.251 3.79992 15.06 3.60787L14.481 3.02971C13.113 1.66034 10.885 1.66034 9.51703 3.02971L8.93799 3.60787C8.74799 3.79892 8.49501 3.90385 8.22601 3.90385H7.41199C5.47599 3.90385 3.90198 5.47828 3.90198 7.4148V8.2291C3.90198 8.49917 3.79699 8.75113 3.60699 8.94218L3.02899 9.52144C2.36499 10.1836 2 11.0658 2 12.0031C2 12.9403 2.36502 13.8225 3.02802 14.4847L3.60699 15.0639C3.79699 15.254 3.90198 15.5069 3.90198 15.777V16.5913C3.90198 18.5278 5.47699 20.1023 7.41199 20.1023H8.22601C8.49501 20.1023 8.74803 20.2062 8.93903 20.3983L9.51801 20.9764C10.202 21.6616 11.101 22.0027 12 22.0027C12.899 22.0027 13.798 21.6606 14.482 20.9764L15.061 20.3983C15.251 20.2072 15.504 20.1023 15.773 20.1023H16.588C18.523 20.1023 20.098 18.5278 20.098 16.5913V15.777C20.098 15.5069 20.203 15.255 20.393 15.0639L20.972 14.4847C21.635 13.8215 22 12.9403 22 12.0031C22 11.0658 21.635 10.1836 20.972 9.52144ZM19.558 13.0704L18.978 13.6495C18.41 14.2176 18.098 14.9738 18.098 15.777V16.5913C18.098 17.4235 17.421 18.1017 16.588 18.1017H15.773C14.969 18.1017 14.214 18.4148 13.646 18.9839L13.067 19.5621C12.478 20.1502 11.52 20.1502 10.931 19.5621L10.353 18.9839C9.78503 18.4158 9.02901 18.1017 8.22601 18.1017H7.41199C6.57899 18.1017 5.90198 17.4235 5.90198 16.5913V15.777C5.90198 14.9738 5.58997 14.2176 5.02197 13.6495L4.44202 13.0704C4.15702 12.7853 4 12.4062 4 12.0031C4 11.6 4.15699 11.2208 4.44299 10.9358L5.02197 10.3566C5.58997 9.78847 5.90198 9.03232 5.90198 8.2291V7.4148C5.90198 6.58257 6.57999 5.90438 7.41199 5.90438H8.22601C9.03001 5.90438 9.78503 5.59134 10.353 5.02219L10.932 4.44403C11.521 3.85587 12.479 3.85587 13.068 4.44403L13.646 5.02219C14.214 5.59034 14.97 5.90438 15.773 5.90438H16.588C17.421 5.90438 18.098 6.58257 18.098 7.4148V8.2291C18.098 9.03232 18.41 9.78847 18.978 10.3566L19.558 10.9358C19.843 11.2208 20 11.6 20 12.0031C20 12.4062 19.843 12.7853 19.558 13.0704ZM15.707 8.29504C16.098 8.68614 16.098 9.31837 15.707 9.70948L9.70697 15.7111C9.51197 15.9061 9.256 16.0041 9 16.0041C8.744 16.0041 8.48803 15.9061 8.29303 15.7111C7.90203 15.32 7.90203 14.6877 8.29303 14.2966L14.293 8.29504C14.684 7.90393 15.316 7.90393 15.707 8.29504ZM16 14.5037C16 15.332 15.328 16.0041 14.5 16.0041C13.672 16.0041 13 15.332 13 14.5037C13 13.6755 13.672 13.0033 14.5 13.0033C15.328 13.0033 16 13.6755 16 14.5037ZM8 9.50239C8 8.67417 8.672 8.00199 9.5 8.00199C10.328 8.00199 11 8.67417 11 9.50239C11 10.3306 10.328 11.0028 9.5 11.0028C8.672 11.0028 8 10.3306 8 9.50239Z" fill="black"/>
</svg>
