<svg width="24" height="24" viewBox="0 0 24 24" fill="none" xmlns="http://www.w3.org/2000/svg">
<path d="M8.29303 8.70703C7.90203 8.31603 7.90203 7.68397 8.29303 7.29297C8.68403 6.90197 9.31597 6.90197 9.70697 7.29297L11 8.58606V4C11 3.447 11.448 3 12 3C12.552 3 13 3.447 13 4V8.58606L14.293 7.29297C14.684 6.90197 15.316 6.90197 15.707 7.29297C16.098 7.68397 16.098 8.31603 15.707 8.70703L12.707 11.707C12.512 11.902 12.256 12 12 12C11.744 12 11.488 11.902 11.293 11.707L8.29303 8.70703ZM17 10C16.448 10 16 10.447 16 11C16 11.553 16.448 12 17 12C18.654 12 20 13.346 20 15V16C20 17.654 18.654 19 17 19H7C5.346 19 4 17.654 4 16V15C4 13.346 5.346 12 7 12C7.552 12 8 11.553 8 11C8 10.447 7.552 10 7 10C4.243 10 2 12.243 2 15V16C2 18.757 4.243 21 7 21H17C19.757 21 22 18.757 22 16V15C22 12.243 19.757 10 17 10ZM18 15C18 14.448 17.552 14 17 14C16.448 14 16 14.448 16 15C16 15.552 16.448 16 17 16C17.552 16 18 15.552 18 15Z" fill="black"/>
</svg>
