<svg width="24" height="24" viewBox="0 0 24 24" fill="none" xmlns="http://www.w3.org/2000/svg">
<path d="M21.4448 9.98624C20.8878 9.05824 19.9808 7.81322 18.7268 6.68522L20.7048 4.70731C21.0958 4.31731 21.0958 3.68425 20.7048 3.29325C20.3138 2.90225 19.6818 2.90225 19.2908 3.29325L8.82782 13.7563L8.8258 13.7582L3.2908 19.2932C2.8998 19.6842 2.8998 20.3163 3.2908 20.7073C3.4858 20.9023 3.7418 21.0003 3.9978 21.0003C4.2538 21.0003 4.5098 20.9023 4.7048 20.7073L6.87183 18.5402C8.45083 19.5092 10.1718 20.0003 11.9998 20.0003C17.0688 20.0003 20.0918 16.2522 21.4458 14.0142C22.1878 12.7722 22.1878 11.2302 21.4448 9.98624ZM14.4978 12.0013C14.4978 13.3803 13.3758 14.5013 11.9978 14.5013C11.6798 14.5013 11.3728 14.4382 11.0868 14.3262L14.3218 11.0912C14.4348 11.3762 14.4978 11.6833 14.4978 12.0013ZM19.7308 12.9833C18.5978 14.8573 16.0868 18.0013 11.9998 18.0013C10.7098 18.0013 9.48482 17.6843 8.34082 17.0723L9.61081 15.8023C10.3178 16.2513 11.1348 16.5013 11.9978 16.5013C14.4788 16.5013 16.4978 14.4823 16.4978 12.0013C16.4978 11.1383 16.2478 10.3213 15.7988 9.6143L17.3108 8.10221C18.4248 9.08221 19.2368 10.1912 19.7298 11.0142C20.0878 11.6132 20.0878 12.3893 19.7308 12.9833ZM3.9378 15.9462C3.4298 15.3432 2.96482 14.6952 2.55582 14.0172C1.81182 12.7722 1.8118 11.2293 2.5538 9.98832C3.9078 7.74932 6.92982 4.00126 11.9998 4.00126C12.9778 4.00126 13.9248 4.14226 14.8958 4.43326C15.4248 4.59126 15.7258 5.14928 15.5668 5.67728C15.4078 6.20628 14.8518 6.50728 14.3218 6.34928C13.5398 6.11528 12.7798 6.00126 11.9988 6.00126C7.91081 6.00126 5.39982 9.1452 4.26782 11.0192C3.91182 11.6142 3.91181 12.3893 4.26981 12.9893C4.62281 13.5733 5.02481 14.1353 5.46481 14.6563C5.82081 15.0793 5.76782 15.7102 5.34582 16.0652C5.15782 16.2242 4.9288 16.3013 4.7008 16.3013C4.4178 16.3013 4.1358 16.1802 3.9378 15.9462ZM11.2948 7.56327C11.8378 7.48627 12.3518 7.85323 12.4358 8.39823C12.5198 8.94423 12.1458 9.4562 11.6008 9.5402C10.5478 9.7032 9.69883 10.5523 9.53583 11.6043C9.45983 12.0983 9.03383 12.4523 8.54883 12.4523C8.49783 12.4523 8.44681 12.4482 8.3948 12.4402C7.8488 12.3562 7.47481 11.8452 7.55881 11.2992C7.85781 9.36323 9.35883 7.86227 11.2948 7.56327Z" fill="black"/>
</svg>
