<svg width="24" height="24" viewBox="0 0 24 24" fill="none" xmlns="http://www.w3.org/2000/svg">
<path d="M18.5 2H5.5C4.122 2 3 3.121 3 4.5V6.58606C3 7.11206 3.213 7.628 3.586 8L8.707 13.121C8.893 13.308 9 13.565 9 13.828V21C9 21.379 9.21401 21.725 9.55301 21.895C9.69501 21.965 9.848 22 10 22C10.212 22 10.423 21.933 10.6 21.8L14.6 18.8C14.852 18.612 15 18.315 15 18V13.828C15 13.565 15.107 13.307 15.293 13.121L20.414 8C20.787 7.628 21 7.11206 21 6.58606V4.5C21 3.121 19.878 2 18.5 2ZM5.5 4H18.5C18.776 4 19 4.225 19 4.5V6H5V4.5C5 4.225 5.224 4 5.5 4ZM13.879 11.707C13.312 12.273 13 13.027 13 13.828V17.5L11 19V13.828C11 13.027 10.688 12.273 10.121 11.707L6.414 8H17.586L13.879 11.707Z" fill="black"/>
</svg>
