<svg width="24" height="24" viewBox="0 0 24 24" fill="none" xmlns="http://www.w3.org/2000/svg">
<path d="M17 6H12.803C12.636 6 12.48 5.91698 12.387 5.77698L11.277 4.11304C10.812 3.41604 10.035 3 9.19699 3H7C4.243 3 2 5.243 2 8V15C2 17.757 4.243 20 7 20H17C19.757 20 22 17.757 22 15V11C22 8.243 19.757 6 17 6ZM20 15C20 16.654 18.654 18 17 18H7C5.346 18 4 16.654 4 15V8C4 6.346 5.346 5 7 5H9.19699C9.36399 5 9.52001 5.08302 9.61301 5.22302L10.723 6.88696C11.188 7.58396 11.965 8 12.803 8H17C18.654 8 20 9.346 20 11V15Z" fill="black"/>
</svg>
