<svg width="24" height="24" viewBox="0 0 24 24" fill="none" xmlns="http://www.w3.org/2000/svg">
<path d="M21.424 8.66823C20.19 5.14723 17.128 2.62926 13.431 2.09926C12.497 1.96626 11.505 1.96626 10.568 2.09926C6.87299 2.62926 3.81102 5.1473 2.58002 8.6603C2.19502 9.7243 2 10.8483 2 12.0003C2 13.1523 2.19499 14.2753 2.57599 15.3313C3.80999 18.8523 6.87197 21.3703 10.569 21.9003C11.036 21.9663 11.517 22.0003 12 22.0003C12.483 22.0003 12.964 21.9673 13.432 21.9003C17.127 21.3703 20.189 18.8523 21.42 15.3393C21.805 14.2753 22 13.1513 22 11.9993C22 10.8473 21.805 9.72423 21.424 8.66823ZM20 11.9993C20 12.6823 19.914 13.3513 19.743 14.0003H16.865C16.945 13.3363 17 12.6693 17 11.9993C17 11.3293 16.945 10.6623 16.865 10.0003H19.744C19.914 10.6463 20 11.3153 20 11.9993ZM9.15399 14.0003C9.06299 13.3383 9 12.6703 9 11.9993C9 11.3313 9.06199 10.6643 9.15399 10.0003H14.847C14.938 10.6623 15.001 11.3293 15.001 11.9993C15.001 12.6683 14.939 13.3353 14.847 14.0003H9.15399ZM4.25598 14.0003C4.08598 13.3533 4 12.6833 4 11.9993C4 11.3173 4.08598 10.6483 4.25598 10.0003H7.13501C7.05501 10.6633 7 11.3303 7 11.9993C7 12.6703 7.05501 13.3383 7.13501 14.0003H4.25598ZM18.909 8.00026H16.498C16.23 6.86926 15.847 5.77927 15.351 4.73427C16.845 5.42027 18.083 6.55926 18.909 8.00026ZM12.702 4.04824C13.479 5.28124 14.065 6.60126 14.445 8.00026H9.55499C9.93399 6.60526 10.52 5.28324 11.298 4.04824C11.532 4.02824 11.763 3.99929 12 3.99929C12.238 3.99929 12.469 4.02824 12.702 4.04824ZM8.64899 4.73329C8.15199 5.78029 7.76898 6.87126 7.50098 8.00026H5.08899C5.91499 6.56026 7.15399 5.4203 8.64899 4.73329ZM5.09198 16.0003H7.50201C7.77001 17.1303 8.15299 18.2203 8.64899 19.2643C7.15599 18.5793 5.91898 17.4403 5.09198 16.0003ZM11.297 19.9503C10.521 18.7173 9.93499 17.3973 9.55499 16.0003H14.444C14.065 17.3953 13.479 18.7163 12.702 19.9503C12.234 19.9893 11.764 19.9893 11.297 19.9503ZM15.352 19.2653C15.848 18.2193 16.231 17.1293 16.499 16.0003H18.91C18.084 17.4393 16.846 18.5783 15.352 19.2653Z" fill="black"/>
</svg>
