<svg width="24" height="24" viewBox="0 0 24 24" fill="none" xmlns="http://www.w3.org/2000/svg">
<path d="M20.3033 4.43799C19.0083 2.86599 17.2063 2 15.2283 2C14.0883 2 12.9853 2.26702 12.0003 2.77502C11.0163 2.26702 9.91231 2 8.77231 2C6.79431 2 4.9923 2.86599 3.6973 4.43799C2.2943 6.14099 1.71232 8.46596 2.13932 10.658C3.13332 15.753 8.29132 19.294 10.4633 20.58C10.9373 20.859 11.4683 21 11.9993 21C12.5303 21 13.0623 20.859 13.5363 20.579C15.7083 19.294 20.8663 15.753 21.8603 10.658C22.2883 8.46596 21.7063 6.14099 20.3033 4.43799ZM19.8973 10.274C19.0583 14.574 14.4573 17.7091 12.5183 18.8571C12.1993 19.0451 11.8013 19.0451 11.4823 18.8571C9.54331 17.7091 4.94131 14.574 4.10331 10.274C3.78931 8.66305 4.21431 6.95598 5.24231 5.70898C6.15031 4.60598 7.40432 4 8.77332 4C9.74332 4 10.6733 4.267 11.4623 4.771C11.7903 4.98 12.2103 4.98 12.5383 4.771C13.3283 4.267 14.2573 4 15.2273 4C16.5973 4 17.8513 4.60598 18.7583 5.70898C19.7863 6.95598 20.2123 8.66305 19.8973 10.274Z" fill="black"/>
</svg>
