<svg width="24" height="24" viewBox="0 0 24 24" fill="none" xmlns="http://www.w3.org/2000/svg">
<path d="M20.135 7.11988L15.135 3.09935C13.319 1.63876 10.682 1.63876 8.86501 3.09935L3.86501 7.11988C2.68001 8.07326 2 9.49292 2 11.0135V17.0079C2 19.763 4.243 22.0039 7 22.0039H10V17.0069C10 15.9055 10.897 15.0111 12 15.0111C13.103 15.0111 14 15.9065 14 17.0069V22.0039H17C19.757 22.0039 22 19.763 22 17.0079V11.0135C22 9.49292 21.32 8.07326 20.135 7.11988ZM20 17.0079C20 18.6595 18.654 20.0031 17 20.0031H16V17.0069C16 14.803 14.206 13.0103 12 13.0103C9.794 13.0103 8 14.803 8 17.0069V20.0031H7C5.346 20.0031 4 18.6595 4 17.0079V11.0135C4 10.1022 4.408 9.25082 5.118 8.67959L10.118 4.65893C11.209 3.78258 12.792 3.78258 13.882 4.65893L18.882 8.67959C19.593 9.25082 20.001 10.1022 20.001 11.0135V17.0079H20Z" fill="black"/>
</svg>
