<svg width="24" height="24" viewBox="0 0 24 24" fill="none" xmlns="http://www.w3.org/2000/svg">
<path d="M20.5551 10.4675L18.7151 12.3075C18.3239 12.6985 17.6915 12.6985 17.3003 12.3075C16.9091 11.9165 16.9091 11.2844 17.3003 10.8934L19.1403 9.05347C20.294 7.89947 20.294 6.02243 19.1403 4.86743C18.0217 3.74843 16.0716 3.74843 14.954 4.86743L11.5931 8.22644C11.475 8.34444 11.3849 8.45248 11.3259 8.54248C10.4274 9.76648 10.5545 11.3735 11.5941 12.4125C11.9843 12.8035 11.9843 13.4365 11.5941 13.8265C11.3989 14.0215 11.1428 14.1194 10.8867 14.1194C10.6305 14.1194 10.3744 14.0215 10.1783 13.8265C8.43528 12.0835 8.22618 9.38349 9.68 7.40649C9.78306 7.24549 9.95611 7.0345 10.1772 6.8125L13.5392 3.45251C14.4757 2.51551 15.7224 1.99951 17.0472 1.99951C18.3719 1.99951 19.6186 2.51651 20.5562 3.45251C22.4893 5.38751 22.4892 8.53353 20.5551 10.4675ZM12.4186 10.1735C12.0273 10.5645 12.0273 11.1965 12.4186 11.5875C13.236 12.4045 13.5032 13.5835 13.1069 14.6855C12.9759 15.0785 12.7377 15.4554 12.4186 15.7744L9.05764 19.1335C7.94 20.2525 5.98987 20.2525 4.87124 19.1335C3.71758 17.9795 3.71758 16.1025 4.87124 14.9475L6.71127 13.1075C7.1025 12.7165 7.1025 12.0845 6.71127 11.6935C6.32005 11.3025 5.68769 11.3025 5.29647 11.6935L3.45643 13.5334C1.52233 15.4674 1.52233 18.6136 3.45643 20.5476C4.39397 21.4846 5.63969 22.0005 6.96545 22.0005C8.2912 22.0005 9.53689 21.4836 10.4734 20.5476L13.8343 17.1885C14.3726 16.6495 14.7779 16.0026 14.998 15.3396C15.6414 13.5516 15.1851 11.5245 13.8334 10.1735C13.4431 9.78246 12.8088 9.78246 12.4186 10.1735Z" fill="black"/>
</svg>
