<svg width="24" height="24" viewBox="0 0 24 24" fill="none" xmlns="http://www.w3.org/2000/svg">
<path d="M20.5435 3.46008C19.6555 2.91908 18.5735 2.878 17.6495 3.354L15.4385 4.48901C15.1605 4.63201 14.8405 4.63201 14.5625 4.48901L10.3515 2.32703C9.93453 2.11303 9.47753 2.00703 9.01953 2.00403C9.01253 2.00403 9.00752 2 9.00052 2C8.99352 2 8.98854 2.00403 8.98154 2.00403C8.52354 2.00703 8.06653 2.11303 7.64853 2.32703L4.20154 4.09802C2.84354 4.79502 1.99951 6.19204 1.99951 7.74304V17.9199C1.99951 19.0029 2.54452 19.982 3.45752 20.54C4.34552 21.081 5.42653 21.122 6.35153 20.646L8.56253 19.511C8.84053 19.368 9.16054 19.368 9.43854 19.511L13.6495 21.6731C14.0685 21.8881 14.5285 21.996 14.9885 21.998C14.9925 21.998 14.9965 22 15.0005 22C15.0045 22 15.0085 21.998 15.0125 21.998C15.4725 21.996 15.9325 21.8881 16.3515 21.6731L19.7985 19.9021C21.1565 19.2051 22.0005 17.8081 22.0005 16.2571V6.08008C22.0015 4.99708 21.4565 4.01808 20.5435 3.46008ZM5.43951 18.865C5.00651 19.087 4.63953 18.9151 4.50153 18.8311C4.18953 18.6401 4.00153 18.299 4.00153 17.918V7.74097C4.00153 6.94297 4.42852 6.22798 5.11652 5.87598L8.00153 4.39404V17.6001C7.88453 17.6421 7.76251 17.672 7.65051 17.73L5.43951 18.865ZM10.3525 17.73C10.2405 17.672 10.1185 17.6431 10.0015 17.6001V4.39307L13.6505 6.26697C13.7625 6.32497 13.8845 6.35397 14.0015 6.39697V19.604L10.3525 17.73ZM20.0015 16.2571C20.0015 17.0551 19.5745 17.7701 18.8865 18.1221L16.0015 19.604V6.39697C16.1185 6.35497 16.2405 6.32497 16.3525 6.26697L18.5635 5.13208C18.9955 4.90908 19.3635 5.08202 19.5015 5.16602C19.8135 5.35702 20.0015 5.69798 20.0015 6.07898V16.2571Z" fill="black"/>
</svg>
