<svg width="25" height="24" viewBox="0 0 25 24" fill="none" xmlns="http://www.w3.org/2000/svg">
<path d="M12.5002 16C15.2572 16 17.5002 13.757 17.5002 11V8.41406L21.2072 4.70703C21.5982 4.31603 21.5982 3.68397 21.2072 3.29297C20.8162 2.90197 20.1842 2.90197 19.7932 3.29297L15.7942 7.29199L15.7922 7.29395L3.79325 19.293C3.40225 19.684 3.40225 20.316 3.79325 20.707C3.98825 20.902 4.24422 21 4.50022 21C4.75622 21 5.01219 20.902 5.20719 20.707L8.18723 17.7271C9.18423 18.3691 10.3172 18.7799 11.5002 18.9299V20H8.50022C7.94822 20 7.50022 20.447 7.50022 21C7.50022 21.553 7.94822 22 8.50022 22H16.5002C17.0522 22 17.5002 21.553 17.5002 21C17.5002 20.447 17.0522 20 16.5002 20H13.5002V18.9309C17.4402 18.4359 20.5002 15.072 20.5002 11C20.5002 10.447 20.0522 10 19.5002 10C18.9482 10 18.5002 10.447 18.5002 11C18.5002 14.309 15.8092 17 12.5002 17C11.4952 17 10.5142 16.7401 9.64622 16.2681L10.3912 15.5229C11.0522 15.8329 11.7672 16 12.5002 16ZM15.5002 11C15.5002 12.654 14.1542 14 12.5002 14C12.3202 14 12.1432 13.979 11.9682 13.946L15.5002 10.4141V11ZM7.62119 12.104C7.54019 11.71 7.50022 11.35 7.50022 11V7C7.50022 5.677 8.01823 4.42202 8.95823 3.46802C9.92223 2.51802 11.1762 2 12.5002 2C14.1372 2 15.6702 2.8039 16.6022 4.1499C16.9162 4.6039 16.8032 5.22699 16.3492 5.54199C15.8952 5.85499 15.2722 5.74206 14.9582 5.28906C14.3992 4.48106 13.4812 4 12.5002 4C11.7052 4 10.9492 4.31308 10.3722 4.88208C9.81323 5.44908 9.50022 6.205 9.50022 7V11C9.50022 11.212 9.5262 11.439 9.5792 11.697C9.6912 12.238 9.3442 12.7669 8.8032 12.8799C8.7352 12.8939 8.66622 12.9009 8.59922 12.9009C8.13522 12.8999 7.71919 12.575 7.62119 12.104ZM5.39323 14.6819C4.80923 13.5609 4.50022 12.287 4.50022 11C4.50022 10.447 4.94822 10 5.50022 10C6.05222 10 6.50022 10.447 6.50022 11C6.50022 11.967 6.73021 12.9201 7.16721 13.7581C7.42221 14.2481 7.23222 14.8519 6.74222 15.1069C6.59522 15.1839 6.43623 15.22 6.28123 15.22C5.92023 15.22 5.57123 15.0239 5.39323 14.6819Z" fill="black"/>
</svg>
