<svg width="24" height="24" viewBox="0 0 24 24" fill="none" xmlns="http://www.w3.org/2000/svg">
<path d="M12 16C14.757 16 17 13.757 17 11V7C17 4.243 14.757 2 12 2C9.243 2 7 4.243 7 7V11C7 13.757 9.243 16 12 16ZM9 7C9 5.346 10.346 4 12 4C13.654 4 15 5.346 15 7V11C15 12.654 13.654 14 12 14C10.346 14 9 12.654 9 11V7ZM13 18.9309V20H16C16.552 20 17 20.447 17 21C17 21.553 16.552 22 16 22H8C7.448 22 7 21.553 7 21C7 20.447 7.448 20 8 20H11V18.9309C7.06 18.4359 4 15.072 4 11C4 10.447 4.448 10 5 10C5.552 10 6 10.447 6 11C6 14.309 8.691 17 12 17C15.309 17 18 14.309 18 11C18 10.447 18.448 10 19 10C19.552 10 20 10.447 20 11C20 15.072 16.94 18.4359 13 18.9309Z" fill="black"/>
</svg>
