<svg width="24" height="24" viewBox="0 0 24 24" fill="none" xmlns="http://www.w3.org/2000/svg">
<path d="M17.75 12C17.75 12.69 17.19 13.25 16.5 13.25C15.81 13.25 15.25 12.69 15.25 12C15.25 11.31 15.81 10.75 16.5 10.75C17.19 10.75 17.75 11.31 17.75 12ZM12 10.75C11.31 10.75 10.75 11.31 10.75 12C10.75 12.69 11.31 13.25 12 13.25C12.69 13.25 13.25 12.69 13.25 12C13.25 11.31 12.69 10.75 12 10.75ZM7.5 10.75C6.81 10.75 6.25 11.31 6.25 12C6.25 12.69 6.81 13.25 7.5 13.25C8.19 13.25 8.75 12.69 8.75 12C8.75 11.31 8.19 10.75 7.5 10.75ZM22 12C22 17.514 17.514 22 12 22C6.486 22 2 17.514 2 12C2 6.486 6.486 2 12 2C17.514 2 22 6.486 22 12ZM20 12C20 7.589 16.411 4 12 4C7.589 4 4 7.589 4 12C4 16.411 7.589 20 12 20C16.411 20 20 16.411 20 12Z" fill="black"/>
</svg>
