<svg width="24" height="24" viewBox="0 0 24 24" fill="none" xmlns="http://www.w3.org/2000/svg">
<path d="M18.9175 4.48188L14.5185 2.52733C12.9415 1.82813 11.0575 1.82813 9.48053 2.52733L5.08252 4.48188C3.20952 5.31312 1.99951 7.07757 1.99951 8.97512V15.0259C1.99951 16.9235 3.20948 18.6879 5.08148 19.5192L9.48151 21.4747C10.2615 21.8208 11.1175 21.9949 11.9735 21.9979C11.9825 21.9979 11.9905 22.0029 11.9995 22.0029C12.0085 22.0029 12.0165 21.9979 12.0255 21.9979C12.8815 21.9939 13.7375 21.8208 14.5185 21.4747L18.9175 19.5192C20.7905 18.6879 22.0005 16.9235 22.0005 15.0259V8.97512C21.9995 7.07757 20.7895 5.31312 18.9175 4.48188ZM13.7065 4.35586L18.1055 6.31041C18.2435 6.37142 18.3745 6.4414 18.4995 6.51542L16.4975 7.40569L9.9635 4.5019L10.2925 4.35586C11.3615 3.88173 12.6385 3.88173 13.7065 4.35586ZM7.49951 5.59719L14.0345 8.50098L13.1005 8.91614C12.4435 9.20923 11.5555 9.20923 10.8985 8.91614L5.49951 6.5164C5.62451 6.44138 5.75549 6.3724 5.89349 6.31138L7.49951 5.59719ZM5.89349 17.6906C4.72549 17.1715 3.99951 16.1513 3.99951 15.0259V8.97512C3.99951 8.67503 4.05453 8.38403 4.15253 8.10695L10.0865 10.7447C10.3745 10.8727 10.6825 10.9698 11.0005 11.0358V19.8723C10.7595 19.8143 10.5205 19.7472 10.2945 19.6462L5.89349 17.6906ZM19.9995 15.0259C19.9995 16.1513 19.2735 17.1725 18.1045 17.6906L13.7065 19.6462C13.4795 19.7462 13.2405 19.8143 12.9995 19.8723V11.0358C13.3175 10.9688 13.6255 10.8727 13.9135 10.7447L19.8475 8.10695C19.9455 8.38403 20.0005 8.67603 20.0005 8.97512L19.9995 15.0259Z" fill="black"/>
</svg>
