<svg width="24" height="24" viewBox="0 0 24 24" fill="none" xmlns="http://www.w3.org/2000/svg">
<path d="M20.6579 3.34253C19.7929 2.47753 18.6429 2.00049 17.4199 2.00049C16.1969 2.00049 15.0469 2.47753 14.1819 3.34253L3.6489 13.8755C3.2039 14.3205 2.91389 14.8835 2.81089 15.5035L2.02091 20.2415C1.94091 20.7215 2.09893 21.2145 2.44193 21.5575C2.72693 21.8425 3.1139 21.9995 3.5109 21.9995C3.5939 21.9995 3.67589 21.9925 3.75889 21.9785L8.49693 21.1885C9.11693 21.0855 9.67992 20.7955 10.1249 20.3505L20.6579 9.8175C21.5229 8.95251 21.9999 7.80147 21.9999 6.57947C21.9999 5.35647 21.5229 4.20753 20.6579 3.34253ZM8.71092 18.9385C8.56292 19.0865 8.37492 19.1835 8.16892 19.2175L4.10691 19.8945L4.78391 15.8325C4.81791 15.6265 4.91491 15.4385 5.06291 15.2905L12.9689 7.38452L16.6169 11.0325L8.71092 18.9385ZM19.2439 8.40454L18.0309 9.61743L14.3829 5.96948L15.5959 4.75647C16.0829 4.26947 16.7319 4.00049 17.4199 4.00049C18.1089 4.00049 18.7569 4.26947 19.2439 4.75647C19.7309 5.24347 19.9999 5.89144 19.9999 6.58044C19.9999 7.26944 19.7309 7.91754 19.2439 8.40454Z" fill="black"/>
</svg>
