<svg width="24" height="24" viewBox="0 0 24 24" fill="none" xmlns="http://www.w3.org/2000/svg">
<path d="M21.9327 16.558C21.9077 16.414 21.8777 16.2869 21.8467 16.1769C21.6457 15.4589 21.0238 14.9128 20.2618 14.7848L15.9308 14.0639C15.2048 13.9469 14.4728 14.2249 14.0258 14.7929C13.9678 14.8659 13.9117 14.9418 13.7997 15.0658C11.6117 14.1148 9.88275 12.3849 8.96875 10.1459C9.07175 10.0769 9.17077 10.0029 9.26477 9.92593C9.82177 9.47693 10.0978 8.75698 9.98578 8.04898L9.31476 3.79385C9.19776 3.04885 8.68576 2.43996 7.97876 2.20596C7.82576 2.15496 7.64577 2.107 7.43677 2.069C6.09677 1.831 4.72573 2.20797 3.67273 3.11197C2.57173 4.05797 1.96374 5.43079 2.00274 6.87979C2.22474 15.1328 8.86477 21.774 17.1188 21.997C17.1618 21.998 17.2058 21.998 17.2488 21.998C18.6378 21.998 19.9508 21.3968 20.8668 20.3368C21.7788 19.2828 22.1667 17.905 21.9327 16.558ZM19.3538 19.0299C18.8028 19.6679 18.0247 20.0159 17.1718 19.9989C9.98075 19.8049 4.19473 14.0188 4.00073 6.82681C3.97873 5.98281 4.33377 5.18301 4.97577 4.63101C5.45777 4.21701 6.03475 3.99893 6.63275 3.99893C6.78075 3.99893 6.92977 4.01297 7.07977 4.03897C7.18277 4.05897 7.27174 4.08087 7.33874 4.10587L8.00476 8.37491C7.95476 8.41491 7.90274 8.45287 7.84674 8.49087C7.01174 9.05887 6.70274 10.089 7.09674 10.996C8.24974 13.65 10.3468 15.7468 12.9998 16.9008C13.9058 17.2948 14.9378 16.987 15.5068 16.152L15.5997 16.037L19.9197 16.7179C19.9347 16.7719 19.9488 16.832 19.9608 16.902C20.0928 17.655 19.8718 18.4319 19.3538 19.0299Z" fill="black"/>
</svg>
