<svg width="24" height="24" viewBox="0 0 24 24" fill="none" xmlns="http://www.w3.org/2000/svg">
<path d="M21.1036 2.89725C20.3386 2.13225 19.2566 1.83127 18.2036 2.09427L5.09062 5.37222C3.22862 5.83722 1.98661 7.43931 1.99961 9.35831C2.01361 11.2773 3.27761 12.8623 5.14561 13.3013L9.6406 14.3592L10.6986 18.8533C11.1376 20.7223 12.7226 21.9863 14.6416 21.9993C14.6516 21.9993 14.6626 21.9993 14.6726 21.9993C16.5776 21.9993 18.1656 20.7612 18.6296 18.9092L21.9076 5.7952C22.1696 4.7472 21.8696 3.66325 21.1036 2.89725ZM19.9666 5.31326L16.6886 18.4263C16.3956 19.5963 15.4446 20.0353 14.6556 20.0013C13.8646 19.9953 12.9216 19.5712 12.6456 18.3972L11.5736 13.8422L15.7076 9.70926C16.0986 9.31826 16.0986 8.6862 15.7076 8.2952C15.3166 7.9042 14.6846 7.9042 14.2936 8.2952L10.1596 12.4283L5.60459 11.3562C4.43059 11.0802 4.00559 10.1372 4.00059 9.34622C3.99559 8.55522 4.40664 7.60626 5.57664 7.31326L18.6896 4.03531C18.7846 4.01231 18.8736 4.00223 18.9566 4.00223C19.3326 4.00223 19.5866 4.20926 19.6906 4.31326C19.8156 4.43926 20.0976 4.79026 19.9666 5.31326Z" fill="black"/>
</svg>
