<svg width="24" height="24" viewBox="0 0 24 24" fill="none" xmlns="http://www.w3.org/2000/svg">
<path d="M12 2C6.486 2 2 6.486 2 12C2 17.514 6.486 22 12 22C17.514 22 22 17.514 22 12C22 6.486 17.514 2 12 2ZM12 20C7.589 20 4 16.411 4 12C4 7.589 7.589 4 12 4C16.411 4 20 7.589 20 12C20 16.411 16.411 20 12 20ZM17 16C17 16.553 16.552 17 16 17H8C7.448 17 7 16.553 7 16C7 15.447 7.448 15 8 15H16C16.552 15 17 15.447 17 16ZM8.5 12C8.5 11.447 8.948 11 9.5 11H14.5C15.052 11 15.5 11.447 15.5 12C15.5 12.553 15.052 13 14.5 13H9.5C8.948 13 8.5 12.553 8.5 12ZM10 8C10 7.447 10.448 7 11 7H13C13.552 7 14 7.447 14 8C14 8.553 13.552 9 13 9H11C10.448 9 10 8.553 10 8Z" fill="black"/>
</svg>
