<svg width="25" height="24" viewBox="0 0 25 24" fill="none" xmlns="http://www.w3.org/2000/svg">
<path d="M12.5 2C6.986 2 2.5 6.486 2.5 12C2.5 17.514 6.986 22 12.5 22C18.014 22 22.5 17.514 22.5 12C22.5 6.486 18.014 2 12.5 2ZM12.5 20C8.089 20 4.5 16.411 4.5 12C4.5 7.589 8.089 4 12.5 4C16.911 4 20.5 7.589 20.5 12C20.5 16.411 16.911 20 12.5 20ZM17.5 8C17.5 8.553 17.052 9 16.5 9H8.5C7.948 9 7.5 8.553 7.5 8C7.5 7.447 7.948 7 8.5 7H16.5C17.052 7 17.5 7.447 17.5 8ZM16 12C16 12.553 15.552 13 15 13H10C9.448 13 9 12.553 9 12C9 11.447 9.448 11 10 11H15C15.552 11 16 11.447 16 12ZM14.5 16C14.5 16.553 14.052 17 13.5 17H11.5C10.948 17 10.5 16.553 10.5 16C10.5 15.447 10.948 15 11.5 15H13.5C14.052 15 14.5 15.447 14.5 16Z" fill="black"/>
</svg>
