<svg width="24" height="24" viewBox="0 0 24 24" fill="none" xmlns="http://www.w3.org/2000/svg">
<path d="M21.8871 9.59497C21.6091 8.73397 20.8761 8.11897 19.9741 7.99097L15.9241 7.41101L14.1151 3.80005C13.7131 2.99805 12.9031 2.5 12.0001 2.5C11.0971 2.5 10.2871 2.99805 9.88508 3.80005L8.07606 7.41101L4.02608 7.99097C3.12408 8.11997 2.39108 8.73397 2.11308 9.59497C1.83808 10.449 2.07107 11.366 2.71907 11.99L5.64107 14.798L4.95207 18.7571C4.79907 19.6351 5.15307 20.509 5.87507 21.038C6.29207 21.344 6.78308 21.5 7.27708 21.5C7.65008 21.5 8.02606 21.411 8.37306 21.23L11.9991 19.3521L15.6251 21.23C16.4341 21.65 17.3911 21.574 18.1241 21.038C18.8461 20.509 19.2001 19.6351 19.0471 18.7571L18.3581 14.798L21.2801 11.99C21.9291 11.366 22.1621 10.448 21.8871 9.59497ZM19.8951 10.548L16.5891 13.724C16.3491 13.953 16.2401 14.2881 16.2971 14.6171L17.0771 19.1C17.1061 19.265 17.0201 19.3681 16.9421 19.4241C16.8851 19.4651 16.7331 19.55 16.5461 19.454L12.4601 17.338C12.1721 17.188 11.8281 17.188 11.5401 17.338L7.45408 19.454C7.26709 19.55 7.11509 19.4651 7.05809 19.4241C6.98009 19.3671 6.89408 19.265 6.92308 19.1L7.70308 14.6171C7.76008 14.2891 7.65009 13.954 7.41109 13.724L4.10509 10.548C3.98009 10.428 3.98807 10.297 4.01707 10.209C4.04207 10.132 4.11307 9.99807 4.30907 9.97107L8.87709 9.31702C9.20209 9.27002 9.48307 9.06802 9.62907 8.77502L11.6721 4.69604C11.7571 4.52504 11.9141 4.5 11.9991 4.5C12.0841 4.5 12.2411 4.52504 12.3261 4.69604L14.3691 8.77502C14.5151 9.06802 14.7971 9.27002 15.1211 9.31702L19.6901 9.97107C19.8861 9.99807 19.9571 10.132 19.9821 10.209C20.0121 10.297 20.0201 10.428 19.8951 10.548Z" fill="black"/>
</svg>
