<svg width="24" height="24" viewBox="0 0 24 24" fill="none" xmlns="http://www.w3.org/2000/svg">
<path d="M18.443 7.97095L19.707 6.70703C20.098 6.31603 20.098 5.68397 19.707 5.29297C19.316 4.90197 18.684 4.90197 18.293 5.29297L16.968 6.61804C15.824 5.79004 14.471 5.23794 13 5.06494V4H14C14.552 4 15 3.553 15 3C15 2.447 14.552 2 14 2H10C9.448 2 9 2.447 9 3C9 3.553 9.448 4 10 4H11V5.06396C6.783 5.56096 3.5 9.152 3.5 13.5C3.5 18.187 7.313 22 12 22C16.687 22 20.5 18.187 20.5 13.5C20.5 11.389 19.722 9.45895 18.443 7.97095ZM12 20C8.416 20 5.5 17.084 5.5 13.5C5.5 9.916 8.416 7 12 7C15.584 7 18.5 9.916 18.5 13.5C18.5 17.084 15.584 20 12 20ZM14.781 15.375C15.126 15.807 15.056 16.436 14.625 16.781C14.441 16.928 14.22 17 14.001 17C13.708 17 13.417 16.872 13.22 16.625L11.22 14.125C11.078 13.947 11.001 13.728 11.001 13.5V10C11.001 9.447 11.449 9 12.001 9C12.553 9 13.001 9.447 13.001 10V13.149L14.781 15.375Z" fill="black"/>
</svg>
