<svg width="24" height="24" viewBox="0 0 24 24" fill="none" xmlns="http://www.w3.org/2000/svg">
<path d="M21.999 9.00195C21.999 8.89395 21.9819 8.78596 21.9479 8.68396L20.86 5.41895C20.178 3.37395 18.2719 2 16.1169 2H7.88293C5.72793 2 3.82095 3.37395 3.13995 5.41895L2.05194 8.68396C2.01794 8.78696 2.00098 8.89395 2.00098 9.00195C2.00298 10.007 2.38798 10.915 3.00098 11.618V18C3.00098 20.206 4.79498 22 7.00098 22H11.028V18C11.028 17.448 11.477 17 12.028 17C12.579 17 13.028 17.448 13.028 18V22H16.999C19.205 22 20.999 20.206 20.999 18V11.618C21.612 10.915 21.997 10.007 21.999 9.00195ZM5.03595 6.052C5.44495 4.824 6.58896 4 7.88196 4H16.116C17.409 4 18.553 4.824 18.962 6.052L19.994 9.14697C19.92 10.198 19.0739 11.001 18.0099 11.001C17.1129 11.001 16.205 10.416 15.944 9.67004C15.803 9.27004 15.4249 9.00098 14.9999 9.00098H14.996C14.57 9.00298 14.191 9.27398 14.054 9.67798C13.801 10.42 12.8979 11.001 11.9999 11.001C11.1019 11.001 10.2 10.42 9.94598 9.67798C9.80798 9.27498 9.42997 9.00298 9.00397 9.00098H8.99994C8.57494 9.00098 8.19697 9.27004 8.05597 9.67004C7.79497 10.416 6.88699 11.001 5.98999 11.001C4.92499 11.001 4.07894 10.198 4.00494 9.14697L5.03595 6.052ZM16.999 20H15.0259V18C15.0259 16.346 13.6799 15 12.0259 15C10.3719 15 9.02594 16.346 9.02594 18V20H6.99896C5.89596 20 4.99896 19.103 4.99896 18V12.86C5.31796 12.943 5.64495 13 5.98895 13C7.11995 13 8.21596 12.5301 8.99396 11.7791C9.76996 12.5301 10.864 13 11.998 13C13.132 13 14.227 12.5301 15.002 11.7791C15.781 12.5301 16.8769 13 18.0079 13C18.3519 13 18.679 12.943 18.998 12.86V18C18.999 19.103 18.102 20 16.999 20Z" fill="black"/>
</svg>
