<svg width="24" height="24" viewBox="0 0 24 24" fill="none" xmlns="http://www.w3.org/2000/svg">
<path d="M20.537 9.99805L14.003 3.46497C13.059 2.52097 11.803 2 10.468 2H6.00098C3.79498 2 2.00098 3.794 2.00098 6V10.4659C2.00098 11.8009 2.52097 13.057 3.46497 14.002L9.99896 20.535C10.943 21.479 12.199 22 13.534 22C14.87 22 16.125 21.479 17.07 20.535L20.536 17.069C22.486 15.12 22.486 11.947 20.537 9.99805ZM19.123 15.655L15.657 19.121C14.524 20.253 12.549 20.255 11.414 19.121L4.87997 12.588C4.31297 12.021 4.00098 11.2669 4.00098 10.4659V6C4.00098 4.897 4.89798 4 6.00098 4H10.467C11.257 4 12.029 4.32003 12.588 4.87903L19.122 11.412C20.292 12.582 20.292 14.485 19.123 15.655ZM9.00098 7.5C9.00098 8.328 8.32898 9 7.50098 9C6.67298 9 6.00098 8.328 6.00098 7.5C6.00098 6.672 6.67298 6 7.50098 6C8.32898 6 9.00098 6.672 9.00098 7.5Z" fill="black"/>
</svg>
