<svg width="24" height="24" viewBox="0 0 24 24" fill="none" xmlns="http://www.w3.org/2000/svg">
<path d="M20.84 7.30005C20.123 6.91505 19.258 6.95601 18.582 7.40601L15.917 9.177C15.522 6.812 13.475 5 11 5H7C4.243 5 2 7.243 2 10V14C2 16.757 4.243 19 7 19H11C13.475 19 15.521 17.187 15.917 14.823L18.582 16.594C18.951 16.839 19.374 16.9619 19.8 16.9619C20.156 16.9619 20.513 16.875 20.84 16.7C21.556 16.317 22 15.574 22 14.762V9.23901C22 8.42601 21.556 7.68305 20.84 7.30005ZM14 14C14 15.654 12.654 17 11 17H7C5.346 17 4 15.654 4 14V10C4 8.346 5.346 7 7 7H11C12.654 7 14 8.346 14 10V14ZM20 14.762C20 14.841 19.965 14.901 19.895 14.938C19.824 14.977 19.754 14.972 19.689 14.928L16 12.4761V11.5239L19.689 9.07202C19.754 9.02802 19.824 9.02301 19.895 9.06201C19.965 9.09901 20 9.15904 20 9.23804V14.762Z" fill="black"/>
</svg>
