<svg width="24" height="24" viewBox="0 0 24 24" fill="none" xmlns="http://www.w3.org/2000/svg">
<path d="M3.72101 17.2801C3.40401 17.2801 3.09201 17.1302 2.89801 16.8492C2.31101 16.0002 2 15.0151 2 13.9991V9.99906C2 7.24206 4.243 4.99906 7 4.99906H11C12.016 4.99906 13.001 5.31003 13.849 5.89603C14.303 6.21003 14.416 6.83412 14.102 7.28812C13.788 7.74312 13.165 7.85505 12.71 7.54105C12.198 7.18705 11.607 6.99906 11 6.99906H7C5.346 6.99906 4 8.34506 4 9.99906V13.9991C4 14.6051 4.18799 15.197 4.54199 15.71C4.85599 16.164 4.743 16.7871 4.289 17.1021C4.116 17.2231 3.91701 17.2801 3.72101 17.2801ZM22 9.23807V14.761C22 15.573 21.556 16.317 20.84 16.699C20.514 16.874 20.156 16.961 19.8 16.961C19.374 16.961 18.95 16.8381 18.582 16.5931L15.917 14.8221C15.522 17.1871 13.475 18.9991 11 18.9991H7C6.82 18.9991 6.63602 18.9881 6.44702 18.9661L4.70697 20.7061C4.51197 20.9011 4.256 20.9991 4 20.9991C3.744 20.9991 3.48803 20.9011 3.29303 20.7061C2.90203 20.3151 2.90203 19.683 3.29303 19.292L19.293 3.29203C19.684 2.90103 20.316 2.90103 20.707 3.29203C21.098 3.68303 21.098 4.31509 20.707 4.70609L16.87 8.54301L18.582 7.40507C19.258 6.95507 20.123 6.91411 20.84 7.29911C21.556 7.68311 22 8.42607 22 9.23807ZM14 14V11.4141L8.414 17H11C12.654 17 14 15.654 14 14ZM20 9.23807C20 9.15907 19.965 9.09905 19.895 9.06205C19.824 9.02305 19.754 9.02806 19.689 9.07206L16 11.524V12.4761L19.689 14.928C19.754 14.972 19.824 14.977 19.895 14.938C19.965 14.901 20 14.841 20 14.762V9.23807Z" fill="black"/>
</svg>
