<svg width="24" height="24" viewBox="0 0 24 24" fill="none" xmlns="http://www.w3.org/2000/svg">
<path d="M11.96 3.32398C10.705 2.74798 9.272 2.94705 8.224 3.84705L5.63098 6.073L4.89099 6.07398C3.29699 6.07698 2 7.378 2 8.974V15.0249C2 16.6229 3.29803 17.9231 4.89203 17.9251L5.62903 17.926L8.224 20.1521C8.875 20.7121 9.67599 21.001 10.49 21.001C10.985 21.001 11.486 20.8941 11.961 20.6751C13.22 20.0971 14.001 18.876 14.001 17.489V6.51001C14 5.12401 13.219 3.90298 11.96 3.32398ZM12 17.489C12 18.094 11.673 18.6059 11.124 18.8579C10.579 19.1099 9.98002 19.025 9.52502 18.634L6.93103 16.408C6.56903 16.097 6.10698 15.926 5.63098 15.926L4.89398 15.9251C4.40098 15.9251 3.99902 15.5209 3.99902 15.0249V8.974C3.99902 8.479 4.39998 8.07498 4.89398 8.07398L5.63501 8.073C6.11101 8.071 6.57203 7.89894 6.93103 7.59094L9.52502 5.36499C9.80802 5.12399 10.144 4.99903 10.49 4.99903C10.702 4.99903 10.917 5.04597 11.125 5.14197C11.673 5.39397 12 5.90599 12 6.51099V17.489ZM18 12C18 13.32 17.584 14.567 16.797 15.604C16.6 15.863 16.302 16 15.999 16C15.789 16 15.576 15.9341 15.395 15.7971C14.955 15.4631 14.869 14.836 15.203 14.396C15.724 13.709 16 12.88 16 12C16 11.12 15.725 10.291 15.203 9.60401C14.869 9.16401 14.955 8.537 15.395 8.203C15.835 7.868 16.462 7.95702 16.796 8.39502C17.584 9.43302 18 10.68 18 12ZM22 12C22 14.467 21.092 16.8359 19.443 18.6689C19.246 18.8889 18.973 19 18.7 19C18.462 19 18.222 18.9149 18.031 18.7429C17.621 18.3739 17.587 17.7421 17.957 17.3311C19.274 15.8661 20 13.973 20 12C20 10.027 19.274 8.13395 17.957 6.66895C17.587 6.25795 17.621 5.62596 18.031 5.25696C18.442 4.88696 19.073 4.92006 19.443 5.33106C21.092 7.16406 22 9.533 22 12Z" fill="black"/>
</svg>
