<svg width="800" height="500" viewBox="0 0 800 500" fill="none" xmlns="http://www.w3.org/2000/svg">
<g clip-path="url(#clip0_1385_10358)">
<rect width="800" height="500" fill="url(#paint0_linear_1385_10358)"/>
<path d="M51.344 297L64.064 262.44H69.44L57.488 297H51.344ZM77.408 297L65.504 262.44H71.168L83.84 297H77.408ZM57.92 283.416H76.832V288.408H57.92V283.416ZM104.787 297.48C102.451 297.48 100.547 296.936 99.0751 295.848C97.6351 294.728 96.7391 293.192 96.3871 291.24L96.8671 291.192V306.84H90.8191V272.52H96.7231V278.04L96.2431 277.944C96.6911 276.12 97.7151 274.68 99.3151 273.624C100.915 272.568 102.867 272.04 105.171 272.04C107.347 272.04 109.235 272.568 110.835 273.624C112.467 274.648 113.731 276.104 114.627 277.992C115.523 279.88 115.971 282.104 115.971 284.664C115.971 287.256 115.507 289.512 114.579 291.432C113.651 293.352 112.355 294.84 110.691 295.896C109.027 296.952 107.059 297.48 104.787 297.48ZM103.251 292.488C105.203 292.488 106.755 291.816 107.907 290.472C109.059 289.096 109.635 287.176 109.635 284.712C109.635 282.248 109.043 280.344 107.859 279C106.707 277.656 105.155 276.984 103.203 276.984C101.283 276.984 99.7311 277.672 98.5471 279.048C97.3631 280.392 96.7711 282.296 96.7711 284.76C96.7711 287.224 97.3631 289.128 98.5471 290.472C99.7311 291.816 101.299 292.488 103.251 292.488ZM137 297.48C134.664 297.48 132.76 296.936 131.288 295.848C129.848 294.728 128.952 293.192 128.6 291.24L129.08 291.192V306.84H123.032V272.52H128.936V278.04L128.456 277.944C128.904 276.12 129.928 274.68 131.528 273.624C133.128 272.568 135.08 272.04 137.384 272.04C139.56 272.04 141.448 272.568 143.048 273.624C144.68 274.648 145.944 276.104 146.84 277.992C147.736 279.88 148.184 282.104 148.184 284.664C148.184 287.256 147.72 289.512 146.792 291.432C145.864 293.352 144.568 294.84 142.904 295.896C141.24 296.952 139.272 297.48 137 297.48ZM135.464 292.488C137.416 292.488 138.968 291.816 140.12 290.472C141.272 289.096 141.848 287.176 141.848 284.712C141.848 282.248 141.256 280.344 140.072 279C138.92 277.656 137.368 276.984 135.416 276.984C133.496 276.984 131.944 277.672 130.76 279.048C129.576 280.392 128.984 282.296 128.984 284.76C128.984 287.224 129.576 289.128 130.76 290.472C131.944 291.816 133.512 292.488 135.464 292.488ZM180.077 297.432C175.725 297.432 172.253 296.44 169.661 294.456C167.101 292.44 165.597 289.608 165.149 285.96H171.149C171.437 288.072 172.381 289.72 173.981 290.904C175.581 292.056 177.677 292.632 180.269 292.632C182.413 292.632 184.045 292.248 185.165 291.48C186.317 290.68 186.893 289.576 186.893 288.168C186.893 286.92 186.541 285.912 185.837 285.144C185.133 284.376 183.949 283.752 182.285 283.272L176.045 281.4C172.877 280.44 170.541 279.176 169.037 277.608C167.565 276.04 166.829 274.072 166.829 271.704C166.829 269.72 167.341 267.992 168.365 266.52C169.389 265.048 170.829 263.912 172.685 263.112C174.573 262.312 176.765 261.912 179.261 261.912C183.101 261.912 186.157 262.856 188.429 264.744C190.733 266.6 192.045 269.128 192.365 272.328H186.365C186.013 270.408 185.213 269 183.965 268.104C182.717 267.176 181.037 266.712 178.925 266.712C177.069 266.712 175.597 267.08 174.509 267.816C173.421 268.552 172.877 269.56 172.877 270.84C172.877 271.896 173.197 272.792 173.837 273.528C174.509 274.264 175.741 274.904 177.533 275.448L183.869 277.368C187.037 278.296 189.341 279.56 190.781 281.16C192.221 282.76 192.941 284.792 192.941 287.256C192.941 290.52 191.805 293.032 189.533 294.792C187.293 296.552 184.141 297.432 180.077 297.432ZM210.739 297.48C207.731 297.48 205.507 296.776 204.067 295.368C202.659 293.928 201.955 291.784 201.955 288.936V266.952L208.051 264.696V289.08C208.051 290.264 208.371 291.144 209.011 291.72C209.651 292.296 210.659 292.584 212.035 292.584C212.579 292.584 213.059 292.552 213.475 292.488C213.923 292.392 214.339 292.28 214.723 292.152V296.856C214.339 297.048 213.795 297.192 213.091 297.288C212.387 297.416 211.603 297.48 210.739 297.48ZM197.251 277.272V272.52H214.723V277.272H197.251ZM232.033 297.48C229.441 297.48 227.153 296.936 225.169 295.848C223.217 294.76 221.697 293.256 220.609 291.336C219.521 289.384 218.977 287.16 218.977 284.664C218.977 282.168 219.521 279.976 220.609 278.088C221.697 276.2 223.217 274.728 225.169 273.672C227.153 272.584 229.441 272.04 232.033 272.04C234.657 272.04 236.945 272.584 238.897 273.672C240.849 274.728 242.369 276.2 243.457 278.088C244.545 279.976 245.089 282.168 245.089 284.664C245.089 287.16 244.529 289.384 243.409 291.336C242.321 293.256 240.801 294.76 238.849 295.848C236.897 296.936 234.625 297.48 232.033 297.48ZM232.033 292.632C233.313 292.632 234.465 292.312 235.489 291.672C236.513 291 237.313 290.072 237.889 288.888C238.465 287.672 238.753 286.248 238.753 284.616C238.753 282.216 238.113 280.328 236.833 278.952C235.585 277.576 233.985 276.888 232.033 276.888C230.081 276.888 228.465 277.576 227.185 278.952C225.905 280.328 225.265 282.216 225.265 284.616C225.265 286.248 225.553 287.672 226.129 288.888C226.737 290.072 227.537 291 228.529 291.672C229.553 292.312 230.721 292.632 232.033 292.632ZM251.938 297V272.52H257.842V278.424H257.986V297H251.938ZM257.986 284.232L257.362 278.424C257.938 276.344 258.914 274.76 260.29 273.672C261.666 272.584 263.314 272.04 265.234 272.04C265.906 272.04 266.386 272.104 266.674 272.232V277.944C266.514 277.88 266.29 277.848 266.002 277.848C265.714 277.816 265.362 277.8 264.946 277.8C262.61 277.8 260.866 278.312 259.714 279.336C258.562 280.36 257.986 281.992 257.986 284.232ZM283.517 297.48C280.925 297.48 278.653 296.936 276.701 295.848C274.781 294.76 273.277 293.256 272.189 291.336C271.133 289.416 270.605 287.208 270.605 284.712C270.605 282.216 271.133 280.024 272.189 278.136C273.277 276.216 274.781 274.728 276.701 273.672C278.621 272.584 280.861 272.04 283.421 272.04C285.853 272.04 287.965 272.552 289.757 273.576C291.549 274.568 292.941 275.976 293.933 277.8C294.925 279.624 295.421 281.752 295.421 284.184C295.421 284.632 295.405 285.048 295.373 285.432C295.341 285.816 295.293 286.2 295.229 286.584H274.349V282.36H290.573L289.325 283.512C289.325 281.208 288.797 279.48 287.741 278.328C286.685 277.176 285.213 276.6 283.325 276.6C281.277 276.6 279.645 277.304 278.429 278.712C277.245 280.12 276.653 282.152 276.653 284.808C276.653 287.432 277.245 289.448 278.429 290.856C279.645 292.232 281.357 292.92 283.565 292.92C284.845 292.92 285.965 292.68 286.925 292.2C287.885 291.72 288.589 290.984 289.037 289.992H294.749C293.949 292.296 292.589 294.12 290.669 295.464C288.781 296.808 286.397 297.48 283.517 297.48Z" fill="white"/>
<path d="M49.82 354L61.16 328.8H65.768L77.144 354H72.248L62.492 331.284H64.364L54.644 354H49.82ZM55.04 348.168L56.3 344.496H69.908L71.168 348.168H55.04ZM79.9168 354V327.288H84.4168V354H79.9168ZM90.3231 354V327.288H94.8231V354H90.3231ZM119.319 354.252C117.351 354.252 115.599 353.832 114.063 352.992C112.527 352.128 111.315 350.952 110.427 349.464C109.539 347.976 109.095 346.284 109.095 344.388C109.095 342.468 109.539 340.776 110.427 339.312C111.315 337.824 112.527 336.66 114.063 335.82C115.599 334.98 117.351 334.56 119.319 334.56C121.311 334.56 123.075 334.98 124.611 335.82C126.171 336.66 127.383 337.812 128.247 339.276C129.135 340.74 129.579 342.444 129.579 344.388C129.579 346.284 129.135 347.976 128.247 349.464C127.383 350.952 126.171 352.128 124.611 352.992C123.075 353.832 121.311 354.252 119.319 354.252ZM119.319 350.4C120.423 350.4 121.407 350.16 122.271 349.68C123.135 349.2 123.807 348.504 124.287 347.592C124.791 346.68 125.043 345.612 125.043 344.388C125.043 343.14 124.791 342.072 124.287 341.184C123.807 340.272 123.135 339.576 122.271 339.096C121.407 338.616 120.435 338.376 119.355 338.376C118.251 338.376 117.267 338.616 116.403 339.096C115.563 339.576 114.891 340.272 114.387 341.184C113.883 342.072 113.631 343.14 113.631 344.388C113.631 345.612 113.883 346.68 114.387 347.592C114.891 348.504 115.563 349.2 116.403 349.68C117.267 350.16 118.239 350.4 119.319 350.4ZM134.494 354V333.696C134.494 331.68 135.082 330.072 136.258 328.872C137.458 327.648 139.162 327.036 141.37 327.036C142.162 327.036 142.906 327.12 143.602 327.288C144.322 327.456 144.922 327.72 145.402 328.08L144.178 331.464C143.842 331.2 143.458 331.008 143.026 330.888C142.594 330.744 142.15 330.672 141.694 330.672C140.758 330.672 140.05 330.936 139.57 331.464C139.09 331.968 138.85 332.736 138.85 333.768V335.928L138.994 337.944V354H134.494ZM131.326 338.52V334.92H144.142V338.52H131.326ZM164.356 354.252C162.244 354.252 160.612 353.712 159.46 352.632C158.308 351.528 157.732 349.908 157.732 347.772V330.528H162.232V347.664C162.232 348.576 162.46 349.284 162.916 349.788C163.396 350.292 164.056 350.544 164.896 350.544C165.904 350.544 166.744 350.28 167.416 349.752L168.676 352.956C168.148 353.388 167.5 353.712 166.732 353.928C165.964 354.144 165.172 354.252 164.356 354.252ZM154.564 338.52V334.92H167.38V338.52H154.564ZM183.286 334.56C184.822 334.56 186.19 334.86 187.39 335.46C188.614 336.06 189.574 336.984 190.27 338.232C190.966 339.456 191.314 341.04 191.314 342.984V354H186.814V343.56C186.814 341.856 186.406 340.584 185.59 339.744C184.798 338.904 183.682 338.484 182.242 338.484C181.186 338.484 180.25 338.7 179.434 339.132C178.618 339.564 177.982 340.212 177.526 341.076C177.094 341.916 176.878 342.984 176.878 344.28V354H172.378V327.288H176.878V339.96L175.906 338.376C176.578 337.152 177.55 336.216 178.822 335.568C180.118 334.896 181.606 334.56 183.286 334.56ZM206.093 354.252C203.957 354.252 202.085 353.832 200.477 352.992C198.893 352.128 197.657 350.952 196.769 349.464C195.905 347.976 195.473 346.284 195.473 344.388C195.473 342.468 195.893 340.776 196.733 339.312C197.597 337.824 198.773 336.66 200.261 335.82C201.773 334.98 203.489 334.56 205.409 334.56C207.281 334.56 208.949 334.968 210.413 335.784C211.877 336.6 213.029 337.752 213.869 339.24C214.709 340.728 215.129 342.48 215.129 344.496C215.129 344.688 215.117 344.904 215.093 345.144C215.093 345.384 215.081 345.612 215.057 345.828H199.037V342.84H212.681L210.917 343.776C210.941 342.672 210.713 341.7 210.233 340.86C209.753 340.02 209.093 339.36 208.253 338.88C207.437 338.4 206.489 338.16 205.409 338.16C204.305 338.16 203.333 338.4 202.493 338.88C201.677 339.36 201.029 340.032 200.549 340.896C200.093 341.736 199.865 342.732 199.865 343.884V344.604C199.865 345.756 200.129 346.776 200.657 347.664C201.185 348.552 201.929 349.236 202.889 349.716C203.849 350.196 204.953 350.436 206.201 350.436C207.281 350.436 208.253 350.268 209.117 349.932C209.981 349.596 210.749 349.068 211.421 348.348L213.833 351.12C212.969 352.128 211.877 352.908 210.557 353.46C209.261 353.988 207.773 354.252 206.093 354.252ZM226.269 354L237.609 328.8H242.217L253.593 354H248.697L238.941 331.284H240.813L231.093 354H226.269ZM231.489 348.168L232.749 344.496H246.357L247.617 348.168H231.489ZM256.798 354V328.8H261.478V354H256.798ZM266.89 345.864V342.12H276.79V345.864H266.89ZM290.777 361.236C289.001 361.236 287.261 360.996 285.557 360.516C283.877 360.06 282.497 359.388 281.417 358.5L283.433 355.116C284.273 355.812 285.329 356.364 286.601 356.772C287.897 357.204 289.205 357.42 290.525 357.42C292.637 357.42 294.185 356.928 295.169 355.944C296.153 354.984 296.645 353.532 296.645 351.588V348.168L297.005 343.812L296.861 339.456V334.776H301.145V351.084C301.145 354.564 300.257 357.12 298.481 358.752C296.705 360.408 294.137 361.236 290.777 361.236ZM290.201 353.136C288.377 353.136 286.721 352.752 285.233 351.984C283.769 351.192 282.605 350.1 281.741 348.708C280.901 347.316 280.481 345.684 280.481 343.812C280.481 341.964 280.901 340.344 281.741 338.952C282.605 337.56 283.769 336.48 285.233 335.712C286.721 334.944 288.377 334.56 290.201 334.56C291.833 334.56 293.297 334.884 294.593 335.532C295.889 336.18 296.921 337.188 297.689 338.556C298.481 339.924 298.877 341.676 298.877 343.812C298.877 345.948 298.481 347.712 297.689 349.104C296.921 350.472 295.889 351.492 294.593 352.164C293.297 352.812 291.833 353.136 290.201 353.136ZM290.885 349.32C292.013 349.32 293.021 349.092 293.909 348.636C294.797 348.156 295.481 347.508 295.961 346.692C296.465 345.852 296.717 344.892 296.717 343.812C296.717 342.732 296.465 341.784 295.961 340.968C295.481 340.128 294.797 339.492 293.909 339.06C293.021 338.604 292.013 338.376 290.885 338.376C289.757 338.376 288.737 338.604 287.825 339.06C286.937 339.492 286.241 340.128 285.737 340.968C285.257 341.784 285.017 342.732 285.017 343.812C285.017 344.892 285.257 345.852 285.737 346.692C286.241 347.508 286.937 348.156 287.825 348.636C288.737 349.092 289.757 349.32 290.885 349.32ZM316.097 354.252C313.961 354.252 312.089 353.832 310.481 352.992C308.897 352.128 307.661 350.952 306.773 349.464C305.909 347.976 305.477 346.284 305.477 344.388C305.477 342.468 305.897 340.776 306.737 339.312C307.601 337.824 308.777 336.66 310.265 335.82C311.777 334.98 313.493 334.56 315.413 334.56C317.285 334.56 318.953 334.968 320.417 335.784C321.881 336.6 323.033 337.752 323.873 339.24C324.713 340.728 325.133 342.48 325.133 344.496C325.133 344.688 325.121 344.904 325.097 345.144C325.097 345.384 325.085 345.612 325.061 345.828H309.041V342.84H322.685L320.921 343.776C320.945 342.672 320.717 341.7 320.237 340.86C319.757 340.02 319.097 339.36 318.257 338.88C317.441 338.4 316.493 338.16 315.413 338.16C314.309 338.16 313.337 338.4 312.497 338.88C311.681 339.36 311.033 340.032 310.553 340.896C310.097 341.736 309.869 342.732 309.869 343.884V344.604C309.869 345.756 310.133 346.776 310.661 347.664C311.189 348.552 311.933 349.236 312.893 349.716C313.853 350.196 314.957 350.436 316.205 350.436C317.285 350.436 318.257 350.268 319.121 349.932C319.985 349.596 320.753 349.068 321.425 348.348L323.837 351.12C322.973 352.128 321.881 352.908 320.561 353.46C319.265 353.988 317.777 354.252 316.097 354.252ZM340.364 334.56C341.9 334.56 343.268 334.86 344.468 335.46C345.692 336.06 346.652 336.984 347.348 338.232C348.044 339.456 348.392 341.04 348.392 342.984V354H343.892V343.56C343.892 341.856 343.484 340.584 342.668 339.744C341.876 338.904 340.76 338.484 339.32 338.484C338.264 338.484 337.328 338.7 336.512 339.132C335.696 339.564 335.06 340.212 334.604 341.076C334.172 341.916 333.956 342.984 333.956 344.28V354H329.456V334.776H333.74V339.96L332.984 338.376C333.656 337.152 334.628 336.216 335.9 335.568C337.196 334.896 338.684 334.56 340.364 334.56ZM363.172 354.252C361.036 354.252 359.164 353.832 357.556 352.992C355.972 352.128 354.736 350.952 353.848 349.464C352.984 347.976 352.552 346.284 352.552 344.388C352.552 342.468 352.972 340.776 353.812 339.312C354.676 337.824 355.852 336.66 357.34 335.82C358.852 334.98 360.568 334.56 362.488 334.56C364.36 334.56 366.028 334.968 367.492 335.784C368.956 336.6 370.108 337.752 370.948 339.24C371.788 340.728 372.208 342.48 372.208 344.496C372.208 344.688 372.196 344.904 372.172 345.144C372.172 345.384 372.16 345.612 372.136 345.828H356.116V342.84H369.76L367.996 343.776C368.02 342.672 367.792 341.7 367.312 340.86C366.832 340.02 366.172 339.36 365.332 338.88C364.516 338.4 363.568 338.16 362.488 338.16C361.384 338.16 360.412 338.4 359.572 338.88C358.756 339.36 358.108 340.032 357.628 340.896C357.172 341.736 356.944 342.732 356.944 343.884V344.604C356.944 345.756 357.208 346.776 357.736 347.664C358.264 348.552 359.008 349.236 359.968 349.716C360.928 350.196 362.032 350.436 363.28 350.436C364.36 350.436 365.332 350.268 366.196 349.932C367.06 349.596 367.828 349.068 368.5 348.348L370.912 351.12C370.048 352.128 368.956 352.908 367.636 353.46C366.34 353.988 364.852 354.252 363.172 354.252ZM376.53 354V334.776H380.814V340.068L380.31 338.52C380.886 337.224 381.786 336.24 383.01 335.568C384.258 334.896 385.806 334.56 387.654 334.56V338.844C387.462 338.796 387.282 338.772 387.114 338.772C386.946 338.748 386.778 338.736 386.61 338.736C384.906 338.736 383.55 339.24 382.542 340.248C381.534 341.232 381.03 342.708 381.03 344.676V354H376.53ZM401.944 354V350.112L401.692 349.284V342.48C401.692 341.16 401.296 340.14 400.504 339.42C399.712 338.676 398.512 338.304 396.904 338.304C395.824 338.304 394.756 338.472 393.7 338.808C392.668 339.144 391.792 339.612 391.072 340.212L389.308 336.936C390.34 336.144 391.564 335.556 392.98 335.172C394.42 334.764 395.908 334.56 397.444 334.56C400.228 334.56 402.376 335.232 403.888 336.576C405.424 337.896 406.192 339.948 406.192 342.732V354H401.944ZM395.896 354.252C394.456 354.252 393.196 354.012 392.116 353.532C391.036 353.028 390.196 352.344 389.596 351.48C389.02 350.592 388.732 349.596 388.732 348.492C388.732 347.412 388.984 346.44 389.488 345.576C390.016 344.712 390.868 344.028 392.044 343.524C393.22 343.02 394.78 342.768 396.724 342.768H402.304V345.756H397.048C395.512 345.756 394.48 346.008 393.952 346.512C393.424 346.992 393.16 347.592 393.16 348.312C393.16 349.128 393.484 349.776 394.132 350.256C394.78 350.736 395.68 350.976 396.832 350.976C397.936 350.976 398.92 350.724 399.784 350.22C400.672 349.716 401.308 348.972 401.692 347.988L402.448 350.688C402.016 351.816 401.236 352.692 400.108 353.316C399.004 353.94 397.6 354.252 395.896 354.252ZM419.204 354.252C417.092 354.252 415.46 353.712 414.308 352.632C413.156 351.528 412.58 349.908 412.58 347.772V330.528H417.08V347.664C417.08 348.576 417.308 349.284 417.764 349.788C418.244 350.292 418.904 350.544 419.744 350.544C420.752 350.544 421.592 350.28 422.264 349.752L423.524 352.956C422.996 353.388 422.348 353.712 421.58 353.928C420.812 354.144 420.02 354.252 419.204 354.252ZM409.412 338.52V334.92H422.228V338.52H409.412ZM435.629 354.252C433.493 354.252 431.621 353.832 430.013 352.992C428.429 352.128 427.193 350.952 426.305 349.464C425.441 347.976 425.009 346.284 425.009 344.388C425.009 342.468 425.429 340.776 426.269 339.312C427.133 337.824 428.309 336.66 429.797 335.82C431.309 334.98 433.025 334.56 434.945 334.56C436.817 334.56 438.485 334.968 439.949 335.784C441.413 336.6 442.565 337.752 443.405 339.24C444.245 340.728 444.665 342.48 444.665 344.496C444.665 344.688 444.653 344.904 444.629 345.144C444.629 345.384 444.617 345.612 444.593 345.828H428.573V342.84H442.217L440.453 343.776C440.477 342.672 440.249 341.7 439.769 340.86C439.289 340.02 438.629 339.36 437.789 338.88C436.973 338.4 436.025 338.16 434.945 338.16C433.841 338.16 432.869 338.4 432.029 338.88C431.213 339.36 430.565 340.032 430.085 340.896C429.629 341.736 429.401 342.732 429.401 343.884V344.604C429.401 345.756 429.665 346.776 430.193 347.664C430.721 348.552 431.465 349.236 432.425 349.716C433.385 350.196 434.489 350.436 435.737 350.436C436.817 350.436 437.789 350.268 438.653 349.932C439.517 349.596 440.285 349.068 440.957 348.348L443.369 351.12C442.505 352.128 441.413 352.908 440.093 353.46C438.797 353.988 437.309 354.252 435.629 354.252ZM457.123 354.252C455.275 354.252 453.607 353.844 452.119 353.028C450.655 352.188 449.503 351.036 448.663 349.572C447.823 348.108 447.403 346.38 447.403 344.388C447.403 342.396 447.823 340.668 448.663 339.204C449.503 337.74 450.655 336.6 452.119 335.784C453.607 334.968 455.275 334.56 457.123 334.56C458.731 334.56 460.171 334.92 461.443 335.64C462.715 336.336 463.723 337.404 464.467 338.844C465.211 340.284 465.583 342.132 465.583 344.388C465.583 346.62 465.223 348.468 464.503 349.932C463.783 351.372 462.787 352.452 461.515 353.172C460.243 353.892 458.779 354.252 457.123 354.252ZM457.663 350.4C458.743 350.4 459.703 350.16 460.543 349.68C461.407 349.2 462.091 348.504 462.595 347.592C463.123 346.68 463.387 345.612 463.387 344.388C463.387 343.14 463.123 342.072 462.595 341.184C462.091 340.272 461.407 339.576 460.543 339.096C459.703 338.616 458.743 338.376 457.663 338.376C456.583 338.376 455.611 338.616 454.747 339.096C453.907 339.576 453.223 340.272 452.695 341.184C452.191 342.072 451.939 343.14 451.939 344.388C451.939 345.612 452.191 346.68 452.695 347.592C453.223 348.504 453.907 349.2 454.747 349.68C455.611 350.16 456.583 350.4 457.663 350.4ZM463.495 354V349.464L463.675 344.352L463.315 339.24V327.288H467.779V354H463.495ZM492.471 354.252C490.455 354.252 488.655 353.832 487.071 352.992C485.511 352.128 484.287 350.952 483.399 349.464C482.511 347.976 482.067 346.284 482.067 344.388C482.067 342.468 482.511 340.776 483.399 339.312C484.287 337.824 485.511 336.66 487.071 335.82C488.655 334.98 490.455 334.56 492.471 334.56C494.343 334.56 495.987 334.944 497.403 335.712C498.843 336.456 499.935 337.56 500.679 339.024L497.223 341.04C496.647 340.128 495.939 339.456 495.099 339.024C494.283 338.592 493.395 338.376 492.435 338.376C491.331 338.376 490.335 338.616 489.447 339.096C488.559 339.576 487.863 340.272 487.359 341.184C486.855 342.072 486.603 343.14 486.603 344.388C486.603 345.636 486.855 346.716 487.359 347.628C487.863 348.516 488.559 349.2 489.447 349.68C490.335 350.16 491.331 350.4 492.435 350.4C493.395 350.4 494.283 350.184 495.099 349.752C495.939 349.32 496.647 348.648 497.223 347.736L500.679 349.752C499.935 351.192 498.843 352.308 497.403 353.1C495.987 353.868 494.343 354.252 492.471 354.252ZM512.928 354.252C510.96 354.252 509.208 353.832 507.672 352.992C506.136 352.128 504.924 350.952 504.036 349.464C503.148 347.976 502.704 346.284 502.704 344.388C502.704 342.468 503.148 340.776 504.036 339.312C504.924 337.824 506.136 336.66 507.672 335.82C509.208 334.98 510.96 334.56 512.928 334.56C514.92 334.56 516.684 334.98 518.22 335.82C519.78 336.66 520.992 337.812 521.856 339.276C522.744 340.74 523.188 342.444 523.188 344.388C523.188 346.284 522.744 347.976 521.856 349.464C520.992 350.952 519.78 352.128 518.22 352.992C516.684 353.832 514.92 354.252 512.928 354.252ZM512.928 350.4C514.032 350.4 515.016 350.16 515.88 349.68C516.744 349.2 517.416 348.504 517.896 347.592C518.4 346.68 518.652 345.612 518.652 344.388C518.652 343.14 518.4 342.072 517.896 341.184C517.416 340.272 516.744 339.576 515.88 339.096C515.016 338.616 514.044 338.376 512.964 338.376C511.86 338.376 510.876 338.616 510.012 339.096C509.172 339.576 508.5 340.272 507.996 341.184C507.492 342.072 507.24 343.14 507.24 344.388C507.24 345.612 507.492 346.68 507.996 347.592C508.5 348.504 509.172 349.2 510.012 349.68C510.876 350.16 511.848 350.4 512.928 350.4ZM538.399 334.56C539.935 334.56 541.303 334.86 542.503 335.46C543.727 336.06 544.687 336.984 545.383 338.232C546.079 339.456 546.427 341.04 546.427 342.984V354H541.927V343.56C541.927 341.856 541.519 340.584 540.703 339.744C539.911 338.904 538.795 338.484 537.355 338.484C536.299 338.484 535.363 338.7 534.547 339.132C533.731 339.564 533.095 340.212 532.639 341.076C532.207 341.916 531.991 342.984 531.991 344.28V354H527.491V334.776H531.775V339.96L531.019 338.376C531.691 337.152 532.663 336.216 533.935 335.568C535.231 334.896 536.719 334.56 538.399 334.56ZM559.372 354.252C557.26 354.252 555.628 353.712 554.476 352.632C553.324 351.528 552.748 349.908 552.748 347.772V330.528H557.248V347.664C557.248 348.576 557.476 349.284 557.932 349.788C558.412 350.292 559.072 350.544 559.912 350.544C560.92 350.544 561.76 350.28 562.432 349.752L563.692 352.956C563.164 353.388 562.516 353.712 561.748 353.928C560.98 354.144 560.188 354.252 559.372 354.252ZM549.58 338.52V334.92H562.396V338.52H549.58ZM575.797 354.252C573.661 354.252 571.789 353.832 570.181 352.992C568.597 352.128 567.361 350.952 566.473 349.464C565.609 347.976 565.177 346.284 565.177 344.388C565.177 342.468 565.597 340.776 566.437 339.312C567.301 337.824 568.477 336.66 569.965 335.82C571.477 334.98 573.193 334.56 575.113 334.56C576.985 334.56 578.653 334.968 580.117 335.784C581.581 336.6 582.733 337.752 583.573 339.24C584.413 340.728 584.833 342.48 584.833 344.496C584.833 344.688 584.821 344.904 584.797 345.144C584.797 345.384 584.785 345.612 584.761 345.828H568.741V342.84H582.385L580.621 343.776C580.645 342.672 580.417 341.7 579.937 340.86C579.457 340.02 578.797 339.36 577.957 338.88C577.141 338.4 576.193 338.16 575.113 338.16C574.009 338.16 573.037 338.4 572.197 338.88C571.381 339.36 570.733 340.032 570.253 340.896C569.797 341.736 569.569 342.732 569.569 343.884V344.604C569.569 345.756 569.833 346.776 570.361 347.664C570.889 348.552 571.633 349.236 572.593 349.716C573.553 350.196 574.657 350.436 575.905 350.436C576.985 350.436 577.957 350.268 578.821 349.932C579.685 349.596 580.453 349.068 581.125 348.348L583.537 351.12C582.673 352.128 581.581 352.908 580.261 353.46C578.965 353.988 577.477 354.252 575.797 354.252ZM600.063 334.56C601.599 334.56 602.967 334.86 604.167 335.46C605.391 336.06 606.351 336.984 607.047 338.232C607.743 339.456 608.091 341.04 608.091 342.984V354H603.591V343.56C603.591 341.856 603.183 340.584 602.367 339.744C601.575 338.904 600.459 338.484 599.019 338.484C597.963 338.484 597.027 338.7 596.211 339.132C595.395 339.564 594.759 340.212 594.303 341.076C593.871 341.916 593.655 342.984 593.655 344.28V354H589.155V334.776H593.439V339.96L592.683 338.376C593.355 337.152 594.327 336.216 595.599 335.568C596.895 334.896 598.383 334.56 600.063 334.56ZM621.036 354.252C618.924 354.252 617.292 353.712 616.14 352.632C614.988 351.528 614.412 349.908 614.412 347.772V330.528H618.912V347.664C618.912 348.576 619.14 349.284 619.596 349.788C620.076 350.292 620.736 350.544 621.576 350.544C622.584 350.544 623.424 350.28 624.096 349.752L625.356 352.956C624.828 353.388 624.18 353.712 623.412 353.928C622.644 354.144 621.852 354.252 621.036 354.252ZM611.244 338.52V334.92H624.06V338.52H611.244ZM649.915 334.56C651.451 334.56 652.819 334.86 654.019 335.46C655.243 336.06 656.203 336.984 656.899 338.232C657.595 339.456 657.943 341.04 657.943 342.984V354H653.443V343.56C653.443 341.856 653.035 340.584 652.219 339.744C651.427 338.904 650.311 338.484 648.871 338.484C647.815 338.484 646.879 338.7 646.063 339.132C645.247 339.564 644.611 340.212 644.155 341.076C643.723 341.916 643.507 342.984 643.507 344.28V354H639.007V327.288H643.507V339.96L642.535 338.376C643.207 337.152 644.179 336.216 645.451 335.568C646.747 334.896 648.235 334.56 649.915 334.56ZM675.495 354V350.112L675.243 349.284V342.48C675.243 341.16 674.847 340.14 674.055 339.42C673.263 338.676 672.063 338.304 670.455 338.304C669.375 338.304 668.307 338.472 667.251 338.808C666.219 339.144 665.343 339.612 664.623 340.212L662.859 336.936C663.891 336.144 665.115 335.556 666.531 335.172C667.971 334.764 669.459 334.56 670.995 334.56C673.779 334.56 675.927 335.232 677.439 336.576C678.975 337.896 679.743 339.948 679.743 342.732V354H675.495ZM669.447 354.252C668.007 354.252 666.747 354.012 665.667 353.532C664.587 353.028 663.747 352.344 663.147 351.48C662.571 350.592 662.283 349.596 662.283 348.492C662.283 347.412 662.535 346.44 663.039 345.576C663.567 344.712 664.419 344.028 665.595 343.524C666.771 343.02 668.331 342.768 670.275 342.768H675.855V345.756H670.599C669.063 345.756 668.031 346.008 667.503 346.512C666.975 346.992 666.711 347.592 666.711 348.312C666.711 349.128 667.035 349.776 667.683 350.256C668.331 350.736 669.231 350.976 670.383 350.976C671.487 350.976 672.471 350.724 673.335 350.22C674.223 349.716 674.859 348.972 675.243 347.988L675.999 350.688C675.567 351.816 674.787 352.692 673.659 353.316C672.555 353.94 671.151 354.252 669.447 354.252ZM691.458 354.252C689.85 354.252 688.302 354.048 686.814 353.64C685.35 353.208 684.186 352.692 683.322 352.092L685.05 348.672C685.914 349.224 686.946 349.68 688.146 350.04C689.346 350.4 690.546 350.58 691.746 350.58C693.162 350.58 694.182 350.388 694.806 350.004C695.454 349.62 695.778 349.104 695.778 348.456C695.778 347.928 695.562 347.532 695.13 347.268C694.698 346.98 694.134 346.764 693.438 346.62C692.742 346.476 691.962 346.344 691.098 346.224C690.258 346.104 689.406 345.948 688.542 345.756C687.702 345.54 686.934 345.24 686.238 344.856C685.542 344.448 684.978 343.908 684.546 343.236C684.114 342.564 683.898 341.676 683.898 340.572C683.898 339.348 684.246 338.292 684.942 337.404C685.638 336.492 686.61 335.796 687.858 335.316C689.13 334.812 690.63 334.56 692.358 334.56C693.654 334.56 694.962 334.704 696.282 334.992C697.602 335.28 698.694 335.688 699.558 336.216L697.83 339.636C696.918 339.084 695.994 338.712 695.058 338.52C694.146 338.304 693.234 338.196 692.322 338.196C690.954 338.196 689.934 338.4 689.262 338.808C688.614 339.216 688.29 339.732 688.29 340.356C688.29 340.932 688.506 341.364 688.938 341.652C689.37 341.94 689.934 342.168 690.63 342.336C691.326 342.504 692.094 342.648 692.934 342.768C693.798 342.864 694.65 343.02 695.49 343.236C696.33 343.452 697.098 343.752 697.794 344.136C698.514 344.496 699.09 345.012 699.522 345.684C699.954 346.356 700.17 347.232 700.17 348.312C700.17 349.512 699.81 350.556 699.09 351.444C698.394 352.332 697.398 353.028 696.102 353.532C694.806 354.012 693.258 354.252 691.458 354.252ZM63.608 402.252C61.976 402.252 60.524 401.892 59.252 401.172C57.98 400.452 56.972 399.372 56.228 397.932C55.508 396.468 55.148 394.62 55.148 392.388C55.148 390.132 55.52 388.284 56.264 386.844C57.032 385.404 58.052 384.336 59.324 383.64C60.62 382.92 62.048 382.56 63.608 382.56C65.504 382.56 67.172 382.968 68.612 383.784C70.076 384.6 71.228 385.74 72.068 387.204C72.932 388.668 73.364 390.396 73.364 392.388C73.364 394.38 72.932 396.108 72.068 397.572C71.228 399.036 70.076 400.188 68.612 401.028C67.172 401.844 65.504 402.252 63.608 402.252ZM52.952 402V375.288H57.452V387.24L57.092 392.352L57.236 397.464V402H52.952ZM63.104 398.4C64.184 398.4 65.144 398.16 65.984 397.68C66.848 397.2 67.532 396.504 68.036 395.592C68.54 394.68 68.792 393.612 68.792 392.388C68.792 391.14 68.54 390.072 68.036 389.184C67.532 388.272 66.848 387.576 65.984 387.096C65.144 386.616 64.184 386.376 63.104 386.376C62.024 386.376 61.052 386.616 60.188 387.096C59.324 387.576 58.64 388.272 58.136 389.184C57.632 390.072 57.38 391.14 57.38 392.388C57.38 393.612 57.632 394.68 58.136 395.592C58.64 396.504 59.324 397.2 60.188 397.68C61.052 398.16 62.024 398.4 63.104 398.4ZM86.6677 402.252C84.5317 402.252 82.6597 401.832 81.0517 400.992C79.4677 400.128 78.2317 398.952 77.3437 397.464C76.4797 395.976 76.0477 394.284 76.0477 392.388C76.0477 390.468 76.4677 388.776 77.3077 387.312C78.1717 385.824 79.3477 384.66 80.8357 383.82C82.3477 382.98 84.0637 382.56 85.9837 382.56C87.8557 382.56 89.5237 382.968 90.9877 383.784C92.4517 384.6 93.6037 385.752 94.4437 387.24C95.2837 388.728 95.7037 390.48 95.7037 392.496C95.7037 392.688 95.6917 392.904 95.6677 393.144C95.6677 393.384 95.6557 393.612 95.6317 393.828H79.6117V390.84H93.2557L91.4917 391.776C91.5157 390.672 91.2877 389.7 90.8077 388.86C90.3277 388.02 89.6677 387.36 88.8277 386.88C88.0117 386.4 87.0637 386.16 85.9837 386.16C84.8797 386.16 83.9077 386.4 83.0677 386.88C82.2517 387.36 81.6037 388.032 81.1237 388.896C80.6677 389.736 80.4397 390.732 80.4397 391.884V392.604C80.4397 393.756 80.7037 394.776 81.2317 395.664C81.7597 396.552 82.5037 397.236 83.4637 397.716C84.4237 398.196 85.5277 398.436 86.7757 398.436C87.8557 398.436 88.8277 398.268 89.6917 397.932C90.5557 397.596 91.3237 397.068 91.9957 396.348L94.4077 399.12C93.5437 400.128 92.4517 400.908 91.1317 401.46C89.8357 401.988 88.3477 402.252 86.6677 402.252ZM109.062 402.252C106.926 402.252 105.054 401.832 103.446 400.992C101.862 400.128 100.626 398.952 99.7382 397.464C98.8742 395.976 98.4422 394.284 98.4422 392.388C98.4422 390.468 98.8622 388.776 99.7022 387.312C100.566 385.824 101.742 384.66 103.23 383.82C104.742 382.98 106.458 382.56 108.378 382.56C110.25 382.56 111.918 382.968 113.382 383.784C114.846 384.6 115.998 385.752 116.838 387.24C117.678 388.728 118.098 390.48 118.098 392.496C118.098 392.688 118.086 392.904 118.062 393.144C118.062 393.384 118.05 393.612 118.026 393.828H102.006V390.84H115.65L113.886 391.776C113.91 390.672 113.682 389.7 113.202 388.86C112.722 388.02 112.062 387.36 111.222 386.88C110.406 386.4 109.458 386.16 108.378 386.16C107.274 386.16 106.302 386.4 105.462 386.88C104.646 387.36 103.998 388.032 103.518 388.896C103.062 389.736 102.834 390.732 102.834 391.884V392.604C102.834 393.756 103.098 394.776 103.626 395.664C104.154 396.552 104.898 397.236 105.858 397.716C106.818 398.196 107.922 398.436 109.17 398.436C110.25 398.436 111.222 398.268 112.086 397.932C112.95 397.596 113.718 397.068 114.39 396.348L116.802 399.12C115.938 400.128 114.846 400.908 113.526 401.46C112.23 401.988 110.742 402.252 109.062 402.252ZM133.329 382.56C134.865 382.56 136.233 382.86 137.433 383.46C138.657 384.06 139.617 384.984 140.313 386.232C141.009 387.456 141.357 389.04 141.357 390.984V402H136.857V391.56C136.857 389.856 136.449 388.584 135.633 387.744C134.841 386.904 133.725 386.484 132.285 386.484C131.229 386.484 130.293 386.7 129.477 387.132C128.661 387.564 128.025 388.212 127.569 389.076C127.137 389.916 126.921 390.984 126.921 392.28V402H122.421V382.776H126.705V387.96L125.949 386.376C126.621 385.152 127.593 384.216 128.865 383.568C130.161 382.896 131.649 382.56 133.329 382.56ZM181.279 382.56C182.815 382.56 184.171 382.86 185.347 383.46C186.547 384.06 187.483 384.984 188.155 386.232C188.827 387.456 189.163 389.04 189.163 390.984V402H184.663V391.56C184.663 389.856 184.291 388.584 183.547 387.744C182.803 386.904 181.735 386.484 180.343 386.484C179.359 386.484 178.483 386.7 177.715 387.132C176.971 387.564 176.383 388.2 175.951 389.04C175.543 389.88 175.339 390.948 175.339 392.244V402H170.839V391.56C170.839 389.856 170.467 388.584 169.723 387.744C168.979 386.904 167.911 386.484 166.519 386.484C165.535 386.484 164.659 386.7 163.891 387.132C163.147 387.564 162.559 388.2 162.127 389.04C161.719 389.88 161.515 390.948 161.515 392.244V402H157.015V382.776H161.299V387.888L160.543 386.376C161.191 385.128 162.127 384.18 163.351 383.532C164.599 382.884 166.015 382.56 167.599 382.56C169.399 382.56 170.959 383.004 172.279 383.892C173.623 384.78 174.511 386.124 174.943 387.924L173.179 387.312C173.803 385.872 174.835 384.72 176.275 383.856C177.715 382.992 179.383 382.56 181.279 382.56ZM203.588 402.252C201.62 402.252 199.868 401.832 198.332 400.992C196.796 400.128 195.584 398.952 194.696 397.464C193.808 395.976 193.364 394.284 193.364 392.388C193.364 390.468 193.808 388.776 194.696 387.312C195.584 385.824 196.796 384.66 198.332 383.82C199.868 382.98 201.62 382.56 203.588 382.56C205.58 382.56 207.344 382.98 208.88 383.82C210.44 384.66 211.652 385.812 212.516 387.276C213.404 388.74 213.848 390.444 213.848 392.388C213.848 394.284 213.404 395.976 212.516 397.464C211.652 398.952 210.44 400.128 208.88 400.992C207.344 401.832 205.58 402.252 203.588 402.252ZM203.588 398.4C204.692 398.4 205.676 398.16 206.54 397.68C207.404 397.2 208.076 396.504 208.556 395.592C209.06 394.68 209.312 393.612 209.312 392.388C209.312 391.14 209.06 390.072 208.556 389.184C208.076 388.272 207.404 387.576 206.54 387.096C205.676 386.616 204.704 386.376 203.624 386.376C202.52 386.376 201.536 386.616 200.672 387.096C199.832 387.576 199.16 388.272 198.656 389.184C198.152 390.072 197.9 391.14 197.9 392.388C197.9 393.612 198.152 394.68 198.656 395.592C199.16 396.504 199.832 397.2 200.672 397.68C201.536 398.16 202.508 398.4 203.588 398.4ZM222.736 402L214.492 382.776H219.172L226.264 399.732H223.96L231.304 382.776H235.624L227.38 402H222.736ZM246.945 402.252C244.809 402.252 242.937 401.832 241.329 400.992C239.745 400.128 238.509 398.952 237.621 397.464C236.757 395.976 236.325 394.284 236.325 392.388C236.325 390.468 236.745 388.776 237.585 387.312C238.449 385.824 239.625 384.66 241.113 383.82C242.625 382.98 244.341 382.56 246.261 382.56C248.133 382.56 249.801 382.968 251.265 383.784C252.729 384.6 253.881 385.752 254.721 387.24C255.561 388.728 255.981 390.48 255.981 392.496C255.981 392.688 255.969 392.904 255.945 393.144C255.945 393.384 255.933 393.612 255.909 393.828H239.889V390.84H253.533L251.769 391.776C251.793 390.672 251.565 389.7 251.085 388.86C250.605 388.02 249.945 387.36 249.105 386.88C248.289 386.4 247.341 386.16 246.261 386.16C245.157 386.16 244.185 386.4 243.345 386.88C242.529 387.36 241.881 388.032 241.401 388.896C240.945 389.736 240.717 390.732 240.717 391.884V392.604C240.717 393.756 240.981 394.776 241.509 395.664C242.037 396.552 242.781 397.236 243.741 397.716C244.701 398.196 245.805 398.436 247.053 398.436C248.133 398.436 249.105 398.268 249.969 397.932C250.833 397.596 251.601 397.068 252.273 396.348L254.685 399.12C253.821 400.128 252.729 400.908 251.409 401.46C250.113 401.988 248.625 402.252 246.945 402.252ZM268.44 402.252C266.592 402.252 264.924 401.844 263.436 401.028C261.972 400.188 260.82 399.036 259.98 397.572C259.14 396.108 258.72 394.38 258.72 392.388C258.72 390.396 259.14 388.668 259.98 387.204C260.82 385.74 261.972 384.6 263.436 383.784C264.924 382.968 266.592 382.56 268.44 382.56C270.048 382.56 271.488 382.92 272.76 383.64C274.032 384.336 275.04 385.404 275.784 386.844C276.528 388.284 276.9 390.132 276.9 392.388C276.9 394.62 276.54 396.468 275.82 397.932C275.1 399.372 274.104 400.452 272.832 401.172C271.56 401.892 270.096 402.252 268.44 402.252ZM268.98 398.4C270.06 398.4 271.02 398.16 271.86 397.68C272.724 397.2 273.408 396.504 273.912 395.592C274.44 394.68 274.704 393.612 274.704 392.388C274.704 391.14 274.44 390.072 273.912 389.184C273.408 388.272 272.724 387.576 271.86 387.096C271.02 386.616 270.06 386.376 268.98 386.376C267.9 386.376 266.928 386.616 266.064 387.096C265.224 387.576 264.54 388.272 264.012 389.184C263.508 390.072 263.256 391.14 263.256 392.388C263.256 393.612 263.508 394.68 264.012 395.592C264.54 396.504 265.224 397.2 266.064 397.68C266.928 398.16 267.9 398.4 268.98 398.4ZM274.812 402V397.464L274.992 392.352L274.632 387.24V375.288H279.096V402H274.812ZM302.204 402.252C300.092 402.252 298.46 401.712 297.308 400.632C296.156 399.528 295.58 397.908 295.58 395.772V378.528H300.08V395.664C300.08 396.576 300.308 397.284 300.764 397.788C301.244 398.292 301.904 398.544 302.744 398.544C303.752 398.544 304.592 398.28 305.264 397.752L306.524 400.956C305.996 401.388 305.348 401.712 304.58 401.928C303.812 402.144 303.02 402.252 302.204 402.252ZM292.412 386.52V382.92H305.228V386.52H292.412ZM318.233 402.252C316.265 402.252 314.513 401.832 312.977 400.992C311.441 400.128 310.229 398.952 309.341 397.464C308.453 395.976 308.009 394.284 308.009 392.388C308.009 390.468 308.453 388.776 309.341 387.312C310.229 385.824 311.441 384.66 312.977 383.82C314.513 382.98 316.265 382.56 318.233 382.56C320.225 382.56 321.989 382.98 323.525 383.82C325.085 384.66 326.297 385.812 327.161 387.276C328.049 388.74 328.493 390.444 328.493 392.388C328.493 394.284 328.049 395.976 327.161 397.464C326.297 398.952 325.085 400.128 323.525 400.992C321.989 401.832 320.225 402.252 318.233 402.252ZM318.233 398.4C319.337 398.4 320.321 398.16 321.185 397.68C322.049 397.2 322.721 396.504 323.201 395.592C323.705 394.68 323.957 393.612 323.957 392.388C323.957 391.14 323.705 390.072 323.201 389.184C322.721 388.272 322.049 387.576 321.185 387.096C320.321 386.616 319.349 386.376 318.269 386.376C317.165 386.376 316.181 386.616 315.317 387.096C314.477 387.576 313.805 388.272 313.301 389.184C312.797 390.072 312.545 391.14 312.545 392.388C312.545 393.612 312.797 394.68 313.301 395.592C313.805 396.504 314.477 397.2 315.317 397.68C316.181 398.16 317.153 398.4 318.233 398.4ZM349.981 402.252C347.869 402.252 346.237 401.712 345.085 400.632C343.933 399.528 343.357 397.908 343.357 395.772V378.528H347.857V395.664C347.857 396.576 348.085 397.284 348.541 397.788C349.021 398.292 349.681 398.544 350.521 398.544C351.529 398.544 352.369 398.28 353.041 397.752L354.301 400.956C353.773 401.388 353.125 401.712 352.357 401.928C351.589 402.144 350.797 402.252 349.981 402.252ZM340.189 386.52V382.92H353.005V386.52H340.189ZM368.911 382.56C370.447 382.56 371.815 382.86 373.015 383.46C374.239 384.06 375.199 384.984 375.895 386.232C376.591 387.456 376.939 389.04 376.939 390.984V402H372.439V391.56C372.439 389.856 372.031 388.584 371.215 387.744C370.423 386.904 369.307 386.484 367.867 386.484C366.811 386.484 365.875 386.7 365.059 387.132C364.243 387.564 363.607 388.212 363.151 389.076C362.719 389.916 362.503 390.984 362.503 392.28V402H358.003V375.288H362.503V387.96L361.531 386.376C362.203 385.152 363.175 384.216 364.447 383.568C365.743 382.896 367.231 382.56 368.911 382.56ZM391.718 402.252C389.582 402.252 387.71 401.832 386.102 400.992C384.518 400.128 383.282 398.952 382.394 397.464C381.53 395.976 381.098 394.284 381.098 392.388C381.098 390.468 381.518 388.776 382.358 387.312C383.222 385.824 384.398 384.66 385.886 383.82C387.398 382.98 389.114 382.56 391.034 382.56C392.906 382.56 394.574 382.968 396.038 383.784C397.502 384.6 398.654 385.752 399.494 387.24C400.334 388.728 400.754 390.48 400.754 392.496C400.754 392.688 400.742 392.904 400.718 393.144C400.718 393.384 400.706 393.612 400.682 393.828H384.662V390.84H398.306L396.542 391.776C396.566 390.672 396.338 389.7 395.858 388.86C395.378 388.02 394.718 387.36 393.878 386.88C393.062 386.4 392.114 386.16 391.034 386.16C389.93 386.16 388.958 386.4 388.118 386.88C387.302 387.36 386.654 388.032 386.174 388.896C385.718 389.736 385.49 390.732 385.49 391.884V392.604C385.49 393.756 385.754 394.776 386.282 395.664C386.81 396.552 387.554 397.236 388.514 397.716C389.474 398.196 390.578 398.436 391.826 398.436C392.906 398.436 393.878 398.268 394.742 397.932C395.606 397.596 396.374 397.068 397.046 396.348L399.458 399.12C398.594 400.128 397.502 400.908 396.182 401.46C394.886 401.988 393.398 402.252 391.718 402.252ZM411.894 402L423.234 376.8H427.842L439.218 402H434.322L424.566 379.284H426.438L416.718 402H411.894ZM417.114 396.168L418.374 392.496H431.982L433.242 396.168H417.114ZM452.647 402.252C451.087 402.252 449.659 401.892 448.363 401.172C447.091 400.452 446.071 399.372 445.303 397.932C444.559 396.468 444.187 394.62 444.187 392.388C444.187 390.132 444.547 388.284 445.267 386.844C446.011 385.404 447.019 384.336 448.291 383.64C449.563 382.92 451.015 382.56 452.647 382.56C454.543 382.56 456.211 382.968 457.651 383.784C459.115 384.6 460.267 385.74 461.107 387.204C461.971 388.668 462.403 390.396 462.403 392.388C462.403 394.38 461.971 396.12 461.107 397.608C460.267 399.072 459.115 400.212 457.651 401.028C456.211 401.844 454.543 402.252 452.647 402.252ZM441.991 408.984V382.776H446.275V387.312L446.131 392.424L446.491 397.536V408.984H441.991ZM452.143 398.4C453.223 398.4 454.183 398.16 455.023 397.68C455.887 397.2 456.571 396.504 457.075 395.592C457.579 394.68 457.831 393.612 457.831 392.388C457.831 391.14 457.579 390.072 457.075 389.184C456.571 388.272 455.887 387.576 455.023 387.096C454.183 386.616 453.223 386.376 452.143 386.376C451.063 386.376 450.091 386.616 449.227 387.096C448.363 387.576 447.679 388.272 447.175 389.184C446.671 390.072 446.419 391.14 446.419 392.388C446.419 393.612 446.671 394.68 447.175 395.592C447.679 396.504 448.363 397.2 449.227 397.68C450.091 398.16 451.063 398.4 452.143 398.4ZM477.327 402.252C475.767 402.252 474.339 401.892 473.043 401.172C471.771 400.452 470.751 399.372 469.983 397.932C469.239 396.468 468.867 394.62 468.867 392.388C468.867 390.132 469.227 388.284 469.947 386.844C470.691 385.404 471.699 384.336 472.971 383.64C474.243 382.92 475.695 382.56 477.327 382.56C479.223 382.56 480.891 382.968 482.331 383.784C483.795 384.6 484.947 385.74 485.787 387.204C486.651 388.668 487.083 390.396 487.083 392.388C487.083 394.38 486.651 396.12 485.787 397.608C484.947 399.072 483.795 400.212 482.331 401.028C480.891 401.844 479.223 402.252 477.327 402.252ZM466.671 408.984V382.776H470.955V387.312L470.811 392.424L471.171 397.536V408.984H466.671ZM476.823 398.4C477.903 398.4 478.863 398.16 479.703 397.68C480.567 397.2 481.251 396.504 481.755 395.592C482.259 394.68 482.511 393.612 482.511 392.388C482.511 391.14 482.259 390.072 481.755 389.184C481.251 388.272 480.567 387.576 479.703 387.096C478.863 386.616 477.903 386.376 476.823 386.376C475.743 386.376 474.771 386.616 473.907 387.096C473.043 387.576 472.359 388.272 471.855 389.184C471.351 390.072 471.099 391.14 471.099 392.388C471.099 393.612 471.351 394.68 471.855 395.592C472.359 396.504 473.043 397.2 473.907 397.68C474.771 398.16 475.743 398.4 476.823 398.4ZM509.544 402.36C507.576 402.36 505.692 402.084 503.892 401.532C502.092 400.956 500.664 400.224 499.608 399.336L501.228 395.7C502.236 396.492 503.484 397.152 504.972 397.68C506.46 398.208 507.984 398.472 509.544 398.472C510.864 398.472 511.932 398.328 512.748 398.04C513.564 397.752 514.164 397.368 514.548 396.888C514.932 396.384 515.124 395.82 515.124 395.196C515.124 394.428 514.848 393.816 514.296 393.36C513.744 392.88 513.024 392.508 512.136 392.244C511.272 391.956 510.3 391.692 509.22 391.452C508.164 391.212 507.096 390.936 506.016 390.624C504.96 390.288 503.988 389.868 503.1 389.364C502.236 388.836 501.528 388.14 500.976 387.276C500.424 386.412 500.148 385.308 500.148 383.964C500.148 382.596 500.508 381.348 501.228 380.22C501.972 379.068 503.088 378.156 504.576 377.484C506.088 376.788 507.996 376.44 510.3 376.44C511.812 376.44 513.312 376.632 514.8 377.016C516.288 377.4 517.584 377.952 518.688 378.672L517.212 382.308C516.084 381.636 514.92 381.144 513.72 380.832C512.52 380.496 511.368 380.328 510.264 380.328C508.968 380.328 507.912 380.484 507.096 380.796C506.304 381.108 505.716 381.516 505.332 382.02C504.972 382.524 504.792 383.1 504.792 383.748C504.792 384.516 505.056 385.14 505.584 385.62C506.136 386.076 506.844 386.436 507.708 386.7C508.596 386.964 509.58 387.228 510.66 387.492C511.74 387.732 512.808 388.008 513.864 388.32C514.944 388.632 515.916 389.04 516.78 389.544C517.668 390.048 518.376 390.732 518.904 391.596C519.456 392.46 519.732 393.552 519.732 394.872C519.732 396.216 519.36 397.464 518.616 398.616C517.896 399.744 516.78 400.656 515.268 401.352C513.756 402.024 511.848 402.36 509.544 402.36ZM531.176 402.252C529.064 402.252 527.432 401.712 526.28 400.632C525.128 399.528 524.552 397.908 524.552 395.772V378.528H529.052V395.664C529.052 396.576 529.28 397.284 529.736 397.788C530.216 398.292 530.876 398.544 531.716 398.544C532.724 398.544 533.564 398.28 534.236 397.752L535.496 400.956C534.968 401.388 534.32 401.712 533.552 401.928C532.784 402.144 531.992 402.252 531.176 402.252ZM521.384 386.52V382.92H534.2V386.52H521.384ZM547.205 402.252C545.237 402.252 543.485 401.832 541.949 400.992C540.413 400.128 539.201 398.952 538.313 397.464C537.425 395.976 536.981 394.284 536.981 392.388C536.981 390.468 537.425 388.776 538.313 387.312C539.201 385.824 540.413 384.66 541.949 383.82C543.485 382.98 545.237 382.56 547.205 382.56C549.197 382.56 550.961 382.98 552.497 383.82C554.057 384.66 555.269 385.812 556.133 387.276C557.021 388.74 557.465 390.444 557.465 392.388C557.465 394.284 557.021 395.976 556.133 397.464C555.269 398.952 554.057 400.128 552.497 400.992C550.961 401.832 549.197 402.252 547.205 402.252ZM547.205 398.4C548.309 398.4 549.293 398.16 550.157 397.68C551.021 397.2 551.693 396.504 552.173 395.592C552.677 394.68 552.929 393.612 552.929 392.388C552.929 391.14 552.677 390.072 552.173 389.184C551.693 388.272 551.021 387.576 550.157 387.096C549.293 386.616 548.321 386.376 547.241 386.376C546.137 386.376 545.153 386.616 544.289 387.096C543.449 387.576 542.777 388.272 542.273 389.184C541.769 390.072 541.517 391.14 541.517 392.388C541.517 393.612 541.769 394.68 542.273 395.592C542.777 396.504 543.449 397.2 544.289 397.68C545.153 398.16 546.125 398.4 547.205 398.4ZM561.768 402V382.776H566.052V388.068L565.548 386.52C566.124 385.224 567.024 384.24 568.248 383.568C569.496 382.896 571.044 382.56 572.892 382.56V386.844C572.7 386.796 572.52 386.772 572.352 386.772C572.184 386.748 572.016 386.736 571.848 386.736C570.144 386.736 568.788 387.24 567.78 388.248C566.772 389.232 566.268 390.708 566.268 392.676V402H561.768ZM585.57 402.252C583.434 402.252 581.562 401.832 579.954 400.992C578.37 400.128 577.134 398.952 576.246 397.464C575.382 395.976 574.95 394.284 574.95 392.388C574.95 390.468 575.37 388.776 576.21 387.312C577.074 385.824 578.25 384.66 579.738 383.82C581.25 382.98 582.966 382.56 584.886 382.56C586.758 382.56 588.426 382.968 589.89 383.784C591.354 384.6 592.506 385.752 593.346 387.24C594.186 388.728 594.606 390.48 594.606 392.496C594.606 392.688 594.594 392.904 594.57 393.144C594.57 393.384 594.558 393.612 594.534 393.828H578.514V390.84H592.158L590.394 391.776C590.418 390.672 590.19 389.7 589.71 388.86C589.23 388.02 588.57 387.36 587.73 386.88C586.914 386.4 585.966 386.16 584.886 386.16C583.782 386.16 582.81 386.4 581.97 386.88C581.154 387.36 580.506 388.032 580.026 388.896C579.57 389.736 579.342 390.732 579.342 391.884V392.604C579.342 393.756 579.606 394.776 580.134 395.664C580.662 396.552 581.406 397.236 582.366 397.716C583.326 398.196 584.43 398.436 585.678 398.436C586.758 398.436 587.73 398.268 588.594 397.932C589.458 397.596 590.226 397.068 590.898 396.348L593.31 399.12C592.446 400.128 591.354 400.908 590.034 401.46C588.738 401.988 587.25 402.252 585.57 402.252ZM600.369 402.252C599.553 402.252 598.857 401.976 598.281 401.424C597.705 400.848 597.417 400.128 597.417 399.264C597.417 398.352 597.705 397.632 598.281 397.104C598.857 396.552 599.553 396.276 600.369 396.276C601.185 396.276 601.881 396.552 602.457 397.104C603.033 397.632 603.321 398.352 603.321 399.264C603.321 400.128 603.033 400.848 602.457 401.424C601.881 401.976 601.185 402.252 600.369 402.252Z" fill="#808080"/>
<path d="M106.786 83.8125C106.786 71.2645 116.972 61.0625 129.5 61.0625C142.028 61.0625 152.214 71.2645 152.214 83.8125V100.875H106.786V83.8125ZM89.75 100.875H67.0357C57.6306 100.875 50 108.518 50 117.938V191.875C50 210.715 65.2612 226 84.0714 226H174.929C193.739 226 209 210.715 209 191.875V117.938C209 108.518 201.369 100.875 191.964 100.875H169.25V83.8125C169.25 61.809 151.469 44 129.5 44C107.531 44 89.75 61.809 89.75 83.8125V100.875ZM98.2679 117.938C100.527 117.938 102.693 118.836 104.291 120.436C105.888 122.036 106.786 124.206 106.786 126.469C106.786 128.731 105.888 130.901 104.291 132.501C102.693 134.101 100.527 135 98.2679 135C96.0088 135 93.8422 134.101 92.2448 132.501C90.6474 130.901 89.75 128.731 89.75 126.469C89.75 124.206 90.6474 122.036 92.2448 120.436C93.8422 118.836 96.0088 117.938 98.2679 117.938ZM152.214 126.469C152.214 124.206 153.112 122.036 154.709 120.436C156.307 118.836 158.473 117.938 160.732 117.938C162.991 117.938 165.158 118.836 166.755 120.436C168.353 122.036 169.25 124.206 169.25 126.469C169.25 128.731 168.353 130.901 166.755 132.501C165.158 134.101 162.991 135 160.732 135C158.473 135 156.307 134.101 154.709 132.501C153.112 130.901 152.214 128.731 152.214 126.469Z" fill="url(#paint1_linear_1385_10358)"/>
</g>
<defs>
<linearGradient id="paint0_linear_1385_10358" x1="400" y1="0" x2="400" y2="500" gradientUnits="userSpaceOnUse">
<stop stop-color="#232323"/>
<stop offset="1" stop-color="#0C0C0C"/>
</linearGradient>
<linearGradient id="paint1_linear_1385_10358" x1="129.5" y1="44" x2="129.5" y2="226" gradientUnits="userSpaceOnUse">
<stop stop-color="#8000FF"/>
<stop offset="1" stop-color="#290052"/>
</linearGradient>
<clipPath id="clip0_1385_10358">
<rect width="800" height="500" fill="white"/>
</clipPath>
</defs>
</svg>
